<svg xmlns="http://www.w3.org/2000/svg" width="31.667" height="49.908" viewBox="0 0 31.667 49.908">
  <g id="Group_41215" data-name="Group 41215" transform="translate(-568.5 -1360.862)">
    <path id="Path_40882" data-name="Path 40882" d="M776,508.779v45.331a1.8,1.8,0,0,0,2.821,1.471l12.1-8.44a1.6,1.6,0,0,1,1.828,0l12.1,8.44a1.8,1.8,0,0,0,2.821-1.471V508.779A2.78,2.78,0,0,0,804.887,506H778.779A2.78,2.78,0,0,0,776,508.779Z" transform="translate(-207.5 854.862)" fill="#ea2b2b"/>
    <path id="Path_40884" data-name="Path 40884" d="M7,11.176a1.3,1.3,0,0,1-.342.168,1.457,1.457,0,0,1-.474.072,1.683,1.683,0,0,1-.588-.09.485.485,0,0,1-.312-.306q-.444-1.164-.744-1.974t-.48-1.374H4q-.036.768-.06,1.416T3.9,10.342q-.018.606-.048,1.242t-.066,1.38a2.045,2.045,0,0,1-.336.084,2.413,2.413,0,0,1-.42.036,1.235,1.235,0,0,1-.666-.15.546.546,0,0,1-.234-.5q0-.252.03-.774t.072-1.212q.042-.69.09-1.458t.1-1.518q.054-.75.09-1.386a1.2,1.2,0,0,1,.372-.264,1.619,1.619,0,0,1,.744-.144,1.712,1.712,0,0,1,.822.168.949.949,0,0,1,.438.528q.2.468.42,1.056T5.741,8.62q.216.6.4,1.092H6.2q.36-1.092.732-2.124t.648-1.716a1.563,1.563,0,0,1,.4-.138A2.43,2.43,0,0,1,8.5,5.68a1.811,1.811,0,0,1,.78.144.6.6,0,0,1,.36.42q.048.228.1.72T9.857,8.1q.06.648.12,1.356t.108,1.374q.048.666.09,1.206t.054.852a1.656,1.656,0,0,1-.366.144,1.883,1.883,0,0,1-.462.048,1.342,1.342,0,0,1-.618-.132.567.567,0,0,1-.282-.516q-.048-.972-.09-1.854t-.066-1.62Q8.321,8.224,8.3,7.708h-.06q-.168.54-.474,1.362T7,11.176ZM11.549,5.6a.881.881,0,0,1,.264-.648,1.018,1.018,0,0,1,1.368,0,.881.881,0,0,1,.264.648.9.9,0,0,1-.264.654,1,1,0,0,1-1.368,0A.9.9,0,0,1,11.549,5.6Zm.108,4.236h1.68v3.156q-.108.024-.312.06a2.559,2.559,0,0,1-.444.036,1.17,1.17,0,0,1-.7-.168.725.725,0,0,1-.222-.612Zm1.68.864h-1.68V7.324q.108-.024.312-.06a2.559,2.559,0,0,1,.444-.036,1.17,1.17,0,0,1,.7.168.741.741,0,0,1,.222.624Zm3.2-8.3a1.987,1.987,0,0,1,.57.084q.282.084.528.168a1.308,1.308,0,0,0,.4.084.426.426,0,0,0,.324-.114.79.79,0,0,0,.168-.282H18.6a.739.739,0,0,1,.486.174.6.6,0,0,1,.21.486.715.715,0,0,1-.276.606,1.116,1.116,0,0,1-.7.21,2.028,2.028,0,0,1-.582-.084q-.282-.084-.516-.168a1.2,1.2,0,0,0-.39-.084.414.414,0,0,0-.324.12.882.882,0,0,0-.168.276h-.06a.78.78,0,0,1-.5-.174.6.6,0,0,1-.216-.5.728.728,0,0,1,.138-.456.8.8,0,0,1,.366-.264A1.344,1.344,0,0,1,16.541,2.392Zm-.948,8.556L15.521,9.8l3.072-.468a1.133,1.133,0,0,0-.318-.684,1.074,1.074,0,0,0-.822-.3,1.263,1.263,0,0,0-.948.384,1.6,1.6,0,0,0-.4,1.1l.048.756a1.4,1.4,0,0,0,.576,1.008,2.009,2.009,0,0,0,1.14.312,3,3,0,0,0,.942-.144,3.168,3.168,0,0,0,.7-.312.924.924,0,0,1,.282.288.705.705,0,0,1,.114.384.732.732,0,0,1-.282.576,1.853,1.853,0,0,1-.762.36,4.574,4.574,0,0,1-1.1.12,3.8,3.8,0,0,1-1.662-.348,2.615,2.615,0,0,1-1.14-1.044,3.33,3.33,0,0,1-.414-1.728,3.318,3.318,0,0,1,.24-1.308,2.565,2.565,0,0,1,1.566-1.476,3.308,3.308,0,0,1,1.086-.18,2.973,2.973,0,0,1,1.422.324,2.46,2.46,0,0,1,.954.888,2.417,2.417,0,0,1,.348,1.3.726.726,0,0,1-.192.546.923.923,0,0,1-.528.234ZM18.041,6.22l-.588-.7q-.3.336-.522.582t-.474.546a1.014,1.014,0,0,1-.612-.192A.557.557,0,0,1,15.617,6a.59.59,0,0,1,.108-.354,2.634,2.634,0,0,1,.324-.354l.516-.54a1.763,1.763,0,0,1,.42-.318,1.038,1.038,0,0,1,.492-.114,1.179,1.179,0,0,1,.5.1,1.458,1.458,0,0,1,.486.438l.9,1.092a.725.725,0,0,1-.162.474.606.606,0,0,1-.5.2.6.6,0,0,1-.348-.108A1.548,1.548,0,0,1,18.041,6.22ZM26.7,9.28v1.14H25.037V9.328a.833.833,0,0,0-.276-.69,1.133,1.133,0,0,0-.732-.222,2.072,2.072,0,0,0-.588.078,2.365,2.365,0,0,0-.48.2V10.42H21.293v-1.9a.851.851,0,0,1,.126-.486,1.411,1.411,0,0,1,.366-.354,3.357,3.357,0,0,1,.96-.42A4.755,4.755,0,0,1,24.053,7.1a3.053,3.053,0,0,1,1.956.558A1.961,1.961,0,0,1,26.7,9.28Zm-5.412.576h1.668v3.132q-.108.024-.312.06a2.559,2.559,0,0,1-.444.036,1.145,1.145,0,0,1-.69-.168.725.725,0,0,1-.222-.612Zm3.744,0H26.7v3.132q-.108.024-.312.06a2.485,2.485,0,0,1-.432.036,1.17,1.17,0,0,1-.7-.168.725.725,0,0,1-.222-.612ZM9.443,26.168a3.167,3.167,0,0,0,1.5-.348,2.514,2.514,0,0,0,1.038-1.026,3.424,3.424,0,0,0,.378-1.686,3.3,3.3,0,0,0-.4-1.722,2.4,2.4,0,0,0-1.1-.978,3.907,3.907,0,0,0-1.6-.312,4.529,4.529,0,0,0-1.212.15,3.657,3.657,0,0,0-.9.366,1.156,1.156,0,0,0-.36.348.915.915,0,0,0-.12.492v3.912H8.327V21.656a2.032,2.032,0,0,1,.4-.168,1.756,1.756,0,0,1,.528-.072,1.479,1.479,0,0,1,.732.174,1.17,1.17,0,0,1,.486.54,2.3,2.3,0,0,1,.174.978,1.9,1.9,0,0,1-.384,1.3,1.35,1.35,0,0,1-1.056.426,1.581,1.581,0,0,1-.7-.144,2.533,2.533,0,0,1-.51-.324V25.8a3.091,3.091,0,0,0,.624.258A2.819,2.819,0,0,0,9.443,26.168ZM8.327,24.932,6.659,24.92v2.544a.727.727,0,0,0,.222.606,1.115,1.115,0,0,0,.69.174,2.559,2.559,0,0,0,.444-.036q.2-.036.312-.06Zm10.632-1.368H17.291v-1.08a1.009,1.009,0,0,0-.3-.816,1.135,1.135,0,0,0-.756-.252,1.653,1.653,0,0,0-.714.15,2.82,2.82,0,0,0-.546.33l-.06-1.344a3.631,3.631,0,0,1,.69-.312,2.819,2.819,0,0,1,.93-.144,2.583,2.583,0,0,1,1.77.576,2.182,2.182,0,0,1,.654,1.728Zm-5.412-.732h1.668v3.156q-.108.024-.312.06a2.559,2.559,0,0,1-.444.036,1.145,1.145,0,0,1-.69-.168.725.725,0,0,1-.222-.612Zm3.744,0,1.668.012v3.144q-.108.024-.312.06a2.559,2.559,0,0,1-.444.036,1.141,1.141,0,0,1-.7-.168.736.736,0,0,1-.216-.612Zm-2.076.864H13.547V18.188q.108-.024.312-.06a2.559,2.559,0,0,1,.444-.036,1.141,1.141,0,0,1,.7.168.736.736,0,0,1,.216.612Zm5.232-1.128h1.68V26q-.108.024-.312.06a2.559,2.559,0,0,1-.444.036,1.143,1.143,0,0,1-.7-.174.717.717,0,0,1-.228-.606Zm1.68.564h-1.68v-2.8a1.937,1.937,0,0,1,.312-.066,3.06,3.06,0,0,1,.444-.03,1.17,1.17,0,0,1,.7.168.725.725,0,0,1,.222.612Zm-1.284-4.584,1.188-1.308a1.165,1.165,0,0,1,.768.222.654.654,0,0,1,.264.51.687.687,0,0,1-.108.39,1.892,1.892,0,0,1-.348.366l-1.128.984a.945.945,0,0,1-.654-.21.605.605,0,0,1-.234-.45.52.52,0,0,1,.06-.246A1.289,1.289,0,0,1,20.843,18.548Z" transform="translate(569.917 1366.815)" fill="#fff"/>
  </g>
</svg>
