<svg xmlns="http://www.w3.org/2000/svg" width="36.546" height="27.077" viewBox="0 0 36.546 27.077"><g transform="translate(-0.759 -0.607)"><g transform="translate(0 0)"><g transform="translate(0 0)"><g transform="translate(0)"><g transform="matrix(0.996, -0.087, 0.087, 0.996, 0, 1.329)"><g transform="translate(0 0)"><path d="M4.4,5.674a7,7,0,0,0,1.407-.136A.485.485,0,0,0,6.188,5.1a7.172,7.172,0,0,0-.107-1.544A4.4,4.4,0,0,0,4.738.917,4.4,4.4,0,0,0,1.925,0H1.79A7,7,0,0,0,.383.136.485.485,0,0,0,.006.578,7.174,7.174,0,0,0,.113,2.121,4.4,4.4,0,0,0,1.457,4.757a4.4,4.4,0,0,0,2.813.916Z" transform="translate(0 8.713)" fill="#e7aeff"/><path d="M2.432,5.429a4.1,4.1,0,0,0,2.308-.623,4.4,4.4,0,0,0,1.63-2.468A7.065,7.065,0,0,0,6.651.816.485.485,0,0,0,6.325.335,7.056,7.056,0,0,0,4.809.028C4.608.01,4.41,0,4.219,0A4.1,4.1,0,0,0,1.911.623,4.4,4.4,0,0,0,.28,3.091,7.071,7.071,0,0,0,0,4.613a.485.485,0,0,0,.325.481A7.064,7.064,0,0,0,1.843,5.4C2.043,5.419,2.241,5.429,2.432,5.429Z" transform="translate(8.601 21.778)" fill="#e7aeff"/><path d="M3.993,5.08a4.891,4.891,0,0,0,2.217-.6A7.064,7.064,0,0,0,7.5,3.637a.485.485,0,0,0,.123-.567A7.161,7.161,0,0,0,6.8,1.76,4.4,4.4,0,0,0,4.373.073,3.264,3.264,0,0,0,3.678,0,4.891,4.891,0,0,0,1.462.6a7.059,7.059,0,0,0-1.295.848.485.485,0,0,0-.123.567A7.167,7.167,0,0,0,.868,3.32,4.4,4.4,0,0,0,3.3,5.007l.1.021h0A3.326,3.326,0,0,0,3.993,5.08Z" transform="translate(1.462 16.566)" fill="#e7aeff"/><path d="M3.964,7.26a.484.484,0,0,0,.42-.245,7.177,7.177,0,0,0,.58-1.435,4.4,4.4,0,0,0-.053-2.958A4.4,4.4,0,0,0,2.784.567,7.163,7.163,0,0,0,1.34.013.482.482,0,0,0,.807.245,7.172,7.172,0,0,0,.227,1.68,4.4,4.4,0,0,0,.28,4.637,4.4,4.4,0,0,0,2.407,6.693a7.162,7.162,0,0,0,1.445.554A.486.486,0,0,0,3.964,7.26Z" transform="translate(3.097 0)" fill="#e7aeff"/></g></g><g transform="matrix(-0.996, -0.087, 0.087, -0.996, 35.693, 28.433)"><g transform="translate(0 0)"><path d="M4.4,0A7,7,0,0,1,5.811.136a.485.485,0,0,1,.377.441,7.172,7.172,0,0,1-.107,1.544A4.4,4.4,0,0,1,4.738,4.757a4.4,4.4,0,0,1-2.813.916H1.79A7,7,0,0,1,.383,5.537.485.485,0,0,1,.006,5.1,7.174,7.174,0,0,1,.113,3.552,4.4,4.4,0,0,1,1.457.917,4.4,4.4,0,0,1,4.269,0Z" transform="translate(0 12.82)" fill="#e7aeff"/><path d="M2.432,0A4.1,4.1,0,0,1,4.74.623a4.4,4.4,0,0,1,1.63,2.468,7.065,7.065,0,0,1,.28,1.522.485.485,0,0,1-.325.481A7.055,7.055,0,0,1,4.809,5.4c-.2.019-.4.028-.59.028a4.1,4.1,0,0,1-2.308-.623A4.4,4.4,0,0,1,.28,2.338,7.071,7.071,0,0,1,0,.816.485.485,0,0,1,.326.335,7.063,7.063,0,0,1,1.843.028C2.043.009,2.241,0,2.432,0Z" transform="translate(8.601 0)" fill="#e7aeff"/><path d="M3.993,0A4.891,4.891,0,0,1,6.209.6,7.064,7.064,0,0,1,7.5,1.444a.485.485,0,0,1,.123.567A7.161,7.161,0,0,1,6.8,3.32a4.4,4.4,0,0,1-2.43,1.687,3.264,3.264,0,0,1-.695.073,4.891,4.891,0,0,1-2.217-.6A7.059,7.059,0,0,1,.167,3.636a.485.485,0,0,1-.123-.567A7.166,7.166,0,0,1,.868,1.76,4.4,4.4,0,0,1,3.3.073L3.4.052h0A3.326,3.326,0,0,1,3.993,0Z" transform="translate(1.462 5.561)" fill="#e7aeff"/><path d="M3.964,0a.484.484,0,0,1,.42.245,7.178,7.178,0,0,1,.58,1.435,4.4,4.4,0,0,1-.053,2.958A4.4,4.4,0,0,1,2.784,6.693a7.163,7.163,0,0,1-1.444.554.482.482,0,0,1-.533-.232A7.172,7.172,0,0,1,.227,5.58,4.4,4.4,0,0,1,.28,2.623,4.4,4.4,0,0,1,2.407.567,7.162,7.162,0,0,1,3.852.013.486.486,0,0,1,3.964,0Z" transform="translate(3.097 19.947)" fill="#e7aeff"/></g></g></g></g><path d="M0,10.283q0-.207.016-.409A1,1,0,0,1,0,9.694V1A1,1,0,0,1,1,0H13.807a1,1,0,0,1,1,1V9.694a1,1,0,0,1-.016.179q.016.2.016.409c0,3.407-3.315,6.169-7.4,6.169S0,13.69,0,10.283Z" transform="translate(11.878 3.832)" fill="#ce82ff"/><path d="M0,11.672,11.671,0h1.947a1,1,0,0,1,1,1v.993L1.972,14.639A5.969,5.969,0,0,1,0,11.672Z" transform="translate(12.067 3.832)" fill="#d99aff"/></g><text transform="translate(19.033 13.478)" fill="#fff" font-size="8" font-family="Prompt-Bold, Prompt" font-weight="700"><tspan x="-4.688" y="0">A1</tspan></text></g></svg>