<svg xmlns="http://www.w3.org/2000/svg" width="35.296" height="26.151" viewBox="0 0 35.296 26.151"><g transform="translate(-0.733 -0.586)"><g transform="translate(0 0)"><g transform="translate(0 0)"><g transform="translate(0 0)"><g transform="matrix(0.996, -0.087, 0.087, 0.996, 0, 1.284)" opacity="0.5"><g transform="translate(0 0)"><path d="M4.254,5.48a6.756,6.756,0,0,0,1.359-.131.469.469,0,0,0,.364-.426,6.926,6.926,0,0,0-.1-1.491A4.249,4.249,0,0,0,4.576.886,4.248,4.248,0,0,0,1.859,0h-.13A6.757,6.757,0,0,0,.37.131.469.469,0,0,0,.006.558a6.928,6.928,0,0,0,.1,1.491,4.249,4.249,0,0,0,1.3,2.545,4.248,4.248,0,0,0,2.716.884Z" transform="translate(0 8.415)" fill="#9df10b"/><path d="M2.349,5.243a3.963,3.963,0,0,0,2.229-.6A4.249,4.249,0,0,0,6.153,2.258a6.824,6.824,0,0,0,.27-1.47A.469.469,0,0,0,6.109.324a6.814,6.814,0,0,0-1.465-.3C4.451.009,4.259,0,4.074,0A3.963,3.963,0,0,0,1.846.6,4.249,4.249,0,0,0,.271,2.985,6.83,6.83,0,0,0,0,4.455a.469.469,0,0,0,.314.464,6.822,6.822,0,0,0,1.465.3C1.973,5.234,2.165,5.243,2.349,5.243Z" transform="translate(8.307 21.033)" fill="#9df10b"/><path d="M3.856,4.906A4.724,4.724,0,0,0,6,4.331a6.823,6.823,0,0,0,1.25-.819.469.469,0,0,0,.119-.548A6.916,6.916,0,0,0,6.57,1.7,4.249,4.249,0,0,0,4.224.07,3.152,3.152,0,0,0,3.553,0,4.723,4.723,0,0,0,1.412.575a6.817,6.817,0,0,0-1.25.819.468.468,0,0,0-.119.548,6.922,6.922,0,0,0,.8,1.265A4.249,4.249,0,0,0,3.185,4.836l.1.02h0A3.213,3.213,0,0,0,3.856,4.906Z" transform="translate(1.412 15.999)" fill="#9df10b"/><path d="M3.829,7.012a.467.467,0,0,0,.406-.237,6.932,6.932,0,0,0,.56-1.386,4.249,4.249,0,0,0-.051-2.856A4.25,4.25,0,0,0,2.689.548a6.918,6.918,0,0,0-1.4-.535A.466.466,0,0,0,.779.237a6.927,6.927,0,0,0-.56,1.386A4.25,4.25,0,0,0,.27,4.479,4.25,4.25,0,0,0,2.325,6.464,6.918,6.918,0,0,0,3.72,7,.469.469,0,0,0,3.829,7.012Z" transform="translate(2.991 0)" fill="#9df10b"/></g></g><g transform="matrix(-0.996, -0.087, 0.087, -0.996, 34.472, 27.46)" opacity="0.5"><g transform="translate(0 0)"><path d="M4.254,0A6.757,6.757,0,0,1,5.612.131a.469.469,0,0,1,.364.426,6.926,6.926,0,0,1-.1,1.491,4.249,4.249,0,0,1-1.3,2.545,4.248,4.248,0,0,1-2.717.884h-.13A6.757,6.757,0,0,1,.37,5.348a.469.469,0,0,1-.364-.426,6.928,6.928,0,0,1,.1-1.491A4.249,4.249,0,0,1,1.407.885,4.248,4.248,0,0,1,4.123,0Z" transform="translate(0 12.382)" fill="#9df10b"/><path d="M2.349,0A3.963,3.963,0,0,1,4.578.6,4.249,4.249,0,0,1,6.153,2.985a6.823,6.823,0,0,1,.27,1.47.469.469,0,0,1-.314.464,6.814,6.814,0,0,1-1.465.3c-.193.018-.385.027-.57.027a3.963,3.963,0,0,1-2.229-.6A4.249,4.249,0,0,1,.271,2.258,6.829,6.829,0,0,1,0,.788.469.469,0,0,1,.315.323,6.822,6.822,0,0,1,1.78.027C1.973.009,2.164,0,2.349,0Z" transform="translate(8.306 0)" fill="#9df10b"/><path d="M3.856,0A4.724,4.724,0,0,1,6,.575a6.822,6.822,0,0,1,1.25.819.469.469,0,0,1,.119.548,6.916,6.916,0,0,1-.8,1.265A4.249,4.249,0,0,1,4.224,4.836a3.152,3.152,0,0,1-.671.07,4.723,4.723,0,0,1-2.141-.575,6.817,6.817,0,0,1-1.25-.819.468.468,0,0,1-.119-.548A6.921,6.921,0,0,1,.839,1.7,4.249,4.249,0,0,1,3.185.07l.1-.02h0A3.213,3.213,0,0,1,3.856,0Z" transform="translate(1.412 5.371)" fill="#9df10b"/><path d="M3.829,0a.467.467,0,0,1,.406.237,6.932,6.932,0,0,1,.56,1.386,4.249,4.249,0,0,1-.051,2.856A4.249,4.249,0,0,1,2.689,6.464,6.918,6.918,0,0,1,1.294,7a.466.466,0,0,1-.515-.224A6.927,6.927,0,0,1,.219,5.39,4.25,4.25,0,0,1,.27,2.533,4.25,4.25,0,0,1,2.325.548,6.918,6.918,0,0,1,3.72.013.469.469,0,0,1,3.829,0Z" transform="translate(2.991 19.265)" fill="#9df10b"/></g></g></g></g><path d="M0,9.931q0-.211.017-.417A1.006,1.006,0,0,1,0,9.328V1A1,1,0,0,1,1,0H13.3a1,1,0,0,1,1,1V9.328a1,1,0,0,1-.017.186c.011.138.017.277.017.417,0,3.291-3.2,5.959-7.151,5.959S0,13.222,0,9.931Z" transform="translate(11.472 3.701)" fill="#8ee000"/><path d="M0,11.272,11.272,0h1.848a1,1,0,0,1,1,1v.923L1.9,14.138A5.764,5.764,0,0,1,0,11.272Z" transform="translate(11.654 3.701)" fill="#bff199" opacity="0.88"/></g><text transform="translate(18.381 13.262)" fill="#fff" font-size="8" font-family="BalooTamma2-Bold, 'Baloo Tamma \32 '" font-weight="700"><tspan x="-3.864" y="0">C1</tspan></text></g></svg>