<svg xmlns="http://www.w3.org/2000/svg" width="111.429" height="107.503" viewBox="0 0 111.429 107.503"><g transform="translate(-679.286 -214.556)"><g transform="translate(0.286 12.937)"><rect width="111.429" height="107.503" rx="11" transform="translate(679 201.619)" fill="#e7a601"/><rect width="107.429" height="103.132" rx="9" transform="translate(679 201.619)" fill="#ffd026"/><rect width="94.983" height="27.931" rx="4" transform="translate(685.223 210.213)" fill="#fff"/></g><path d="M49.111,53.353c-.374,0-.744-.016-1.1-.047A8.255,8.255,0,0,1,43.5,51.655a8.843,8.843,0,0,1-2.832-5.228,14.13,14.13,0,0,1-.293-3.1.975.975,0,0,1,.735-.906,14.144,14.144,0,0,1,3.091-.348c.4,0,.8.013,1.185.046A8.242,8.242,0,0,1,49.9,43.773,8.846,8.846,0,0,1,52.729,49a14.237,14.237,0,0,1,.294,3.1.975.975,0,0,1-.735.905,14.174,14.174,0,0,1-3.091.349Zm-25.079,0A14.141,14.141,0,0,1,20.941,53a.975.975,0,0,1-.735-.905A14.133,14.133,0,0,1,20.5,49a8.848,8.848,0,0,1,2.832-5.229,8.254,8.254,0,0,1,4.512-1.651c.383-.033.782-.049,1.187-.047a14.174,14.174,0,0,1,3.091.349.975.975,0,0,1,.735.905,14.2,14.2,0,0,1-.293,3.1,8.85,8.85,0,0,1-2.832,5.228,8.25,8.25,0,0,1-4.514,1.651c-.355.031-.724.047-1.1.047ZM11.878,43.148h0c-.07-.006-.139-.014-.208-.023a8.846,8.846,0,0,1-5.161-2.953,14.409,14.409,0,0,1-1.88-2.477.973.973,0,0,1,.148-1.157A14.139,14.139,0,0,1,7.22,34.612a9.837,9.837,0,0,1,4.334-1.582,6.555,6.555,0,0,1,1.4.025,8.84,8.84,0,0,1,5.162,2.952A14.357,14.357,0,0,1,20,38.485a.973.973,0,0,1-.149,1.157,14.109,14.109,0,0,1-2.444,1.924,9.824,9.824,0,0,1-4.334,1.581q-.3.027-.6.027C12.272,43.175,12.074,43.166,11.878,43.148Zm48.278,0a9.83,9.83,0,0,1-4.334-1.582,14.2,14.2,0,0,1-2.444-1.923.977.977,0,0,1-.148-1.158,14.37,14.37,0,0,1,1.88-2.477,8.839,8.839,0,0,1,5.161-2.953,6.567,6.567,0,0,1,1.4-.023,9.837,9.837,0,0,1,4.334,1.58,14.292,14.292,0,0,1,2.444,1.925.976.976,0,0,1,.147,1.157,14.4,14.4,0,0,1-1.88,2.478,8.847,8.847,0,0,1-5.161,2.953l-.209.023h0q-.293.027-.594.027T60.156,43.148ZM22.235,26.459c0-.044,0-.087,0-.131,0-.014,0-.027,0-.041V6.791a1,1,0,0,1,1-1H51a1,1,0,0,1,1,1v19.5c0,.014,0,.028,0,.041,0,.043,0,.088,0,.131,0,6.849-6.663,12.4-14.882,12.4S22.235,33.308,22.235,26.459Zm-18.6,1.018A8.846,8.846,0,0,1,.484,22.435,14.468,14.468,0,0,1,0,19.364a.975.975,0,0,1,.678-.95,14.115,14.115,0,0,1,2.795-.519l.269-.021a8.835,8.835,0,0,1,5.792,1.341,8.841,8.841,0,0,1,3.152,5.041,14.4,14.4,0,0,1,.485,3.073.977.977,0,0,1-.678.95A14.092,14.092,0,0,1,9.7,28.8c-.089.008-.179.015-.271.022q-.451.031-.884.031A8.363,8.363,0,0,1,3.636,27.477ZM63.8,28.817l-.272-.021a14.04,14.04,0,0,1-2.792-.519.974.974,0,0,1-.678-.95,14.464,14.464,0,0,1,.485-3.073A8.845,8.845,0,0,1,63.7,19.213a8.842,8.842,0,0,1,5.792-1.34c.091.005.182.013.27.021a13.967,13.967,0,0,1,2.794.519.974.974,0,0,1,.678.949,14.46,14.46,0,0,1-.485,3.072,8.839,8.839,0,0,1-3.151,5.042,8.355,8.355,0,0,1-4.9,1.372Q64.254,28.848,63.8,28.817ZM59.458,14.061a.973.973,0,0,1-.8-.564,14.389,14.389,0,0,1-.909-2.974,8.835,8.835,0,0,1,.624-5.913A8.838,8.838,0,0,1,62.994.867,14.331,14.331,0,0,1,65.984.01.919.919,0,0,1,66.211,0a.972.972,0,0,1,.8.563,14.529,14.529,0,0,1,.91,2.975,8.841,8.841,0,0,1-.625,5.913,8.835,8.835,0,0,1-4.62,3.742,14.363,14.363,0,0,1-2.99.857.988.988,0,0,1-.147.011C59.512,14.064,59.485,14.063,59.458,14.061Zm-45.913-.006a14.546,14.546,0,0,1-2.991-.857,8.844,8.844,0,0,1-4.62-3.743A8.843,8.843,0,0,1,5.31,3.541,14.456,14.456,0,0,1,6.219.567.969.969,0,0,1,7.246.01a14.443,14.443,0,0,1,2.989.856,8.842,8.842,0,0,1,4.62,3.744,8.838,8.838,0,0,1,.625,5.912A14.43,14.43,0,0,1,14.57,13.5a.974.974,0,0,1-.8.564c-.028,0-.055,0-.083,0A1.106,1.106,0,0,1,13.544,14.054Z" transform="translate(698.385 257.416)" fill="#fff" stroke="#000" stroke-width="4" opacity="0.15"/><g transform="translate(696.745 255.504)"><g transform="translate(0 0)"><g transform="translate(0)"><g transform="matrix(0.996, -0.087, 0.087, 0.996, 0, 2.672)"><g transform="translate(0 0)"><path d="M8.853,11.4a14.062,14.062,0,0,0,2.827-.274.975.975,0,0,0,.758-.887,14.415,14.415,0,0,0-.216-3.1,8.842,8.842,0,0,0-2.7-5.3A8.842,8.842,0,0,0,3.869,0L3.6,0A14.062,14.062,0,0,0,.77.274a.975.975,0,0,0-.758.887,14.419,14.419,0,0,0,.216,3.1,8.843,8.843,0,0,0,2.7,5.3A8.842,8.842,0,0,0,8.582,11.4Z" transform="translate(0 17.514)" fill="#ffe698"/><path d="M4.889,10.912a8.248,8.248,0,0,0,4.64-1.252A8.843,8.843,0,0,0,12.806,4.7a14.2,14.2,0,0,0,.562-3.06.975.975,0,0,0-.654-.966A14.182,14.182,0,0,0,9.666.057C9.263.019,8.864,0,8.48,0A8.247,8.247,0,0,0,3.841,1.252,8.844,8.844,0,0,0,.564,6.213,14.214,14.214,0,0,0,0,9.273a.976.976,0,0,0,.654.966,14.2,14.2,0,0,0,3.048.617C4.106,10.893,4.5,10.912,4.889,10.912Z" transform="translate(17.287 43.775)" fill="#ffe698"/><path d="M8.025,10.211a9.831,9.831,0,0,0,4.455-1.2,14.2,14.2,0,0,0,2.6-1.7.975.975,0,0,0,.248-1.14,14.393,14.393,0,0,0-1.657-2.632A8.843,8.843,0,0,0,8.79.146,6.56,6.56,0,0,0,7.394,0,9.83,9.83,0,0,0,2.938,1.2a14.188,14.188,0,0,0-2.6,1.7.975.975,0,0,0-.248,1.14A14.405,14.405,0,0,0,1.745,6.674a8.843,8.843,0,0,0,4.884,3.391c.068.015.136.029.205.041h0A6.686,6.686,0,0,0,8.025,10.211Z" transform="translate(2.938 33.298)" fill="#ffe698"/><path d="M7.969,14.593a.973.973,0,0,0,.844-.492,14.427,14.427,0,0,0,1.165-2.884,8.843,8.843,0,0,0-.106-5.945A8.844,8.844,0,0,0,5.6,1.141,14.4,14.4,0,0,0,2.692.027.969.969,0,0,0,1.622.492,14.415,14.415,0,0,0,.456,3.376,8.844,8.844,0,0,0,.562,9.321a8.845,8.845,0,0,0,4.276,4.131,14.4,14.4,0,0,0,2.9,1.114A.977.977,0,0,0,7.969,14.593Z" transform="translate(6.226 0)" fill="#ffe698"/></g></g><g transform="matrix(-0.996, -0.087, 0.087, -0.996, 71.744, 57.15)"><g transform="translate(0 0)"><path d="M8.853,0A14.062,14.062,0,0,1,11.68.273a.975.975,0,0,1,.758.887,14.415,14.415,0,0,1-.216,3.1,8.842,8.842,0,0,1-2.7,5.3A8.842,8.842,0,0,1,3.869,11.4l-.27,0A14.062,14.062,0,0,1,.77,11.13a.975.975,0,0,1-.758-.887,14.419,14.419,0,0,1,.216-3.1,8.843,8.843,0,0,1,2.7-5.3A8.842,8.842,0,0,1,8.582,0Z" transform="translate(0 25.769)" fill="#ffe698"/><path d="M4.889,0a8.248,8.248,0,0,1,4.64,1.252,8.843,8.843,0,0,1,3.277,4.961,14.2,14.2,0,0,1,.562,3.06.975.975,0,0,1-.654.966,14.181,14.181,0,0,1-3.048.617c-.4.038-.8.057-1.186.057A8.247,8.247,0,0,1,3.841,9.66,8.844,8.844,0,0,1,.564,4.7,14.213,14.213,0,0,1,0,1.64.976.976,0,0,1,.655.673,14.2,14.2,0,0,1,3.7.057C4.106.019,4.5,0,4.889,0Z" transform="translate(17.287 0)" fill="#ffe698"/><path d="M8.025,0a9.831,9.831,0,0,1,4.455,1.2,14.2,14.2,0,0,1,2.6,1.7.975.975,0,0,1,.248,1.14,14.394,14.394,0,0,1-1.657,2.632A8.843,8.843,0,0,1,8.79,10.065a6.56,6.56,0,0,1-1.4.146,9.83,9.83,0,0,1-4.456-1.2,14.188,14.188,0,0,1-2.6-1.7.975.975,0,0,1-.248-1.14A14.4,14.4,0,0,1,1.745,3.537,8.843,8.843,0,0,1,6.629.146C6.7.131,6.765.117,6.834.1h0A6.686,6.686,0,0,1,8.025,0Z" transform="translate(2.938 11.178)" fill="#ffe698"/><path d="M7.968,0a.973.973,0,0,1,.844.492A14.427,14.427,0,0,1,9.978,3.376a8.843,8.843,0,0,1-.106,5.945A8.844,8.844,0,0,1,5.6,13.452a14.4,14.4,0,0,1-2.9,1.114A.969.969,0,0,1,1.622,14.1,14.416,14.416,0,0,1,.456,11.217,8.844,8.844,0,0,1,.562,5.272,8.845,8.845,0,0,1,4.838,1.14,14.4,14.4,0,0,1,7.742.027.977.977,0,0,1,7.968,0Z" transform="translate(6.226 40.094)" fill="#ffe698"/></g></g></g></g><path d="M0,20.668c0-.044,0-.088,0-.132,0-.014,0-.027,0-.041V1A1,1,0,0,1,1,0H28.763a1,1,0,0,1,1,1V20.495c0,.014,0,.027,0,.041,0,.044,0,.088,0,.132,0,6.849-6.663,12.4-14.882,12.4S0,27.517,0,20.668Z" transform="translate(23.875 7.703)" fill="#feb200"/><path d="M0,23.459,23.458,0h4.926a1,1,0,0,1,1,1V4L3.964,29.423A12,12,0,0,1,0,23.459Z" transform="translate(24.255 7.702)" fill="#fff" opacity="0.12"/></g><g transform="translate(710.576 256.349)"><path d="M111.478,70.1l1.825,5.555a1.107,1.107,0,0,1,.054.2.463.463,0,0,1,0,.135,1.1,1.1,0,0,1-.054.2l-1.825,5.556a.543.543,0,0,1-1.032,0l-1.824-5.556a1.058,1.058,0,0,1-.054-.2.463.463,0,0,1,0-.134,1.05,1.05,0,0,1,.054-.2l1.824-5.556a.543.543,0,0,1,1.032,0Z" transform="translate(-66.287 -38.862)" fill="#fff1a2" fill-rule="evenodd"/><path d="M81.038,64.372l-4.5,1.476a.543.543,0,0,1-.339,0l-4.5-1.476a.543.543,0,0,1,0-1.032l4.5-1.476a.543.543,0,0,1,.339,0l4.5,1.476a.543.543,0,0,1,0,1.032ZM34.8,43.687l.87,2.65a1.117,1.117,0,0,1,.054.2.466.466,0,0,1,0,.134,1.1,1.1,0,0,1-.054.2l-.87,2.651a.543.543,0,0,1-1.032,0l-.87-2.651a1.1,1.1,0,0,1-.054-.2.467.467,0,0,1,0-.134,1.1,1.1,0,0,1,.054-.2l.87-2.651a.543.543,0,0,1,1.032,0Z" transform="translate(-31.697 -26.798)" fill="#fff1a2" fill-rule="evenodd"/><path d="M35.539,33.235l-2.045.671a.543.543,0,0,1-.339,0l-2.045-.671a.543.543,0,0,1,0-1.032l2.045-.672a.543.543,0,0,1,.339,0l2.045.671a.543.543,0,0,1,0,1.032Zm29.136-19.95.645,1.963a1.1,1.1,0,0,1,.054.2.467.467,0,0,1,0,.135,1.1,1.1,0,0,1-.054.2l-.645,1.963a.543.543,0,0,1-1.032,0L63,15.784a1.1,1.1,0,0,1-.054-.2.466.466,0,0,1,0-.134,1.038,1.038,0,0,1,.054-.2l.644-1.963a.543.543,0,0,1,1.032,0Z" transform="translate(-30.736 -12.911)" fill="#fff1a2" fill-rule="evenodd"/><path d="M92.211,17.36l-1.466.481a.543.543,0,0,1-.339,0l-1.466-.481a.543.543,0,0,1,0-1.032l1.466-.481a.543.543,0,0,1,.339,0l1.466.481a.543.543,0,0,1,0,1.032Z" transform="translate(-57.153 -14.239)" fill="#fff1a2" fill-rule="evenodd"/></g><path d="M3.165-7.365l-.03-1.74H7.62a1.357,1.357,0,0,1,.158.36,1.662,1.662,0,0,1,.067.48.981.981,0,0,1-.2.675.718.718,0,0,1-.562.225Zm1.83-1.74.03,1.74H.525a2.176,2.176,0,0,1-.15-.36A1.508,1.508,0,0,1,.3-8.205a.953.953,0,0,1,.21-.682.736.736,0,0,1,.555-.217ZM2.985-7.77H5.13V-.015q-.135.03-.42.075a3.649,3.649,0,0,1-.57.045,1.346,1.346,0,0,1-.893-.233A.987.987,0,0,1,2.985-.9ZM15.87-3.045H13.785v-1.35a1.262,1.262,0,0,0-.375-1.02,1.419,1.419,0,0,0-.945-.315,2.067,2.067,0,0,0-.892.188,3.525,3.525,0,0,0-.682.412l-.075-1.68a4.538,4.538,0,0,1,.862-.39,3.524,3.524,0,0,1,1.163-.18,3.229,3.229,0,0,1,2.213.72A2.727,2.727,0,0,1,15.87-4.5ZM9.105-3.96H11.19V-.015q-.135.03-.39.075a3.2,3.2,0,0,1-.555.045,1.431,1.431,0,0,1-.863-.21A.906.906,0,0,1,9.105-.87Zm4.68,0,2.085.015v3.93q-.135.03-.39.075a3.2,3.2,0,0,1-.555.045,1.426,1.426,0,0,1-.87-.21.92.92,0,0,1-.27-.765ZM11.19-2.88H9.105V-9.765q.135-.03.39-.075a3.2,3.2,0,0,1,.555-.045,1.426,1.426,0,0,1,.87.21.92.92,0,0,1,.27.765Zm9.375,1.545a3.35,3.35,0,0,0,.728-.075,1.626,1.626,0,0,0,.5-.18V-3.12L20.445-3a1.821,1.821,0,0,0-.84.24.637.637,0,0,0-.3.57.747.747,0,0,0,.3.623A1.576,1.576,0,0,0,20.565-1.335ZM20.49-7.38a4.137,4.137,0,0,1,2.422.637,2.277,2.277,0,0,1,.907,2v3.42a.877.877,0,0,1-.187.593,2.092,2.092,0,0,1-.472.4,3.861,3.861,0,0,1-1.095.405,6.8,6.8,0,0,1-1.5.15A4.343,4.343,0,0,1,18.158-.36a1.959,1.959,0,0,1-.892-1.755,1.942,1.942,0,0,1,.63-1.56,3.327,3.327,0,0,1,1.875-.66l2.01-.21V-4.77a.837.837,0,0,0-.405-.78,2.249,2.249,0,0,0-1.14-.24,4.506,4.506,0,0,0-1.125.142,6.185,6.185,0,0,0-.99.338.981.981,0,0,1-.285-.353,1.049,1.049,0,0,1-.12-.488.908.908,0,0,1,.645-.87,4.444,4.444,0,0,1,1-.27A7.205,7.205,0,0,1,20.49-7.38Zm-.54-.855L18.5-9.63a.962.962,0,0,1-.023-.15q-.007-.09-.007-.15a.917.917,0,0,1,.263-.69.9.9,0,0,1,.653-.255,1.194,1.194,0,0,1,.48.1,1.2,1.2,0,0,1,.435.352l1.335,1.68a.929.929,0,0,1-.3.637.856.856,0,0,1-.57.218,1,1,0,0,1-.45-.09A1.594,1.594,0,0,1,19.95-8.235ZM32.37-4.65v1.425H30.285V-4.59a1.041,1.041,0,0,0-.345-.863,1.417,1.417,0,0,0-.915-.278,2.589,2.589,0,0,0-.735.1,2.956,2.956,0,0,0-.6.247v2.16H25.6V-5.6a1.064,1.064,0,0,1,.158-.608,1.764,1.764,0,0,1,.457-.443,4.2,4.2,0,0,1,1.2-.525,5.944,5.944,0,0,1,1.635-.21,3.816,3.816,0,0,1,2.445.7A2.451,2.451,0,0,1,32.37-4.65ZM25.6-3.93H27.69V-.015q-.135.03-.39.075a3.2,3.2,0,0,1-.555.045,1.431,1.431,0,0,1-.863-.21A.906.906,0,0,1,25.6-.87Zm4.68,0H32.37V-.015q-.135.03-.39.075a3.106,3.106,0,0,1-.54.045,1.462,1.462,0,0,1-.878-.21.906.906,0,0,1-.278-.765Zm10.695.885H38.9v-1.35a1.262,1.262,0,0,0-.375-1.02,1.419,1.419,0,0,0-.945-.315,2.067,2.067,0,0,0-.893.188A3.525,3.525,0,0,0,36-5.13l-.075-1.68a4.538,4.538,0,0,1,.862-.39,3.524,3.524,0,0,1,1.163-.18,3.229,3.229,0,0,1,2.212.72A2.727,2.727,0,0,1,40.98-4.5ZM34.215-3.96H36.3V-.015q-.135.03-.39.075a3.2,3.2,0,0,1-.555.045,1.431,1.431,0,0,1-.862-.21.906.906,0,0,1-.278-.765Zm4.68,0,2.085.015v3.93q-.135.03-.39.075a3.2,3.2,0,0,1-.555.045,1.426,1.426,0,0,1-.87-.21A.92.92,0,0,1,38.9-.87ZM36.3-2.88H34.215V-9.765q.135-.03.39-.075a3.2,3.2,0,0,1,.555-.045,1.426,1.426,0,0,1,.87.21.92.92,0,0,1,.27.765ZM46.305-3.96H48.39V-2.3a.733.733,0,0,0,.278.645,1.327,1.327,0,0,0,.772.2,2.563,2.563,0,0,0,.5-.053,2.828,2.828,0,0,0,.458-.128,1.108,1.108,0,0,1,.21.308,1.013,1.013,0,0,1,.09.442.949.949,0,0,1-.413.78A2.27,2.27,0,0,1,48.93.21,3.018,3.018,0,0,1,47-.345a2.164,2.164,0,0,1-.7-1.8ZM47.61-5.385v-1.62h2.91a1.5,1.5,0,0,1,.142.33,1.514,1.514,0,0,1,.068.465.868.868,0,0,1-.195.622.7.7,0,0,1-.525.2Zm.78,1.815H46.305v-5.4a2.885,2.885,0,0,1,.4-.09,3.236,3.236,0,0,1,.548-.045,1.431,1.431,0,0,1,.862.21.906.906,0,0,1,.278.765ZM58.9-3.045H56.82v-1.35a1.262,1.262,0,0,0-.375-1.02A1.419,1.419,0,0,0,55.5-5.73a2.067,2.067,0,0,0-.893.188,3.525,3.525,0,0,0-.682.412L53.85-6.81a4.538,4.538,0,0,1,.862-.39,3.524,3.524,0,0,1,1.163-.18,3.229,3.229,0,0,1,2.213.72A2.727,2.727,0,0,1,58.9-4.5ZM52.14-3.96h2.085V-.015q-.135.03-.39.075a3.2,3.2,0,0,1-.555.045,1.431,1.431,0,0,1-.862-.21A.906.906,0,0,1,52.14-.87Zm4.68,0,2.085.015v3.93q-.135.03-.39.075a3.2,3.2,0,0,1-.555.045,1.426,1.426,0,0,1-.87-.21.92.92,0,0,1-.27-.765Zm-2.6,1.08H52.14V-9.765q.135-.03.39-.075a3.2,3.2,0,0,1,.555-.045,1.426,1.426,0,0,1,.87.21.92.92,0,0,1,.27.765ZM63.6-1.335a3.35,3.35,0,0,0,.727-.075,1.626,1.626,0,0,0,.5-.18V-3.12L63.48-3a1.821,1.821,0,0,0-.84.24.637.637,0,0,0-.3.57.747.747,0,0,0,.3.623A1.576,1.576,0,0,0,63.6-1.335ZM63.525-7.38a4.137,4.137,0,0,1,2.423.637,2.277,2.277,0,0,1,.908,2v3.42a.877.877,0,0,1-.187.593,2.092,2.092,0,0,1-.473.4,3.861,3.861,0,0,1-1.1.405,6.8,6.8,0,0,1-1.5.15A4.343,4.343,0,0,1,61.193-.36,1.959,1.959,0,0,1,60.3-2.115a1.942,1.942,0,0,1,.63-1.56,3.327,3.327,0,0,1,1.875-.66l2.01-.21V-4.77a.837.837,0,0,0-.4-.78,2.249,2.249,0,0,0-1.14-.24,4.506,4.506,0,0,0-1.125.142,6.185,6.185,0,0,0-.99.338.981.981,0,0,1-.285-.353,1.049,1.049,0,0,1-.12-.488.908.908,0,0,1,.645-.87A4.444,4.444,0,0,1,62.4-7.29,7.205,7.205,0,0,1,63.525-7.38Zm1.29,9.45a1.084,1.084,0,0,1-.315.787,1.121,1.121,0,0,1-.84.323,1.1,1.1,0,0,1-.825-.323,1.084,1.084,0,0,1-.315-.787A1.091,1.091,0,0,1,63.66.945a1.121,1.121,0,0,1,.84.323A1.1,1.1,0,0,1,64.815,2.07ZM75.81-3.585a4.177,4.177,0,0,1-.465,2.025A3.253,3.253,0,0,1,74.04-.24a4.025,4.025,0,0,1-1.98.465,4.122,4.122,0,0,1-1.988-.458A3.192,3.192,0,0,1,68.76-1.545a4.211,4.211,0,0,1-.465-2.04A4.08,4.08,0,0,1,68.767-5.6a3.3,3.3,0,0,1,1.32-1.312A4.036,4.036,0,0,1,72.06-7.38a3.993,3.993,0,0,1,1.965.465A3.3,3.3,0,0,1,75.337-5.6,4.091,4.091,0,0,1,75.81-3.585ZM72.045-5.73a1.4,1.4,0,0,0-1.17.563,2.535,2.535,0,0,0-.435,1.582,2.59,2.59,0,0,0,.428,1.605,1.42,1.42,0,0,0,1.192.555,1.4,1.4,0,0,0,1.177-.562,2.6,2.6,0,0,0,.428-1.6,2.574,2.574,0,0,0-.428-1.575A1.406,1.406,0,0,0,72.045-5.73Z" transform="translate(695.615 241.937)" fill="#feb200"/><path d="M-.229-8.942a1.088,1.088,0,0,1-.2.637,1.483,1.483,0,0,1-.451.434,5.689,5.689,0,0,0-.96-.519,3.3,3.3,0,0,0-1.3-.229,3.086,3.086,0,0,0-1.607.4A2.679,2.679,0,0,0-5.789-7.047a4.331,4.331,0,0,0-.374,1.9,3.556,3.556,0,0,0,.85,2.576,3.051,3.051,0,0,0,2.3.875,3.6,3.6,0,0,0,1.309-.212A5.519,5.519,0,0,0-.74-2.4a1.305,1.305,0,0,1,.417.459,1.336,1.336,0,0,1,.161.663A1.072,1.072,0,0,1-.332-.7a1.4,1.4,0,0,1-.561.476,5.176,5.176,0,0,1-.943.332A5.845,5.845,0,0,1-3.324.272,6.158,6.158,0,0,1-6.035-.315,4.472,4.472,0,0,1-7.965-2.1a5.889,5.889,0,0,1-.714-3.051,5.856,5.856,0,0,1,.706-2.984,4.707,4.707,0,0,1,1.9-1.844,5.515,5.515,0,0,1,2.618-.629,5.733,5.733,0,0,1,1.726.229,2.829,2.829,0,0,1,1.114.6A1.132,1.132,0,0,1-.229-8.942Zm1.666-.391a1.087,1.087,0,0,1,.4-.833,2.729,2.729,0,0,1,1.1-.552,5.86,5.86,0,0,1,1.581-.2,5.133,5.133,0,0,1,2.159.408A3.022,3.022,0,0,1,8.007-9.384a3.024,3.024,0,0,1,.451,1.649,3.553,3.553,0,0,1-.527,1.827A8.33,8.33,0,0,1,6.248-4L3.681-1.785H8.356a1.705,1.705,0,0,1,.161.374,1.657,1.657,0,0,1,.076.51.955.955,0,0,1-.212.672A.76.76,0,0,1,7.795,0H1.658a1.44,1.44,0,0,1-.451-.51,1.471,1.471,0,0,1-.161-.7,1.548,1.548,0,0,1,.187-.774,2.264,2.264,0,0,1,.425-.552L4.429-5.049a8.135,8.135,0,0,0,1.36-1.462A2.091,2.091,0,0,0,6.163-7.65a1.281,1.281,0,0,0-.476-1.029,2.089,2.089,0,0,0-1.377-.4A3.411,3.411,0,0,0,3-8.84a4.607,4.607,0,0,0-.952.51,1.663,1.663,0,0,1-.425-.4A.969.969,0,0,1,1.437-9.333Z" transform="translate(735.286 282.938)" fill="#fff" opacity="0.7"/></g></svg>