<svg xmlns="http://www.w3.org/2000/svg" width="111.429" height="107.503" viewBox="0 0 111.429 107.503"><g transform="translate(-679.286 -214.556)"><g transform="translate(0.286 12.937)"><rect width="111.429" height="107.503" rx="11" transform="translate(679 201.619)" fill="#1899d6"/><rect width="107.429" height="103.132" rx="9" transform="translate(679 201.619)" fill="#00c5f9"/><rect width="94.983" height="27.931" rx="4" transform="translate(685.223 210.213)" fill="#fff"/></g><path d="M49.111,53.353c-.374,0-.744-.016-1.1-.047A8.255,8.255,0,0,1,43.5,51.655a8.843,8.843,0,0,1-2.832-5.228,14.13,14.13,0,0,1-.293-3.1.975.975,0,0,1,.735-.906,14.144,14.144,0,0,1,3.091-.348c.4,0,.8.013,1.185.046A8.242,8.242,0,0,1,49.9,43.773,8.846,8.846,0,0,1,52.729,49a14.237,14.237,0,0,1,.294,3.1.975.975,0,0,1-.735.905,14.174,14.174,0,0,1-3.091.349Zm-25.079,0A14.141,14.141,0,0,1,20.941,53a.975.975,0,0,1-.735-.905A14.133,14.133,0,0,1,20.5,49a8.848,8.848,0,0,1,2.832-5.229,8.254,8.254,0,0,1,4.512-1.651c.383-.033.782-.049,1.187-.047a14.174,14.174,0,0,1,3.091.349.975.975,0,0,1,.735.905,14.2,14.2,0,0,1-.293,3.1,8.85,8.85,0,0,1-2.832,5.228,8.25,8.25,0,0,1-4.514,1.651c-.355.031-.724.047-1.1.047ZM11.878,43.148h0c-.07-.006-.139-.014-.208-.023a8.846,8.846,0,0,1-5.161-2.953,14.409,14.409,0,0,1-1.88-2.477.973.973,0,0,1,.148-1.157A14.139,14.139,0,0,1,7.22,34.612a9.837,9.837,0,0,1,4.334-1.582,6.555,6.555,0,0,1,1.4.025,8.84,8.84,0,0,1,5.162,2.952A14.357,14.357,0,0,1,20,38.485a.973.973,0,0,1-.149,1.157,14.109,14.109,0,0,1-2.444,1.924,9.824,9.824,0,0,1-4.334,1.581q-.3.027-.6.027C12.272,43.175,12.074,43.166,11.878,43.148Zm48.278,0a9.83,9.83,0,0,1-4.334-1.582,14.2,14.2,0,0,1-2.444-1.923.977.977,0,0,1-.148-1.158,14.37,14.37,0,0,1,1.88-2.477,8.839,8.839,0,0,1,5.161-2.953,6.567,6.567,0,0,1,1.4-.023,9.837,9.837,0,0,1,4.334,1.58,14.292,14.292,0,0,1,2.444,1.925.976.976,0,0,1,.147,1.157,14.4,14.4,0,0,1-1.88,2.478,8.847,8.847,0,0,1-5.161,2.953l-.209.023h0q-.293.027-.594.027T60.156,43.148ZM22.235,26.459c0-.044,0-.087,0-.131,0-.014,0-.027,0-.041V6.791a1,1,0,0,1,1-1H51a1,1,0,0,1,1,1v19.5c0,.014,0,.028,0,.041,0,.043,0,.088,0,.131,0,6.849-6.663,12.4-14.882,12.4S22.235,33.308,22.235,26.459Zm-18.6,1.018A8.846,8.846,0,0,1,.484,22.435,14.468,14.468,0,0,1,0,19.364a.975.975,0,0,1,.678-.95,14.115,14.115,0,0,1,2.795-.519l.269-.021a8.835,8.835,0,0,1,5.792,1.341,8.841,8.841,0,0,1,3.152,5.041,14.4,14.4,0,0,1,.485,3.073.977.977,0,0,1-.678.95A14.092,14.092,0,0,1,9.7,28.8c-.089.008-.179.015-.271.022q-.451.031-.884.031A8.363,8.363,0,0,1,3.636,27.477ZM63.8,28.817l-.272-.021a14.04,14.04,0,0,1-2.792-.519.974.974,0,0,1-.678-.95,14.464,14.464,0,0,1,.485-3.073A8.845,8.845,0,0,1,63.7,19.213a8.842,8.842,0,0,1,5.792-1.34c.091.005.182.013.27.021a13.967,13.967,0,0,1,2.794.519.974.974,0,0,1,.678.949,14.46,14.46,0,0,1-.485,3.072,8.839,8.839,0,0,1-3.151,5.042,8.355,8.355,0,0,1-4.9,1.372Q64.254,28.848,63.8,28.817ZM59.458,14.061a.973.973,0,0,1-.8-.564,14.389,14.389,0,0,1-.909-2.974,8.835,8.835,0,0,1,.624-5.913A8.838,8.838,0,0,1,62.994.867,14.331,14.331,0,0,1,65.984.01.919.919,0,0,1,66.211,0a.972.972,0,0,1,.8.563,14.529,14.529,0,0,1,.91,2.975,8.841,8.841,0,0,1-.625,5.913,8.835,8.835,0,0,1-4.62,3.742,14.363,14.363,0,0,1-2.99.857.988.988,0,0,1-.147.011C59.512,14.064,59.485,14.063,59.458,14.061Zm-45.913-.006a14.546,14.546,0,0,1-2.991-.857,8.844,8.844,0,0,1-4.62-3.743A8.843,8.843,0,0,1,5.31,3.541,14.456,14.456,0,0,1,6.219.567.969.969,0,0,1,7.246.01a14.443,14.443,0,0,1,2.989.856,8.842,8.842,0,0,1,4.62,3.744,8.838,8.838,0,0,1,.625,5.912A14.43,14.43,0,0,1,14.57,13.5a.974.974,0,0,1-.8.564c-.028,0-.055,0-.083,0A1.106,1.106,0,0,1,13.544,14.054Z" transform="translate(698.385 257.416)" fill="#fff" stroke="#000" stroke-width="4" opacity="0.15"/><g transform="translate(696.745 255.504)"><g transform="translate(0 0)"><g transform="translate(0)"><g transform="matrix(0.996, -0.087, 0.087, 0.996, 0, 2.672)"><g transform="translate(0 0)"><path d="M8.853,11.4a14.062,14.062,0,0,0,2.827-.274.975.975,0,0,0,.758-.887,14.415,14.415,0,0,0-.216-3.1,8.842,8.842,0,0,0-2.7-5.3A8.842,8.842,0,0,0,3.869,0L3.6,0A14.062,14.062,0,0,0,.77.274a.975.975,0,0,0-.758.887,14.419,14.419,0,0,0,.216,3.1,8.843,8.843,0,0,0,2.7,5.3A8.842,8.842,0,0,0,8.582,11.4Z" transform="translate(0 17.514)" fill="#bff1fe"/><path d="M4.889,10.912a8.248,8.248,0,0,0,4.64-1.252A8.843,8.843,0,0,0,12.806,4.7a14.2,14.2,0,0,0,.562-3.06.975.975,0,0,0-.654-.966A14.182,14.182,0,0,0,9.666.057C9.263.019,8.864,0,8.48,0A8.247,8.247,0,0,0,3.841,1.252,8.844,8.844,0,0,0,.564,6.213,14.214,14.214,0,0,0,0,9.273a.976.976,0,0,0,.654.966,14.2,14.2,0,0,0,3.048.617C4.106,10.893,4.5,10.912,4.889,10.912Z" transform="translate(17.287 43.775)" fill="#bff1fe"/><path d="M8.025,10.211a9.831,9.831,0,0,0,4.455-1.2,14.2,14.2,0,0,0,2.6-1.7.975.975,0,0,0,.248-1.14,14.393,14.393,0,0,0-1.657-2.632A8.843,8.843,0,0,0,8.79.146,6.56,6.56,0,0,0,7.394,0,9.83,9.83,0,0,0,2.938,1.2a14.188,14.188,0,0,0-2.6,1.7.975.975,0,0,0-.248,1.14A14.405,14.405,0,0,0,1.745,6.674a8.843,8.843,0,0,0,4.884,3.391c.068.015.136.029.205.041h0A6.686,6.686,0,0,0,8.025,10.211Z" transform="translate(2.938 33.298)" fill="#bff1fe"/><path d="M7.969,14.593a.973.973,0,0,0,.844-.492,14.427,14.427,0,0,0,1.165-2.884,8.843,8.843,0,0,0-.106-5.945A8.844,8.844,0,0,0,5.6,1.141,14.4,14.4,0,0,0,2.692.027.969.969,0,0,0,1.622.492,14.415,14.415,0,0,0,.456,3.376,8.844,8.844,0,0,0,.562,9.321a8.845,8.845,0,0,0,4.276,4.131,14.4,14.4,0,0,0,2.9,1.114A.977.977,0,0,0,7.969,14.593Z" transform="translate(6.226 0)" fill="#bff1fe"/></g></g><g transform="matrix(-0.996, -0.087, 0.087, -0.996, 71.744, 57.15)"><g transform="translate(0 0)"><path d="M8.853,0A14.062,14.062,0,0,1,11.68.273a.975.975,0,0,1,.758.887,14.415,14.415,0,0,1-.216,3.1,8.842,8.842,0,0,1-2.7,5.3A8.842,8.842,0,0,1,3.869,11.4l-.27,0A14.062,14.062,0,0,1,.77,11.13a.975.975,0,0,1-.758-.887,14.419,14.419,0,0,1,.216-3.1,8.843,8.843,0,0,1,2.7-5.3A8.842,8.842,0,0,1,8.582,0Z" transform="translate(0 25.769)" fill="#bff1fe"/><path d="M4.889,0a8.248,8.248,0,0,1,4.64,1.252,8.843,8.843,0,0,1,3.277,4.961,14.2,14.2,0,0,1,.562,3.06.975.975,0,0,1-.654.966,14.181,14.181,0,0,1-3.048.617c-.4.038-.8.057-1.186.057A8.247,8.247,0,0,1,3.841,9.66,8.844,8.844,0,0,1,.564,4.7,14.213,14.213,0,0,1,0,1.64.976.976,0,0,1,.655.673,14.2,14.2,0,0,1,3.7.057C4.106.019,4.5,0,4.889,0Z" transform="translate(17.287 0)" fill="#bff1fe"/><path d="M8.025,0a9.831,9.831,0,0,1,4.455,1.2,14.2,14.2,0,0,1,2.6,1.7.975.975,0,0,1,.248,1.14,14.394,14.394,0,0,1-1.657,2.632A8.843,8.843,0,0,1,8.79,10.065a6.56,6.56,0,0,1-1.4.146,9.83,9.83,0,0,1-4.456-1.2,14.188,14.188,0,0,1-2.6-1.7.975.975,0,0,1-.248-1.14A14.4,14.4,0,0,1,1.745,3.537,8.843,8.843,0,0,1,6.629.146C6.7.131,6.765.117,6.834.1h0A6.686,6.686,0,0,1,8.025,0Z" transform="translate(2.938 11.178)" fill="#bff1fe"/><path d="M7.968,0a.973.973,0,0,1,.844.492A14.427,14.427,0,0,1,9.978,3.376a8.843,8.843,0,0,1-.106,5.945A8.844,8.844,0,0,1,5.6,13.452a14.4,14.4,0,0,1-2.9,1.114A.969.969,0,0,1,1.622,14.1,14.416,14.416,0,0,1,.456,11.217,8.844,8.844,0,0,1,.562,5.272,8.845,8.845,0,0,1,4.838,1.14,14.4,14.4,0,0,1,7.742.027.977.977,0,0,1,7.968,0Z" transform="translate(6.226 40.094)" fill="#bff1fe"/></g></g></g></g><path d="M0,20.668c0-.044,0-.088,0-.132,0-.014,0-.027,0-.041V1A1,1,0,0,1,1,0H28.763a1,1,0,0,1,1,1V20.495c0,.014,0,.027,0,.041,0,.044,0,.088,0,.132,0,6.849-6.663,12.4-14.882,12.4S0,27.517,0,20.668Z" transform="translate(23.875 7.703)" fill="#00c5f9"/><path d="M0,23.459,23.458,0h4.926a1,1,0,0,1,1,1V4L3.964,29.423A12,12,0,0,1,0,23.459Z" transform="translate(24.255 7.702)" fill="#fff" opacity="0.12"/></g><g transform="translate(710.576 256.349)"><path d="M111.478,70.1l1.825,5.555a1.107,1.107,0,0,1,.054.2.463.463,0,0,1,0,.135,1.1,1.1,0,0,1-.054.2l-1.825,5.556a.543.543,0,0,1-1.032,0l-1.824-5.556a1.058,1.058,0,0,1-.054-.2.463.463,0,0,1,0-.134,1.05,1.05,0,0,1,.054-.2l1.824-5.556a.543.543,0,0,1,1.032,0Z" transform="translate(-66.287 -38.862)" fill="#fff1a2" fill-rule="evenodd"/><path d="M81.038,64.372l-4.5,1.476a.543.543,0,0,1-.339,0l-4.5-1.476a.543.543,0,0,1,0-1.032l4.5-1.476a.543.543,0,0,1,.339,0l4.5,1.476a.543.543,0,0,1,0,1.032ZM34.8,43.687l.87,2.65a1.117,1.117,0,0,1,.054.2.466.466,0,0,1,0,.134,1.1,1.1,0,0,1-.054.2l-.87,2.651a.543.543,0,0,1-1.032,0l-.87-2.651a1.1,1.1,0,0,1-.054-.2.467.467,0,0,1,0-.134,1.1,1.1,0,0,1,.054-.2l.87-2.651a.543.543,0,0,1,1.032,0Z" transform="translate(-31.697 -26.798)" fill="#fff1a2" fill-rule="evenodd"/><path d="M35.539,33.235l-2.045.671a.543.543,0,0,1-.339,0l-2.045-.671a.543.543,0,0,1,0-1.032l2.045-.672a.543.543,0,0,1,.339,0l2.045.671a.543.543,0,0,1,0,1.032Zm29.136-19.95.645,1.963a1.1,1.1,0,0,1,.054.2.467.467,0,0,1,0,.135,1.1,1.1,0,0,1-.054.2l-.645,1.963a.543.543,0,0,1-1.032,0L63,15.784a1.1,1.1,0,0,1-.054-.2.466.466,0,0,1,0-.134,1.038,1.038,0,0,1,.054-.2l.644-1.963a.543.543,0,0,1,1.032,0Z" transform="translate(-30.736 -12.911)" fill="#fff1a2" fill-rule="evenodd"/><path d="M92.211,17.36l-1.466.481a.543.543,0,0,1-.339,0l-1.466-.481a.543.543,0,0,1,0-1.032l1.466-.481a.543.543,0,0,1,.339,0l1.466.481a.543.543,0,0,1,0,1.032Z" transform="translate(-57.153 -14.239)" fill="#fff1a2" fill-rule="evenodd"/></g><path d="M7.532-7.364a.9.9,0,0,1-.161.525A1.221,1.221,0,0,1,7-6.482a4.685,4.685,0,0,0-.791-.427A2.715,2.715,0,0,0,5.138-7.1a2.541,2.541,0,0,0-1.323.329,2.206,2.206,0,0,0-.861.966,3.566,3.566,0,0,0-.308,1.561,2.928,2.928,0,0,0,.7,2.121,2.512,2.512,0,0,0,1.89.721,2.965,2.965,0,0,0,1.078-.175,4.545,4.545,0,0,0,.8-.4,1.075,1.075,0,0,1,.343.378,1.1,1.1,0,0,1,.133.546.883.883,0,0,1-.14.476,1.156,1.156,0,0,1-.462.392,4.263,4.263,0,0,1-.777.273A4.814,4.814,0,0,1,4.984.224,5.072,5.072,0,0,1,2.751-.259a3.683,3.683,0,0,1-1.589-1.47A4.85,4.85,0,0,1,.574-4.242,4.823,4.823,0,0,1,1.155-6.7,3.876,3.876,0,0,1,2.716-8.218a4.542,4.542,0,0,1,2.156-.518,4.721,4.721,0,0,1,1.421.189,2.33,2.33,0,0,1,.917.5A.932.932,0,0,1,7.532-7.364ZM11.62-1.246a3.127,3.127,0,0,0,.679-.07,1.518,1.518,0,0,0,.469-.168V-2.912l-1.26.112a1.7,1.7,0,0,0-.784.224.6.6,0,0,0-.28.532.7.7,0,0,0,.28.581A1.471,1.471,0,0,0,11.62-1.246Zm-.07-5.642a3.861,3.861,0,0,1,2.261.595,2.126,2.126,0,0,1,.847,1.869v3.192a.819.819,0,0,1-.175.553,1.953,1.953,0,0,1-.441.371A3.6,3.6,0,0,1,13.02.07a6.345,6.345,0,0,1-1.4.14A4.053,4.053,0,0,1,9.373-.336,1.828,1.828,0,0,1,8.54-1.974,1.812,1.812,0,0,1,9.128-3.43a3.105,3.105,0,0,1,1.75-.616l1.876-.2v-.21a.781.781,0,0,0-.378-.728A2.1,2.1,0,0,0,11.312-5.4a4.206,4.206,0,0,0-1.05.133,5.773,5.773,0,0,0-.924.315.916.916,0,0,1-.266-.329A.979.979,0,0,1,8.96-5.74a.847.847,0,0,1,.6-.812A4.148,4.148,0,0,1,10.5-6.8,6.725,6.725,0,0,1,11.55-6.888ZM23.016-3.346a3.9,3.9,0,0,1-.434,1.89A3.036,3.036,0,0,1,21.364-.224,3.757,3.757,0,0,1,19.516.21a3.848,3.848,0,0,1-1.855-.427,2.979,2.979,0,0,1-1.225-1.225A3.93,3.93,0,0,1,16-3.346a3.808,3.808,0,0,1,.441-1.883,3.081,3.081,0,0,1,1.232-1.225,3.767,3.767,0,0,1,1.841-.434,3.727,3.727,0,0,1,1.834.434,3.082,3.082,0,0,1,1.225,1.232A3.818,3.818,0,0,1,23.016-3.346Zm-3.514-2a1.309,1.309,0,0,0-1.092.525A2.366,2.366,0,0,0,18-3.346a2.417,2.417,0,0,0,.4,1.5,1.325,1.325,0,0,0,1.113.518,1.3,1.3,0,0,0,1.1-.525,2.423,2.423,0,0,0,.4-1.491,2.4,2.4,0,0,0-.4-1.47A1.312,1.312,0,0,0,19.5-5.348ZM27.664-3.7H29.61v1.554a.684.684,0,0,0,.259.6,1.239,1.239,0,0,0,.721.182,2.392,2.392,0,0,0,.469-.049,2.64,2.64,0,0,0,.427-.119,1.034,1.034,0,0,1,.2.287.945.945,0,0,1,.084.413.886.886,0,0,1-.385.728A2.119,2.119,0,0,1,30.114.2a2.817,2.817,0,0,1-1.8-.518A2.02,2.02,0,0,1,27.664-2Zm1.218-1.33V-6.538H31.6a1.4,1.4,0,0,1,.133.308,1.413,1.413,0,0,1,.063.434.811.811,0,0,1-.182.581.649.649,0,0,1-.49.189Zm.728,1.694H27.664v-5.04a2.693,2.693,0,0,1,.371-.084,3.021,3.021,0,0,1,.511-.042,1.336,1.336,0,0,1,.805.2.846.846,0,0,1,.259.714Zm5.418-1.624V-3.15H33.082V-5.166a1.113,1.113,0,0,1,.182-.644,1.77,1.77,0,0,1,.5-.476,4.06,4.06,0,0,1,1.1-.427,5.727,5.727,0,0,1,1.379-.161q1.386,0,1.386.9a1.19,1.19,0,0,1-.063.392,1.716,1.716,0,0,1-.147.322q-.14-.028-.35-.049t-.434-.021a3.9,3.9,0,0,0-.875.1A2.568,2.568,0,0,0,35.028-4.956ZM33.082-3.7l1.946.056V-.014q-.126.028-.364.07A2.986,2.986,0,0,1,34.146.1a1.336,1.336,0,0,1-.805-.2.846.846,0,0,1-.259-.714ZM38.7-2.59V-3.626h1.946V-2.6a1.219,1.219,0,0,0,.35.973,1.457,1.457,0,0,0,.98.3,2.543,2.543,0,0,0,.679-.077,1.765,1.765,0,0,0,.413-.161V-3.626H45.01v2.268a1.228,1.228,0,0,1-.119.567,1.091,1.091,0,0,1-.413.413A3.847,3.847,0,0,1,43.4.049,5.953,5.953,0,0,1,41.958.21a4.6,4.6,0,0,1-1.715-.294A2.387,2.387,0,0,1,39.1-.994,2.851,2.851,0,0,1,38.7-2.59Zm6.314-.392H43.064V-6.664q.126-.028.364-.07a2.986,2.986,0,0,1,.518-.042,1.369,1.369,0,0,1,.812.189.856.856,0,0,1,.252.721Zm-4.368,0H38.7V-6.664q.126-.028.364-.07a2.986,2.986,0,0,1,.518-.042,1.369,1.369,0,0,1,.812.189.856.856,0,0,1,.252.721ZM53-4.34v1.33H51.058V-4.284a.972.972,0,0,0-.322-.8,1.322,1.322,0,0,0-.854-.259,2.417,2.417,0,0,0-.686.091,2.759,2.759,0,0,0-.56.231V-3.01H46.69V-5.222a.993.993,0,0,1,.147-.567,1.646,1.646,0,0,1,.427-.413,3.917,3.917,0,0,1,1.12-.49,5.547,5.547,0,0,1,1.526-.2,3.562,3.562,0,0,1,2.282.651A2.288,2.288,0,0,1,53-4.34Zm-6.314.672h1.946V-.014q-.126.028-.364.07A2.986,2.986,0,0,1,47.754.1a1.336,1.336,0,0,1-.805-.2.846.846,0,0,1-.259-.714Zm4.368,0H53V-.014q-.126.028-.364.07a2.9,2.9,0,0,1-.5.042,1.365,1.365,0,0,1-.819-.2.846.846,0,0,1-.259-.714ZM57.47-.252a3.641,3.641,0,0,1-1.54-.322A2.514,2.514,0,0,1,54.8-1.624a3.767,3.767,0,0,1-.427-1.918A3.61,3.61,0,0,1,54.81-5.39a2.767,2.767,0,0,1,1.225-1.12,4.191,4.191,0,0,1,1.827-.378,4.809,4.809,0,0,1,1.386.189,3.878,3.878,0,0,1,.994.427,1.439,1.439,0,0,1,.406.4,1,1,0,0,1,.154.567V-.924h-1.89V-5.11a1.834,1.834,0,0,0-.406-.168,2.053,2.053,0,0,0-.574-.07,1.586,1.586,0,0,0-1.162.441,1.842,1.842,0,0,0-.448,1.365,1.875,1.875,0,0,0,.427,1.414,1.5,1.5,0,0,0,1.057.392,1.66,1.66,0,0,0,.8-.168,2.577,2.577,0,0,0,.532-.378l.07,1.568a3.039,3.039,0,0,1-.707.322A3.324,3.324,0,0,1,57.47-.252Zm1.47.224v-1.33H60.8V.028A2.563,2.563,0,0,1,60.347,1.6a2.641,2.641,0,0,1-1.218.9,4.842,4.842,0,0,1-1.715.287,5.807,5.807,0,0,1-1.281-.126,2.851,2.851,0,0,1-.847-.308.954.954,0,0,1-.476-.84,1.017,1.017,0,0,1,.119-.5.91.91,0,0,1,.287-.329,4.1,4.1,0,0,0,.882.392,3.564,3.564,0,0,0,1.106.168A2.276,2.276,0,0,0,58.478.938,1.078,1.078,0,0,0,58.94-.028ZM69.286-5.334a1.861,1.861,0,0,0-1.33.518,1.967,1.967,0,0,0-.546,1.5,1.916,1.916,0,0,0,.525,1.47,1.9,1.9,0,0,0,1.351.49,2.572,2.572,0,0,0,.826-.119,3.019,3.019,0,0,0,.6-.273,1.482,1.482,0,0,1,.35.357.8.8,0,0,1,.126.455.931.931,0,0,1-.567.819A3.165,3.165,0,0,1,69.09.2,4.474,4.474,0,0,1,67.165-.2a2.851,2.851,0,0,1-1.288-1.183,3.833,3.833,0,0,1-.455-1.939,3.687,3.687,0,0,1,.5-2A3.122,3.122,0,0,1,67.235-6.5a4.113,4.113,0,0,1,1.8-.392,2.928,2.928,0,0,1,1.512.336.984.984,0,0,1,.56.854.8.8,0,0,1-.119.42,1.335,1.335,0,0,1-.287.336,3.019,3.019,0,0,0-.6-.273A2.522,2.522,0,0,0,69.286-5.334Zm8.008-5.138.994-1.246a1.127,1.127,0,0,1,.728.224.623.623,0,0,1,.238.476.724.724,0,0,1-.1.392,2,2,0,0,1-.329.378l-.882.924a.978.978,0,0,1-.637-.189.546.546,0,0,1-.231-.427.638.638,0,0,1,.049-.245A1.388,1.388,0,0,1,77.294-10.472ZM76.09-7.91l-.672-.812q-.35.392-.609.679t-.553.637a1.216,1.216,0,0,1-.721-.224.645.645,0,0,1-.273-.532.663.663,0,0,1,.133-.413,3.576,3.576,0,0,1,.385-.413l.6-.63a2.125,2.125,0,0,1,.483-.371,1.2,1.2,0,0,1,.581-.133,1.342,1.342,0,0,1,.567.119,1.7,1.7,0,0,1,.567.511l1.064,1.274a.846.846,0,0,1-.189.553.707.707,0,0,1-.581.231.688.688,0,0,1-.413-.126A2.28,2.28,0,0,1,76.09-7.91Zm-.84,6.664a3.127,3.127,0,0,0,.679-.07,1.518,1.518,0,0,0,.469-.168V-2.912l-1.26.112a1.7,1.7,0,0,0-.784.224.6.6,0,0,0-.28.532.7.7,0,0,0,.28.581A1.471,1.471,0,0,0,75.25-1.246Zm-.07-5.642a3.861,3.861,0,0,1,2.261.595,2.126,2.126,0,0,1,.847,1.869v3.192a.819.819,0,0,1-.175.553,1.953,1.953,0,0,1-.441.371A3.6,3.6,0,0,1,76.65.07a6.345,6.345,0,0,1-1.4.14A4.053,4.053,0,0,1,73-.336a1.828,1.828,0,0,1-.833-1.638,1.812,1.812,0,0,1,.588-1.456,3.105,3.105,0,0,1,1.75-.616l1.876-.2v-.21a.781.781,0,0,0-.378-.728A2.1,2.1,0,0,0,74.942-5.4a4.206,4.206,0,0,0-1.05.133,5.773,5.773,0,0,0-.924.315.916.916,0,0,1-.266-.329.979.979,0,0,1-.112-.455.847.847,0,0,1,.6-.812A4.148,4.148,0,0,1,74.13-6.8,6.725,6.725,0,0,1,75.18-6.888ZM83.2.2a3.7,3.7,0,0,0,1.75-.406,2.933,2.933,0,0,0,1.211-1.2A4,4,0,0,0,86.6-3.374a3.845,3.845,0,0,0-.469-2.009,2.8,2.8,0,0,0-1.288-1.141,4.558,4.558,0,0,0-1.869-.364,5.283,5.283,0,0,0-1.414.175,4.267,4.267,0,0,0-1.05.427,1.349,1.349,0,0,0-.42.406,1.067,1.067,0,0,0-.14.574V-.742H81.9V-5.068a2.371,2.371,0,0,1,.462-.2,2.048,2.048,0,0,1,.616-.084,1.725,1.725,0,0,1,.854.2,1.365,1.365,0,0,1,.567.63,2.686,2.686,0,0,1,.2,1.141,2.212,2.212,0,0,1-.448,1.519,1.575,1.575,0,0,1-1.232.5,1.845,1.845,0,0,1-.819-.168,2.956,2.956,0,0,1-.6-.378V-.238a3.606,3.606,0,0,0,.728.3A3.289,3.289,0,0,0,83.2.2ZM81.9-1.246,79.954-1.26V1.708a.849.849,0,0,0,.259.707,1.3,1.3,0,0,0,.805.2,2.986,2.986,0,0,0,.518-.042q.238-.042.364-.07Z" transform="translate(689.499 240.937)" fill="#00c5f9"/><text transform="translate(735.286 282.938)" fill="#fff" font-size="17" font-family="BalooTamma2-Bold, 'Baloo Tamma \32 '" font-weight="700" opacity="0.7"><tspan x="-9.631" y="0">B2</tspan></text></g></svg>