<svg xmlns="http://www.w3.org/2000/svg" width="111.429" height="107.503" viewBox="0 0 111.429 107.503"><g transform="translate(-679.286 -214.556)"><g transform="translate(0.286 12.937)"><rect width="111.429" height="107.503" rx="11" transform="translate(679 201.619)" fill="#9069cd"/><rect width="107.429" height="103.132" rx="9" transform="translate(679 201.619)" fill="#ce82ff"/><rect width="94.983" height="27.931" rx="4" transform="translate(685.223 210.213)" fill="#fff"/></g><path d="M49.111,53.353c-.374,0-.744-.016-1.1-.047A8.255,8.255,0,0,1,43.5,51.655a8.843,8.843,0,0,1-2.832-5.228,14.13,14.13,0,0,1-.293-3.1.975.975,0,0,1,.735-.906,14.144,14.144,0,0,1,3.091-.348c.4,0,.8.013,1.185.046A8.242,8.242,0,0,1,49.9,43.773,8.846,8.846,0,0,1,52.729,49a14.237,14.237,0,0,1,.294,3.1.975.975,0,0,1-.735.905,14.174,14.174,0,0,1-3.091.349Zm-25.079,0A14.141,14.141,0,0,1,20.941,53a.975.975,0,0,1-.735-.905A14.133,14.133,0,0,1,20.5,49a8.848,8.848,0,0,1,2.832-5.229,8.254,8.254,0,0,1,4.512-1.651c.383-.033.782-.049,1.187-.047a14.174,14.174,0,0,1,3.091.349.975.975,0,0,1,.735.905,14.2,14.2,0,0,1-.293,3.1,8.85,8.85,0,0,1-2.832,5.228,8.25,8.25,0,0,1-4.514,1.651c-.355.031-.724.047-1.1.047ZM11.878,43.148h0c-.07-.006-.139-.014-.208-.023a8.846,8.846,0,0,1-5.161-2.953,14.409,14.409,0,0,1-1.88-2.477.973.973,0,0,1,.148-1.157A14.139,14.139,0,0,1,7.22,34.612a9.837,9.837,0,0,1,4.334-1.582,6.555,6.555,0,0,1,1.4.025,8.84,8.84,0,0,1,5.162,2.952A14.357,14.357,0,0,1,20,38.485a.973.973,0,0,1-.149,1.157,14.109,14.109,0,0,1-2.444,1.924,9.824,9.824,0,0,1-4.334,1.581q-.3.027-.6.027C12.272,43.175,12.074,43.166,11.878,43.148Zm48.278,0a9.83,9.83,0,0,1-4.334-1.582,14.2,14.2,0,0,1-2.444-1.923.977.977,0,0,1-.148-1.158,14.37,14.37,0,0,1,1.88-2.477,8.839,8.839,0,0,1,5.161-2.953,6.567,6.567,0,0,1,1.4-.023,9.837,9.837,0,0,1,4.334,1.58,14.292,14.292,0,0,1,2.444,1.925.976.976,0,0,1,.147,1.157,14.4,14.4,0,0,1-1.88,2.478,8.847,8.847,0,0,1-5.161,2.953l-.209.023h0q-.293.027-.594.027T60.156,43.148ZM22.235,26.459c0-.044,0-.087,0-.131,0-.014,0-.027,0-.041V6.791a1,1,0,0,1,1-1H51a1,1,0,0,1,1,1v19.5c0,.014,0,.028,0,.041,0,.043,0,.088,0,.131,0,6.849-6.663,12.4-14.882,12.4S22.235,33.308,22.235,26.459Zm-18.6,1.018A8.846,8.846,0,0,1,.484,22.435,14.468,14.468,0,0,1,0,19.364a.975.975,0,0,1,.678-.95,14.115,14.115,0,0,1,2.795-.519l.269-.021a8.835,8.835,0,0,1,5.792,1.341,8.841,8.841,0,0,1,3.152,5.041,14.4,14.4,0,0,1,.485,3.073.977.977,0,0,1-.678.95A14.092,14.092,0,0,1,9.7,28.8c-.089.008-.179.015-.271.022q-.451.031-.884.031A8.363,8.363,0,0,1,3.636,27.477ZM63.8,28.817l-.272-.021a14.04,14.04,0,0,1-2.792-.519.974.974,0,0,1-.678-.95,14.464,14.464,0,0,1,.485-3.073A8.845,8.845,0,0,1,63.7,19.213a8.842,8.842,0,0,1,5.792-1.34c.091.005.182.013.27.021a13.967,13.967,0,0,1,2.794.519.974.974,0,0,1,.678.949,14.46,14.46,0,0,1-.485,3.072,8.839,8.839,0,0,1-3.151,5.042,8.355,8.355,0,0,1-4.9,1.372Q64.254,28.848,63.8,28.817ZM59.458,14.061a.973.973,0,0,1-.8-.564,14.389,14.389,0,0,1-.909-2.974,8.835,8.835,0,0,1,.624-5.913A8.838,8.838,0,0,1,62.994.867,14.331,14.331,0,0,1,65.984.01.919.919,0,0,1,66.211,0a.972.972,0,0,1,.8.563,14.529,14.529,0,0,1,.91,2.975,8.841,8.841,0,0,1-.625,5.913,8.835,8.835,0,0,1-4.62,3.742,14.363,14.363,0,0,1-2.99.857.988.988,0,0,1-.147.011C59.512,14.064,59.485,14.063,59.458,14.061Zm-45.913-.006a14.546,14.546,0,0,1-2.991-.857,8.844,8.844,0,0,1-4.62-3.743A8.843,8.843,0,0,1,5.31,3.541,14.456,14.456,0,0,1,6.219.567.969.969,0,0,1,7.246.01a14.443,14.443,0,0,1,2.989.856,8.842,8.842,0,0,1,4.62,3.744,8.838,8.838,0,0,1,.625,5.912A14.43,14.43,0,0,1,14.57,13.5a.974.974,0,0,1-.8.564c-.028,0-.055,0-.083,0A1.106,1.106,0,0,1,13.544,14.054Z" transform="translate(698.385 257.416)" fill="#fff" stroke="#000" stroke-width="4" opacity="0.15"/><g transform="translate(696.745 255.504)"><g transform="translate(0 0)"><g transform="translate(0)"><g transform="matrix(0.996, -0.087, 0.087, 0.996, 0, 2.672)"><g transform="translate(0 0)"><path d="M8.853,11.4a14.062,14.062,0,0,0,2.827-.274.975.975,0,0,0,.758-.887,14.415,14.415,0,0,0-.216-3.1,8.842,8.842,0,0,0-2.7-5.3A8.842,8.842,0,0,0,3.869,0L3.6,0A14.062,14.062,0,0,0,.77.274a.975.975,0,0,0-.758.887,14.419,14.419,0,0,0,.216,3.1,8.843,8.843,0,0,0,2.7,5.3A8.842,8.842,0,0,0,8.582,11.4Z" transform="translate(0 17.514)" fill="#eed1ff"/><path d="M4.889,10.912a8.248,8.248,0,0,0,4.64-1.252A8.843,8.843,0,0,0,12.806,4.7a14.2,14.2,0,0,0,.562-3.06.975.975,0,0,0-.654-.966A14.182,14.182,0,0,0,9.666.057C9.263.019,8.864,0,8.48,0A8.247,8.247,0,0,0,3.841,1.252,8.844,8.844,0,0,0,.564,6.213,14.214,14.214,0,0,0,0,9.273a.976.976,0,0,0,.654.966,14.2,14.2,0,0,0,3.048.617C4.106,10.893,4.5,10.912,4.889,10.912Z" transform="translate(17.287 43.775)" fill="#eed1ff"/><path d="M8.025,10.211a9.831,9.831,0,0,0,4.455-1.2,14.2,14.2,0,0,0,2.6-1.7.975.975,0,0,0,.248-1.14,14.393,14.393,0,0,0-1.657-2.632A8.843,8.843,0,0,0,8.79.146,6.56,6.56,0,0,0,7.394,0,9.83,9.83,0,0,0,2.938,1.2a14.188,14.188,0,0,0-2.6,1.7.975.975,0,0,0-.248,1.14A14.405,14.405,0,0,0,1.745,6.674a8.843,8.843,0,0,0,4.884,3.391c.068.015.136.029.205.041h0A6.686,6.686,0,0,0,8.025,10.211Z" transform="translate(2.938 33.298)" fill="#eed1ff"/><path d="M7.969,14.593a.973.973,0,0,0,.844-.492,14.427,14.427,0,0,0,1.165-2.884,8.843,8.843,0,0,0-.106-5.945A8.844,8.844,0,0,0,5.6,1.141,14.4,14.4,0,0,0,2.692.027.969.969,0,0,0,1.622.492,14.415,14.415,0,0,0,.456,3.376,8.844,8.844,0,0,0,.562,9.321a8.845,8.845,0,0,0,4.276,4.131,14.4,14.4,0,0,0,2.9,1.114A.977.977,0,0,0,7.969,14.593Z" transform="translate(6.226 0)" fill="#eed1ff"/></g></g><g transform="matrix(-0.996, -0.087, 0.087, -0.996, 71.744, 57.15)"><g transform="translate(0 0)"><path d="M8.853,0A14.062,14.062,0,0,1,11.68.273a.975.975,0,0,1,.758.887,14.415,14.415,0,0,1-.216,3.1,8.842,8.842,0,0,1-2.7,5.3A8.842,8.842,0,0,1,3.869,11.4l-.27,0A14.062,14.062,0,0,1,.77,11.13a.975.975,0,0,1-.758-.887,14.419,14.419,0,0,1,.216-3.1,8.843,8.843,0,0,1,2.7-5.3A8.842,8.842,0,0,1,8.582,0Z" transform="translate(0 25.769)" fill="#eed1ff"/><path d="M4.889,0a8.248,8.248,0,0,1,4.64,1.252,8.843,8.843,0,0,1,3.277,4.961,14.2,14.2,0,0,1,.562,3.06.975.975,0,0,1-.654.966,14.181,14.181,0,0,1-3.048.617c-.4.038-.8.057-1.186.057A8.247,8.247,0,0,1,3.841,9.66,8.844,8.844,0,0,1,.564,4.7,14.213,14.213,0,0,1,0,1.64.976.976,0,0,1,.655.673,14.2,14.2,0,0,1,3.7.057C4.106.019,4.5,0,4.889,0Z" transform="translate(17.287 0)" fill="#eed1ff"/><path d="M8.025,0a9.831,9.831,0,0,1,4.455,1.2,14.2,14.2,0,0,1,2.6,1.7.975.975,0,0,1,.248,1.14,14.394,14.394,0,0,1-1.657,2.632A8.843,8.843,0,0,1,8.79,10.065a6.56,6.56,0,0,1-1.4.146,9.83,9.83,0,0,1-4.456-1.2,14.188,14.188,0,0,1-2.6-1.7.975.975,0,0,1-.248-1.14A14.4,14.4,0,0,1,1.745,3.537,8.843,8.843,0,0,1,6.629.146C6.7.131,6.765.117,6.834.1h0A6.686,6.686,0,0,1,8.025,0Z" transform="translate(2.938 11.178)" fill="#eed1ff"/><path d="M7.968,0a.973.973,0,0,1,.844.492A14.427,14.427,0,0,1,9.978,3.376a8.843,8.843,0,0,1-.106,5.945A8.844,8.844,0,0,1,5.6,13.452a14.4,14.4,0,0,1-2.9,1.114A.969.969,0,0,1,1.622,14.1,14.416,14.416,0,0,1,.456,11.217,8.844,8.844,0,0,1,.562,5.272,8.845,8.845,0,0,1,4.838,1.14,14.4,14.4,0,0,1,7.742.027.977.977,0,0,1,7.968,0Z" transform="translate(6.226 40.094)" fill="#eed1ff"/></g></g></g></g><path d="M0,20.668c0-.044,0-.088,0-.132,0-.014,0-.027,0-.041V1A1,1,0,0,1,1,0H28.763a1,1,0,0,1,1,1V20.495c0,.014,0,.027,0,.041,0,.044,0,.088,0,.132,0,6.849-6.663,12.4-14.882,12.4S0,27.517,0,20.668Z" transform="translate(23.875 7.703)" fill="#ce82ff"/><path d="M0,23.459,23.458,0h4.926a1,1,0,0,1,1,1V4L3.964,29.423A12,12,0,0,1,0,23.459Z" transform="translate(24.255 7.702)" fill="#fff" opacity="0.12"/></g><g transform="translate(710.576 256.349)"><path d="M111.478,70.1l1.825,5.555a1.107,1.107,0,0,1,.054.2.463.463,0,0,1,0,.135,1.1,1.1,0,0,1-.054.2l-1.825,5.556a.543.543,0,0,1-1.032,0l-1.824-5.556a1.058,1.058,0,0,1-.054-.2.463.463,0,0,1,0-.134,1.05,1.05,0,0,1,.054-.2l1.824-5.556a.543.543,0,0,1,1.032,0Z" transform="translate(-66.287 -38.862)" fill="#fff1a2" fill-rule="evenodd"/><path d="M81.038,64.372l-4.5,1.476a.543.543,0,0,1-.339,0l-4.5-1.476a.543.543,0,0,1,0-1.032l4.5-1.476a.543.543,0,0,1,.339,0l4.5,1.476a.543.543,0,0,1,0,1.032ZM34.8,43.687l.87,2.65a1.117,1.117,0,0,1,.054.2.466.466,0,0,1,0,.134,1.1,1.1,0,0,1-.054.2l-.87,2.651a.543.543,0,0,1-1.032,0l-.87-2.651a1.1,1.1,0,0,1-.054-.2.467.467,0,0,1,0-.134,1.1,1.1,0,0,1,.054-.2l.87-2.651a.543.543,0,0,1,1.032,0Z" transform="translate(-31.697 -26.798)" fill="#fff1a2" fill-rule="evenodd"/><path d="M35.539,33.235l-2.045.671a.543.543,0,0,1-.339,0l-2.045-.671a.543.543,0,0,1,0-1.032l2.045-.672a.543.543,0,0,1,.339,0l2.045.671a.543.543,0,0,1,0,1.032Zm29.136-19.95.645,1.963a1.1,1.1,0,0,1,.054.2.467.467,0,0,1,0,.135,1.1,1.1,0,0,1-.054.2l-.645,1.963a.543.543,0,0,1-1.032,0L63,15.784a1.1,1.1,0,0,1-.054-.2.466.466,0,0,1,0-.134,1.038,1.038,0,0,1,.054-.2l.644-1.963a.543.543,0,0,1,1.032,0Z" transform="translate(-30.736 -12.911)" fill="#fff1a2" fill-rule="evenodd"/><path d="M92.211,17.36l-1.466.481a.543.543,0,0,1-.339,0l-1.466-.481a.543.543,0,0,1,0-1.032l1.466-.481a.543.543,0,0,1,.339,0l1.466.481a.543.543,0,0,1,0,1.032Z" transform="translate(-57.153 -14.239)" fill="#fff1a2" fill-rule="evenodd"/></g><path d="M3.8-1.515a1.887,1.887,0,0,0,1.2-.308A.944.944,0,0,0,5.37-2.58a.835.835,0,0,0-.293-.66A2.425,2.425,0,0,0,4.2-3.675l-.855-.27A7.669,7.669,0,0,1,1.958-4.53a2.615,2.615,0,0,1-.93-.84A2.291,2.291,0,0,1,.69-6.66a2.364,2.364,0,0,1,.938-1.972A4.1,4.1,0,0,1,4.2-9.36a6.014,6.014,0,0,1,1.515.173A2.7,2.7,0,0,1,6.758-8.7a.958.958,0,0,1,.383.765,1.036,1.036,0,0,1-.15.547,1.244,1.244,0,0,1-.375.4,3.382,3.382,0,0,0-.93-.42A4.318,4.318,0,0,0,4.41-7.59a2.019,2.019,0,0,0-1.117.255.778.778,0,0,0-.382.675.653.653,0,0,0,.255.525,2.358,2.358,0,0,0,.78.375l.84.255A5.169,5.169,0,0,1,6.863-4.418,2.418,2.418,0,0,1,7.59-2.565,2.48,2.48,0,0,1,6.622-.54,4.313,4.313,0,0,1,3.855.24,6.266,6.266,0,0,1,2.22.045,2.823,2.823,0,0,1,1.088-.51a1.086,1.086,0,0,1-.413-.84.945.945,0,0,1,.218-.623,1.514,1.514,0,0,1,.488-.4,4.25,4.25,0,0,0,1.02.592A3.523,3.523,0,0,0,3.8-1.515ZM16.26-3.585A4.177,4.177,0,0,1,15.8-1.56,3.253,3.253,0,0,1,14.49-.24a4.025,4.025,0,0,1-1.98.465,4.122,4.122,0,0,1-1.988-.458A3.192,3.192,0,0,1,9.21-1.545a4.211,4.211,0,0,1-.465-2.04A4.08,4.08,0,0,1,9.217-5.6a3.3,3.3,0,0,1,1.32-1.312A4.036,4.036,0,0,1,12.51-7.38a3.993,3.993,0,0,1,1.965.465A3.3,3.3,0,0,1,15.788-5.6,4.091,4.091,0,0,1,16.26-3.585ZM12.495-5.73a1.4,1.4,0,0,0-1.17.563,2.535,2.535,0,0,0-.435,1.582,2.59,2.59,0,0,0,.427,1.605,1.42,1.42,0,0,0,1.193.555,1.4,1.4,0,0,0,1.177-.562,2.6,2.6,0,0,0,.427-1.6,2.574,2.574,0,0,0-.427-1.575A1.406,1.406,0,0,0,12.495-5.73ZM15.06-4.665h-.285a1.723,1.723,0,0,1-.157-.54,4.481,4.481,0,0,1-.068-.765,1.281,1.281,0,0,0,.9-.33,1.451,1.451,0,0,0,.36-1.11v-.51a2.153,2.153,0,0,1,.36-.142,1.506,1.506,0,0,1,.42-.052,1.191,1.191,0,0,1,.682.187.73.73,0,0,1,.278.653v.12a2.538,2.538,0,0,1-.345,1.365,2.254,2.254,0,0,1-.908.84A2.7,2.7,0,0,1,15.06-4.665Zm10.725-1.05a1.994,1.994,0,0,0-1.425.555,2.108,2.108,0,0,0-.585,1.605,2.053,2.053,0,0,0,.563,1.575,2.037,2.037,0,0,0,1.448.525,2.755,2.755,0,0,0,.885-.128,3.235,3.235,0,0,0,.645-.292,1.588,1.588,0,0,1,.375.382A.859.859,0,0,1,27.825-1a1,1,0,0,1-.608.877A3.391,3.391,0,0,1,25.575.21a4.793,4.793,0,0,1-2.062-.42,3.055,3.055,0,0,1-1.38-1.268,4.107,4.107,0,0,1-.487-2.078,3.951,3.951,0,0,1,.532-2.138,3.345,3.345,0,0,1,1.41-1.267,4.406,4.406,0,0,1,1.927-.42,3.137,3.137,0,0,1,1.62.36,1.055,1.055,0,0,1,.6.915.852.852,0,0,1-.128.45,1.43,1.43,0,0,1-.307.36,3.235,3.235,0,0,0-.645-.293A2.7,2.7,0,0,0,25.785-5.715Zm8.58-5.505,1.065-1.335a1.208,1.208,0,0,1,.78.24.668.668,0,0,1,.255.51.776.776,0,0,1-.113.42A2.146,2.146,0,0,1,36-10.98l-.945.99a1.048,1.048,0,0,1-.682-.2.585.585,0,0,1-.248-.457.683.683,0,0,1,.053-.262A1.488,1.488,0,0,1,34.365-11.22Zm-1.29,2.745-.72-.87q-.375.42-.652.727t-.593.682a1.3,1.3,0,0,1-.772-.24.691.691,0,0,1-.292-.57.71.71,0,0,1,.142-.443A3.831,3.831,0,0,1,30.6-9.63l.645-.675a2.277,2.277,0,0,1,.517-.4,1.286,1.286,0,0,1,.623-.143,1.438,1.438,0,0,1,.607.128,1.822,1.822,0,0,1,.608.547l1.14,1.365a.906.906,0,0,1-.2.592.757.757,0,0,1-.623.248.737.737,0,0,1-.443-.135A2.442,2.442,0,0,1,33.075-8.475Zm-.9,7.14A3.35,3.35,0,0,0,32.9-1.41a1.626,1.626,0,0,0,.5-.18V-3.12L32.055-3a1.821,1.821,0,0,0-.84.24.637.637,0,0,0-.3.57.747.747,0,0,0,.3.623A1.576,1.576,0,0,0,32.175-1.335ZM32.1-7.38a4.137,4.137,0,0,1,2.423.637,2.277,2.277,0,0,1,.907,2v3.42a.877.877,0,0,1-.187.593,2.092,2.092,0,0,1-.472.4,3.861,3.861,0,0,1-1.095.405,6.8,6.8,0,0,1-1.5.15A4.343,4.343,0,0,1,29.768-.36a1.959,1.959,0,0,1-.892-1.755,1.942,1.942,0,0,1,.63-1.56,3.327,3.327,0,0,1,1.875-.66l2.01-.21V-4.77a.837.837,0,0,0-.4-.78,2.249,2.249,0,0,0-1.14-.24,4.506,4.506,0,0,0-1.125.142,6.185,6.185,0,0,0-.99.338.981.981,0,0,1-.285-.353,1.049,1.049,0,0,1-.12-.488.908.908,0,0,1,.645-.87,4.444,4.444,0,0,1,1-.27A7.205,7.205,0,0,1,32.1-7.38ZM40.7.21A3.959,3.959,0,0,0,42.57-.225a3.142,3.142,0,0,0,1.3-1.283,4.28,4.28,0,0,0,.472-2.108,4.119,4.119,0,0,0-.5-2.153,3,3,0,0,0-1.38-1.222,4.884,4.884,0,0,0-2-.39,5.661,5.661,0,0,0-1.515.187,4.571,4.571,0,0,0-1.125.457,1.446,1.446,0,0,0-.45.435,1.143,1.143,0,0,0-.15.615V-.8H39.3V-5.43a2.54,2.54,0,0,1,.495-.21,2.195,2.195,0,0,1,.66-.09,1.848,1.848,0,0,1,.915.218,1.462,1.462,0,0,1,.607.675A2.878,2.878,0,0,1,42.2-3.615a2.37,2.37,0,0,1-.48,1.628,1.687,1.687,0,0,1-1.32.533,1.977,1.977,0,0,1-.878-.18,3.166,3.166,0,0,1-.638-.405V-.255a3.864,3.864,0,0,0,.78.323A3.524,3.524,0,0,0,40.7.21ZM39.3-1.335,37.215-1.35V1.83a.909.909,0,0,0,.278.757,1.394,1.394,0,0,0,.862.217,3.2,3.2,0,0,0,.555-.045q.255-.045.39-.075Z" transform="translate(712.932 241.937)" fill="#ce82ff"/><path d="M-2.8-8.3h-.1q-.187.561-.425,1.267t-.5,1.47q-.263.765-.484,1.5L-4.607-2.7q-.1.323-.2.7t-.213.731q-.11.357-.2.689T-5.389,0A3.5,3.5,0,0,1-5.8.119,2.464,2.464,0,0,1-6.341.17a1.749,1.749,0,0,1-1-.247A.806.806,0,0,1-7.7-.782,1.362,1.362,0,0,1-7.633-1.2q.068-.212.136-.485.17-.561.451-1.411t.62-1.845q.34-.994.689-1.972t.655-1.811q.306-.833.51-1.343a3.14,3.14,0,0,1,.722-.264,3.762,3.762,0,0,1,.961-.127,3.6,3.6,0,0,1,1.224.2,1,1,0,0,1,.68.637q.34.9.731,2.1t.8,2.491q.408,1.292.773,2.516t.655,2.21a1.192,1.192,0,0,1-.51.332A2.219,2.219,0,0,1,.68.153a1.466,1.466,0,0,1-.935-.23A1.406,1.406,0,0,1-.663-.8l-.612-2.023L-1.53-4.148Q-1.768-4.93-2.006-5.7t-.442-1.437Q-2.652-7.8-2.8-8.3Zm-2.856,5.95.918-1.9h4.08l.323,1.9ZM6.749-3.06H4.505V-8.517l-1.989.782a1.532,1.532,0,0,1-.459-.383,1.022,1.022,0,0,1-.2-.672q0-.8.986-1.156l2.193-.85h.493a1.2,1.2,0,0,1,.9.332,1.248,1.248,0,0,1,.323.91ZM4.505-4.641H6.749V0q-.136.034-.408.085a3.234,3.234,0,0,1-.6.051A1.551,1.551,0,0,1,4.8-.094a.985.985,0,0,1-.3-.825Z" transform="translate(735.286 282.938)" fill="#fff" opacity="0.7"/></g></svg>