<svg xmlns="http://www.w3.org/2000/svg" width="42.116" height="40.857" viewBox="0 0 42.116 40.857"><g transform="translate(-534.384 -578.572)"><path d="M156.427,82.717l.955,8.671a2.772,2.772,0,0,1-3.748,2.886l-8.174-3.113L137.5,94.714a2.792,2.792,0,0,1-3.923-2.677l.409-8.707-5.877-6.476a2.767,2.767,0,0,1,1.323-4.54l8.426-2.269,4.333-7.555a2.786,2.786,0,0,1,4.739-.13l4.8,7.306,8.554,1.807a2.779,2.779,0,0,1,1.606,4.461Z" transform="translate(410.502 520.973)" fill="#ffd900" fill-rule="evenodd"/><path d="M136.366,98.456a6.293,6.293,0,0,1-6.288-6.582l.341-7.264-4.9-5.405a6.273,6.273,0,0,1,.432-8.871,6.316,6.316,0,0,1,2.573-1.4l7.023-1.891,3.61-6.294a6.286,6.286,0,0,1,10.706-.3l4,6.093,7.144,1.51a6.279,6.279,0,0,1,3.609,10.079l-4.549,5.652.8,7.226a6.264,6.264,0,0,1-5.573,6.917,7.029,7.029,0,0,1-2.9-.38l-6.817-2.6-6.643,2.964A6.239,6.239,0,0,1,136.366,98.456ZM131.5,75.38l6.051,6.668-.422,9,8.231-3.672,8.417,3.206-.983-8.926,5.633-7-8.828-1.865-4.955-7.541-4.471,7.8Z" transform="translate(410.502 520.973)" fill="#fff"/><path d="M156.427,82.717l.955,8.671a2.772,2.772,0,0,1-3.748,2.886l-8.174-3.113L137.5,94.714a2.792,2.792,0,0,1-3.923-2.677l.409-8.707-5.877-6.476a2.767,2.767,0,0,1,1.323-4.54l8.426-2.269,4.333-7.555a2.786,2.786,0,0,1,4.739-.13l4.8,7.306,8.554,1.807a2.779,2.779,0,0,1,1.606,4.461Z" transform="translate(410.502 520.973)" fill="#ffd900" fill-rule="evenodd"/></g></svg>