<svg xmlns="http://www.w3.org/2000/svg" width="39.74" height="40.005" viewBox="0 0 39.74 40.005"><g transform="translate(-1094.333 -581.034)"><path d="M-11799.934,6093.806l-12.658-4.608a3.3,3.3,0,0,1-1.974-4.228l.044-.119h-5.18a3.3,3.3,0,0,1-3.3-3.3V6063.3a3.3,3.3,0,0,1,3.3-3.3h13.474a3.3,3.3,0,0,1,3.3,3.3v2.97l11.5,4.184a3.3,3.3,0,0,1,1.973,4.229l-6.242,17.15a3.3,3.3,0,0,1-3.1,2.173A3.3,3.3,0,0,1-11799.934,6093.806Z" transform="translate(12920.334 -5475.967)" fill="#ea2b2b"/><path d="M-11798.8,6097.005h0a6.285,6.285,0,0,1-2.153-.38l-12.659-4.609a6.262,6.262,0,0,1-3.555-3.255,6.438,6.438,0,0,1-.344-.91h-2.185a6.307,6.307,0,0,1-6.3-6.3V6063.3a6.307,6.307,0,0,1,6.3-6.3h13.474a6.307,6.307,0,0,1,6.3,6.3v.87l9.521,3.465a6.307,6.307,0,0,1,3.766,8.074l-6.242,17.15A6.326,6.326,0,0,1-11798.8,6097.005Zm-20.9-34-.3,18.55,5.479.3h4.311l-1.5,4.042,12.8,5.094.1,3.019v-3a.307.307,0,0,0,.286-.2l6.241-17.149-13.648-5.286V6063.3Z" transform="translate(12920.334 -5475.967)" fill="#fff"/><g transform="translate(1097.333 584.033)"><rect width="20.072" height="24.851" rx="3.3" transform="matrix(0.94, 0.342, -0.342, 0.94, 15.806, 4.717)" fill="#ea2b2b"/><rect width="20.072" height="24.851" rx="3.3" fill="#ff4b4b"/></g></g></svg>