<svg xmlns="http://www.w3.org/2000/svg" width="124.412" height="119.575" viewBox="0 0 124.412 119.575"><g transform="translate(-812.237 -398.104)"><g transform="translate(840.508 398.104)"><g transform="translate(12.023 77.654)"><path d="M169.837,608.13c0-.041-.005-.081-.006-.122,0-.07.006-.14.006-.21,0-9.8-9.265-17.75-20.694-17.75s-20.694,7.947-20.694,17.75c0,.07.005.14.006.21,0,.041-.006.081-.006.122v14.225h41.387Z" transform="translate(-128.45 -590.047)" fill="#0065d6"/></g><path d="M128.8,660.909h-7.541a3.565,3.565,0,0,1-3.554-3.555h0a3.565,3.565,0,0,1,3.554-3.555H128.8a3.565,3.565,0,0,1,3.555,3.555h0A3.565,3.565,0,0,1,128.8,660.909Z" transform="translate(-110.711 -546.315)" fill="#01357a"/><g transform="translate(23.687 77.654)"><path d="M153.378,608.13c0-.041.005-.081.006-.122,0-.07-.006-.14-.006-.21,0-9.8,9.265-17.75,20.694-17.75s20.694,7.947,20.694,17.75c0,.07-.005.14-.006.21,0,.041.006.081.006.122v14.225H153.378Z" transform="translate(-153.378 -590.047)" fill="#0065d6"/></g><path d="M224.819,660.909h7.541a3.565,3.565,0,0,0,3.554-3.555h0a3.565,3.565,0,0,0-3.554-3.555h-7.541a3.565,3.565,0,0,0-3.555,3.555h0A3.565,3.565,0,0,0,224.819,660.909Z" transform="translate(-165.813 -546.315)" fill="#01357a"/><path d="M178.059,673.1H104.808a2.059,2.059,0,0,1-2.053-2.053h0a2.059,2.059,0,0,1,2.053-2.053h73.252a2.059,2.059,0,0,1,2.053,2.053h0A2.059,2.059,0,0,1,178.059,673.1Z" transform="translate(-102.755 -554.4)" fill="#bdbdbd"/><g transform="translate(18.091 77.654)"><path d="M182.805,608.13c0-.041-.006-.081-.007-.122,0-.07.007-.14.007-.21,0-9.8-9.265-17.75-20.694-17.75s-20.694,7.947-20.694,17.75c0,.07.005.14.006.21,0,.041-.006.081-.006.122v18.857h41.387Z" transform="translate(-141.418 -590.047)" fill="#006bd6"/></g><ellipse cx="10.627" cy="9.723" rx="10.627" ry="9.723" transform="translate(15.876 100.129)" fill="#005ed6"/><ellipse cx="10.627" cy="9.723" rx="10.627" ry="9.723" transform="translate(39.768 100.129)" fill="#005ed6"/><g transform="translate(0)"><g transform="translate(0 19.617)"><rect width="77.357" height="68.337" rx="34.169" fill="#0075d6"/><path d="M149.792,483.486c12.142,0,22.293,7.647,24.851,17.882h6.476c-2.654-13.414-15.665-23.6-31.328-23.6s-28.674,10.187-31.328,23.6h6.477C127.5,491.134,137.65,483.486,149.792,483.486Z" transform="translate(-111.113 -472.267)" fill="#fff"/><path d="M149.792,567.7c-12.142,0-22.293-7.648-24.851-17.882h-6.477c2.654,13.414,15.665,23.6,31.328,23.6s28.674-10.187,31.328-23.6h-6.476C172.085,560.05,161.934,567.7,149.792,567.7Z" transform="translate(-111.113 -510.603)" fill="#fff"/></g><g transform="translate(16.467 43.182)"><path d="M5.557,0h0a5.557,5.557,0,0,1,5.557,5.557V9.927a5.557,5.557,0,0,1-5.557,5.557h0A5.557,5.557,0,0,1,0,9.927V5.557A5.557,5.557,0,0,1,5.557,0Z" fill="#fff"/><g transform="translate(0.577 0.804)"><path d="M145.823,529.1a2.85,2.85,0,0,1,3.316-2.829v-3.4a4.789,4.789,0,0,0-4.775-4.775h-.41a4.75,4.75,0,0,0-.947.1,3.432,3.432,0,0,1-3.828,5.629v3.376a4.789,4.789,0,0,0,4.775,4.775h.41a4.731,4.731,0,0,0,2.46-.693A2.86,2.86,0,0,1,145.823,529.1Z" transform="translate(-139.18 -518.091)"/></g></g><g transform="translate(49.441 43.182)"><path d="M5.557,0h0a5.557,5.557,0,0,1,5.557,5.557v4.37a5.557,5.557,0,0,1-5.557,5.557h0A5.557,5.557,0,0,1,0,9.927V5.557A5.557,5.557,0,0,1,5.557,0Z" fill="#fff"/><g transform="translate(0.577 0.804)"><path d="M216.3,529.1a2.85,2.85,0,0,1,3.316-2.829v-3.4a4.789,4.789,0,0,0-4.774-4.775h-.41a4.756,4.756,0,0,0-.947.1,3.432,3.432,0,0,1-3.827,5.629v3.376a4.789,4.789,0,0,0,4.775,4.775h.41a4.731,4.731,0,0,0,2.459-.693A2.859,2.859,0,0,1,216.3,529.1Z" transform="translate(-209.652 -518.091)"/></g></g><path d="M148,547.6h-9a1.06,1.06,0,0,1-1.057-1.057h0A1.06,1.06,0,0,1,139,545.488h9a1.06,1.06,0,0,1,1.057,1.057h0A1.06,1.06,0,0,1,148,547.6Z" transform="translate(-121.48 -488.683)" fill="#4ecdff" opacity="0.65"/><path d="M218.475,547.6h-9a1.06,1.06,0,0,1-1.057-1.057h0a1.06,1.06,0,0,1,1.057-1.057h9a1.06,1.06,0,0,1,1.057,1.057h0A1.06,1.06,0,0,1,218.475,547.6Z" transform="translate(-158.977 -488.683)" fill="#4ecdff" opacity="0.65"/><g transform="translate(21.026)"><path d="M179.61,456.84h-20.5a3.871,3.871,0,1,0,0,7.742h20.5a3.871,3.871,0,1,0,0-7.742Z" transform="translate(-151.707 -441.514)" fill="#01357a"/><path d="M157.518,429a4.913,4.913,0,1,1-4.913-4.913A4.913,4.913,0,0,1,157.518,429Z" transform="translate(-147.692 -424.086)" fill="#01357a"/><rect width="1.452" height="12.981" rx="0.726" transform="translate(16.926 3.918)" fill="#01357a"/><path d="M172.208,433.186h0a.728.728,0,0,1-.726.726H159.953a.728.728,0,0,1-.726-.726h0a.728.728,0,0,1,.726-.726h11.529A.728.728,0,0,1,172.208,433.186Z" transform="translate(-153.83 -428.542)" fill="#01357a"/></g></g></g><g transform="matrix(0.883, 0.469, -0.469, 0.883, 849.85, 384.126)"><circle cx="6.581" cy="6.581" r="6.581" transform="translate(62.888 0.693)" fill="#ebe2e3"/><path d="M9.355.937c1.3,2.981,3.47,10.321-5.861,11.87a1.746,1.746,0,0,1-1.687-.67C.211,9.858-3.156,3.369,7.331.074A1.706,1.706,0,0,1,9.355.937Z" transform="translate(57.118 0)" fill="#009446"/><path d="M15.251,4.236C13.975,7.772,9.959,15.652.9,9.535a2.017,2.017,0,0,1-.882-1.9C.49,4.451,2.824-3.667,14.24,1.9A1.971,1.971,0,0,1,15.251,4.236Z" transform="translate(60.529 7.274)" fill="#00ac52"/><path d="M.385,1.388C2.05.32,6.3-1.762,8.679,2.969a.834.834,0,0,1-.164.976C7.333,5.079,3.79,7.685.151,2.567A.832.832,0,0,1,.385,1.388Z" transform="translate(0 53.516) rotate(-51)" fill="#00ad52"/><path d="M.464,1.672C2.47.385,7.6-2.122,10.457,3.577a1,1,0,0,1-.2,1.176C8.835,6.119,4.566,9.259.182,3.093A1,1,0,0,1,.464,1.672Z" transform="translate(107.22 25.246) rotate(-172)" fill="#00ad52"/><path d="M15.862,1.359h0C12.536-.829,7.8-.32,5.326,2.491L1.477,6.872c-2.469,2.811-1.769,6.9,1.557,9.09S11.1,17.642,13.57,14.831l3.849-4.382C19.888,7.638,19.188,3.548,15.862,1.359Z" transform="translate(43.494 5.126)" fill="#ebe2e3"/><circle cx="2.792" cy="2.792" r="2.792" transform="translate(52.248 9.165)" fill="#ff9600"/><path d="M4.013.493h0A6.68,6.68,0,0,0,.182,7.96l1.195,4.417C2.144,15.211,5.122,16.488,8,15.215a6.679,6.679,0,0,0,3.831-7.466L10.632,3.331C9.866.5,6.887-.78,4.013.493Z" transform="translate(44.881 8.362)" fill="#d8cccc"/><path d="M.135,4.892C1.374,2.643,4.943-2.387,10.592,1.326a1.034,1.034,0,0,1,.419,1.186C10.364,4.524,7.933,9.678.6,6.346A1.035,1.035,0,0,1,.135,4.892Z" transform="translate(47.903 15.114)" fill="#00ad52"/><path d="M.261,4.912c1.861-2.448,6.978-7.834,13.1-2.9a1.139,1.139,0,0,1,.3,1.415C12.548,5.673,8.771,11.333.571,6.643A1.151,1.151,0,0,1,.261,4.912Z" transform="translate(43.145 20.832)" fill="#00ad52"/><path d="M9.971.8c2.345,3.3,6.852,11.7-4.126,15.955a2.172,2.172,0,0,1-2.226-.388C1.1,13.994-4.657,6.942,7.285.26A2.124,2.124,0,0,1,9.971.8Z" transform="translate(37.981 7.583)" fill="#009446"/><path d="M.143,3.2C1.265,1.433,4.4-2.354,8.569,2.061A1.12,1.12,0,0,1,8.817,3.2C8.175,4.867,5.926,8.988.409,4.584A1.1,1.1,0,0,1,.143,3.2Z" transform="translate(9.102 31.53)" fill="#019446"/><path d="M.016,9.833C.567,5.885,3.008-3.176,13.738,1.138a2.123,2.123,0,0,1,1.331,1.774c.205,3.4-.439,12.333-13.495,9.112A2.077,2.077,0,0,1,.016,9.833Z" transform="translate(12.575 33.993)" fill="#00ac52"/><path d="M15.231,1.212h0A7.628,7.628,0,0,0,4.769,3.382L1.224,8.751A7.459,7.459,0,0,0,3.417,19.108a7.627,7.627,0,0,0,10.462-2.17l3.544-5.37A7.459,7.459,0,0,0,15.231,1.212Z" transform="translate(25.144 10.064)" fill="#dacccc"/><path d="M16.029,1.518h0A7.627,7.627,0,0,0,5.44,2.946L1.526,8.053A7.459,7.459,0,0,0,2.985,18.538,7.628,7.628,0,0,0,13.574,17.11L17.487,12A7.458,7.458,0,0,0,16.029,1.518Z" transform="translate(28.227 13.597)" fill="#ebe2e3"/><path d="M.9.272C3.1-.236,8.342-.761,7.873,5.966a1.318,1.318,0,0,1-.718,1.088C5.378,7.862.511,9.339,0,1.57A1.279,1.279,0,0,1,.9.272Z" transform="translate(23.428 12.83)" fill="#00ad52"/><path d="M16.7,7.945C13.829,10.683,6.289,16.294.306,6.793A1.962,1.962,0,0,1,.327,4.655c1.927-2.75,7.943-9.292,16.469.7A1.932,1.932,0,0,1,16.7,7.945Z" transform="translate(28.771 23.25)" fill="#009446"/><circle cx="6.581" cy="6.581" r="6.581" transform="translate(13.542 22.719)" fill="#ebe2e3"/><circle cx="6.581" cy="6.581" r="6.581" transform="translate(20.908 18.976)" fill="#d8cccc"/><circle cx="2.792" cy="2.792" r="2.792" transform="translate(21.602 26.78)" fill="#ff9600"/><circle cx="5.796" cy="5.796" r="5.796" transform="translate(20.908 28.757)" fill="#ebe2e3"/><g transform="translate(3.377 77.339)"><circle cx="3.554" cy="3.554" r="3.554" transform="translate(0 2.022)" fill="#ebe2e3"/><circle cx="3.554" cy="3.554" r="3.554" transform="translate(3.978 0)" fill="#d8cccc"/><circle cx="1.508" cy="1.508" r="1.508" transform="translate(4.353 4.215)" fill="#ff9600"/><circle cx="3.131" cy="3.131" r="3.131" transform="translate(3.978 5.283)" fill="#ebe2e3"/></g></g><rect width="14.973" height="2.807" rx="1.404" transform="translate(824.91 510.402)" fill="#00ad52"/></g></svg>