<svg xmlns="http://www.w3.org/2000/svg" width="40.741" height="41.005" viewBox="0 0 40.741 41.005"><g transform="translate(-813.835 -580.534)"><path d="M-11799.934,6093.806l-12.658-4.608a3.3,3.3,0,0,1-1.974-4.228l.044-.119h-5.18a3.3,3.3,0,0,1-3.3-3.3V6063.3a3.3,3.3,0,0,1,3.3-3.3h13.474a3.3,3.3,0,0,1,3.3,3.3v2.97l11.492,4.184a3.3,3.3,0,0,1,1.973,4.229l-6.242,17.15a3.3,3.3,0,0,1-3.1,2.173A3.3,3.3,0,0,1-11799.934,6093.806Z" transform="translate(12640.336 -5475.967)" fill="#65a20e"/><path d="M-11798.806,6097.505h0a6.781,6.781,0,0,1-2.322-.41l-12.66-4.609a6.753,6.753,0,0,1-3.838-3.515c-.1-.2-.18-.411-.254-.621h-1.82a6.808,6.808,0,0,1-6.8-6.8V6063.3a6.808,6.808,0,0,1,6.8-6.8h13.474a6.808,6.808,0,0,1,6.8,6.8v.52l9.189,3.345a6.75,6.75,0,0,1,3.838,3.516,6.753,6.753,0,0,1,.227,5.2l-6.242,17.151A6.819,6.819,0,0,1-11798.806,6097.505Zm-15.716-16.155h5.029l-1.747,4.716,12.313,4.383,6.174-16.964-13.676-4.764V6063.3l-13.273.2.2,18.05Z" transform="translate(12640.336 -5475.967)" fill="#fff"/><g transform="translate(817.333 584.033)"><rect width="20.072" height="24.851" rx="3.3" transform="matrix(0.94, 0.342, -0.342, 0.94, 15.806, 4.717)" fill="#65a20e"/><rect width="20.072" height="24.851" rx="3.3" fill="#58cc02"/></g></g></svg>