<svg xmlns="http://www.w3.org/2000/svg" xmlns:xlink="http://www.w3.org/1999/xlink" width="213.093" height="44.473" viewBox="0 0 213.093 44.473"><defs><clipPath id="a"><rect width="170.234" height="40.472" rx="12" transform="translate(-10)" fill="#ffd066"/></clipPath></defs><g transform="translate(1579 -13936.973)"><rect width="213.093" height="44.473" rx="13" transform="translate(-1579 13936.973)" fill="#e7a601"/><rect width="209.093" height="40.473" rx="12" transform="translate(-1579 13936.973)" fill="#ffd026"/><g transform="translate(-1530.142 13936.973)" clip-path="url(#a)"><path d="M13664.48-5466.188l-34.98,44.174h44.949l38.365-45.735Z" transform="translate(-13628.748 5464.16)" fill="#ffe326"/><path d="M13664.48-5466.188l-34.98,44.174h44.949l38.365-45.735Z" transform="translate(-13542.988 5464.16)" fill="#ffe326"/></g><path d="M-72.075-6.705l1.95-.03q.06.615.09,1.245T-70-4.267q.007.592.007,1.162v3.09q-.135.03-.412.075a3.416,3.416,0,0,1-.548.045,1.35,1.35,0,0,1-.87-.218.953.953,0,0,1-.255-.758Zm7.89,4.275-1.935.03q-.12-1.125-.128-2.153t-.007-1.973v-2.6q.135-.03.4-.075a3.371,3.371,0,0,1,.555-.045,1.321,1.321,0,0,1,.855.217.953.953,0,0,1,.255.758Zm0-.69V-.27a1.356,1.356,0,0,1-.51.27,2.641,2.641,0,0,1-.795.105,2.481,2.481,0,0,1-.893-.158,1.384,1.384,0,0,1-.7-.7l-1.95-3.63q-.18-.345-.353-.7t-.33-.7l-.307-.675-2.055.465V-8.73a1.118,1.118,0,0,1,.54-.368,2.32,2.32,0,0,1,.78-.127,2.439,2.439,0,0,1,.9.165,1.355,1.355,0,0,1,.69.7l1.965,3.63q.18.33.353.682t.338.705q.165.352.3.683Zm5.835-7.98q-.315.315-.675.66t-.72.66a1.064,1.064,0,0,1-.66-.24.7.7,0,0,1-.27-.555.767.767,0,0,1,.142-.465,2.979,2.979,0,0,1,.458-.465l.585-.51a1.986,1.986,0,0,1,1.17-.525,1.388,1.388,0,0,1,.6.127,1.927,1.927,0,0,1,.555.427l1.215,1.275a.877.877,0,0,1-.232.66.857.857,0,0,1-.623.225.789.789,0,0,1-.472-.158,3.8,3.8,0,0,1-.533-.5Zm-.03,3.78h-.09q-.165.5-.375,1.118t-.443,1.3q-.232.675-.427,1.32l-.255,1.2q-.09.285-.18.615t-.187.645q-.1.315-.18.607T-60.66,0a3.083,3.083,0,0,1-.36.105A2.174,2.174,0,0,1-61.5.15a1.543,1.543,0,0,1-.885-.218A.711.711,0,0,1-62.7-.69a1.2,1.2,0,0,1,.06-.367q.06-.188.12-.428.15-.495.4-1.245t.548-1.627q.3-.877.607-1.74t.578-1.6q.27-.735.45-1.185a2.771,2.771,0,0,1,.638-.233,3.32,3.32,0,0,1,.847-.113,3.178,3.178,0,0,1,1.08.173.882.882,0,0,1,.6.562q.3.8.645,1.853t.705,2.2q.36,1.14.682,2.22t.577,1.95a1.051,1.051,0,0,1-.45.293,1.958,1.958,0,0,1-.69.113,1.294,1.294,0,0,1-.825-.2,1.241,1.241,0,0,1-.36-.638l-.54-1.785-.225-1.17q-.21-.69-.42-1.365t-.39-1.268Q-58.245-6.885-58.38-7.32ZM-60.9-2.07l.81-1.68h3.6l.285,1.68Zm8.145-4.635,1.95-.03q.06.615.09,1.245t.038,1.223q.008.592.007,1.162v3.09q-.135.03-.412.075a3.416,3.416,0,0,1-.548.045,1.35,1.35,0,0,1-.87-.218.953.953,0,0,1-.255-.758Zm7.89,4.275L-46.8-2.4q-.12-1.125-.127-2.153t-.007-1.973v-2.6q.135-.03.4-.075a3.371,3.371,0,0,1,.555-.045,1.321,1.321,0,0,1,.855.217.953.953,0,0,1,.255.758Zm0-.69V-.27a1.356,1.356,0,0,1-.51.27,2.641,2.641,0,0,1-.795.105,2.481,2.481,0,0,1-.893-.158,1.384,1.384,0,0,1-.7-.7l-1.95-3.63q-.18-.345-.353-.7t-.33-.7L-50.7-6.45l-2.055.465V-8.73a1.118,1.118,0,0,1,.54-.368,2.32,2.32,0,0,1,.78-.127,2.439,2.439,0,0,1,.9.165,1.355,1.355,0,0,1,.69.7l1.965,3.63q.18.33.353.682t.337.705q.165.352.3.683Zm10.1-1.35v3.15a.98.98,0,0,1-.165.615,1.713,1.713,0,0,1-.51.405A4.244,4.244,0,0,1-36.6.083,7.281,7.281,0,0,1-38.1.24a6.432,6.432,0,0,1-2.572-.5,3.894,3.894,0,0,1-1.807-1.56,5.079,5.079,0,0,1-.66-2.715,4.907,4.907,0,0,1,.675-2.663,4.318,4.318,0,0,1,1.807-1.62,5.662,5.662,0,0,1,2.5-.547,5.844,5.844,0,0,1,1.6.2,2.583,2.583,0,0,1,1.05.533,1.01,1.01,0,0,1,.368.757.991.991,0,0,1-.165.563,1.234,1.234,0,0,1-.39.382,5.863,5.863,0,0,0-.952-.458,3.722,3.722,0,0,0-1.342-.217,3.062,3.062,0,0,0-1.515.368,2.616,2.616,0,0,0-1.035,1.05,3.364,3.364,0,0,0-.375,1.643,3.55,3.55,0,0,0,.368,1.71,2.365,2.365,0,0,0,1.013,1,3.182,3.182,0,0,0,1.47.33,3.222,3.222,0,0,0,.727-.075,3.322,3.322,0,0,0,.5-.15v-1.89h-1.83a1.854,1.854,0,0,1-.142-.36,1.609,1.609,0,0,1-.068-.465.9.9,0,0,1,.2-.653.74.74,0,0,1,.548-.2h2.52a.848.848,0,0,1,.615.217A.806.806,0,0,1-34.77-4.47Zm12.42-3.42a.96.96,0,0,1-.172.563,1.308,1.308,0,0,1-.4.382,5.02,5.02,0,0,0-.847-.457,2.909,2.909,0,0,0-1.147-.2,2.723,2.723,0,0,0-1.418.352,2.363,2.363,0,0,0-.922,1.035,3.821,3.821,0,0,0-.33,1.673,3.137,3.137,0,0,0,.75,2.273A2.692,2.692,0,0,0-24.81-1.5a3.177,3.177,0,0,0,1.155-.188,4.87,4.87,0,0,0,.855-.427,1.152,1.152,0,0,1,.367.4,1.179,1.179,0,0,1,.143.585.946.946,0,0,1-.15.51,1.239,1.239,0,0,1-.495.42A4.567,4.567,0,0,1-23.768.1,5.158,5.158,0,0,1-25.08.24a5.434,5.434,0,0,1-2.392-.518,3.946,3.946,0,0,1-1.7-1.575,5.2,5.2,0,0,1-.63-2.692,5.167,5.167,0,0,1,.622-2.633A4.153,4.153,0,0,1-27.51-8.805,4.866,4.866,0,0,1-25.2-9.36a5.058,5.058,0,0,1,1.522.2,2.5,2.5,0,0,1,.983.532A1,1,0,0,1-22.35-7.89Zm7.59-4.92,1.065-1.335a1.175,1.175,0,0,1,.773.24.675.675,0,0,1,.248.51.738.738,0,0,1-.113.413,3.167,3.167,0,0,1-.338.412l-.96.99a1.023,1.023,0,0,1-.668-.2A.585.585,0,0,1-15-12.24a.683.683,0,0,1,.052-.262A1.488,1.488,0,0,1-14.76-12.81Zm-2.055,5.49h-.09q-.165.5-.375,1.118t-.442,1.3q-.233.675-.427,1.32l-.255,1.2q-.09.285-.18.615t-.187.645q-.1.315-.18.607T-19.1,0a3.084,3.084,0,0,1-.36.105,2.174,2.174,0,0,1-.48.045,1.543,1.543,0,0,1-.885-.218.711.711,0,0,1-.315-.623,1.2,1.2,0,0,1,.06-.367q.06-.188.12-.428.15-.495.4-1.245t.548-1.627q.3-.877.608-1.74t.577-1.6q.27-.735.45-1.185a2.771,2.771,0,0,1,.637-.233,3.32,3.32,0,0,1,.848-.113,3.178,3.178,0,0,1,1.08.173.882.882,0,0,1,.6.562q.3.8.645,1.853t.7,2.2q.36,1.14.682,2.22T-12.6-.27a1.051,1.051,0,0,1-.45.293,1.958,1.958,0,0,1-.69.113,1.294,1.294,0,0,1-.825-.2,1.241,1.241,0,0,1-.36-.638l-.54-1.785-.225-1.17q-.21-.69-.42-1.365t-.39-1.268Q-16.68-6.885-16.815-7.32Zm-2.52,5.25.81-1.68h3.6l.285,1.68ZM-16.785-11q-.315.3-.675.653t-.72.653a1,1,0,0,1-.66-.225.7.7,0,0,1-.27-.555.767.767,0,0,1,.142-.465,2.979,2.979,0,0,1,.458-.465l.585-.525a2.015,2.015,0,0,1,1.17-.51,1.388,1.388,0,0,1,.6.128,2.038,2.038,0,0,1,.555.412l1.215,1.29a.882.882,0,0,1-.233.653.841.841,0,0,1-.622.233.766.766,0,0,1-.472-.165,4.782,4.782,0,0,1-.533-.495Zm7.74,6.33h.96A2.04,2.04,0,0,0-6.8-5.04a1.306,1.306,0,0,0,.48-1.095,1.318,1.318,0,0,0-.45-1.1,2.022,2.022,0,0,0-1.29-.36q-.3,0-.54.015a3.06,3.06,0,0,0-.45.06Zm1.1,1.7h-3.24V-8.31a.583.583,0,0,1,.165-.443,1.309,1.309,0,0,1,.435-.262,5.432,5.432,0,0,1,1.155-.24A11.334,11.334,0,0,1-8.19-9.33a4.592,4.592,0,0,1,3.03.863A2.879,2.879,0,0,1-4.14-6.15a3.065,3.065,0,0,1-.45,1.673,2.989,2.989,0,0,1-1.3,1.11A4.833,4.833,0,0,1-7.95-2.97Zm-3.24-.945h2.16v3.9q-.15.03-.427.075a3.6,3.6,0,0,1-.578.045,1.346,1.346,0,0,1-.892-.233A.987.987,0,0,1-11.19-.9ZM3.03-7.365,3-9.105H7.485a1.357,1.357,0,0,1,.158.36,1.662,1.662,0,0,1,.067.48.981.981,0,0,1-.2.675.718.718,0,0,1-.562.225Zm1.83-1.74.03,1.74H.39a2.176,2.176,0,0,1-.15-.36,1.508,1.508,0,0,1-.075-.48.953.953,0,0,1,.21-.682A.736.736,0,0,1,.93-9.105ZM2.85-7.77H4.995V-.015q-.135.03-.42.075A3.649,3.649,0,0,1,4,.105a1.346,1.346,0,0,1-.893-.233A.987.987,0,0,1,2.85-.9Zm9.285.45h-.09q-.165.5-.375,1.118t-.442,1.3q-.232.675-.427,1.32l-.255,1.2q-.09.285-.18.615t-.187.645q-.1.315-.18.607T9.855,0a3.083,3.083,0,0,1-.36.105,2.174,2.174,0,0,1-.48.045A1.543,1.543,0,0,1,8.13-.068.711.711,0,0,1,7.815-.69a1.2,1.2,0,0,1,.06-.367q.06-.188.12-.428.15-.495.4-1.245T8.94-4.358q.3-.877.608-1.74t.578-1.6q.27-.735.45-1.185a2.771,2.771,0,0,1,.637-.233,3.32,3.32,0,0,1,.848-.113,3.178,3.178,0,0,1,1.08.173.882.882,0,0,1,.6.562q.3.8.645,1.853t.7,2.2q.36,1.14.682,2.22T16.35-.27a1.051,1.051,0,0,1-.45.293,1.958,1.958,0,0,1-.69.113,1.294,1.294,0,0,1-.825-.2,1.241,1.241,0,0,1-.36-.638l-.54-1.785L13.26-3.66q-.21-.69-.42-1.365t-.39-1.268Q12.27-6.885,12.135-7.32ZM9.615-2.07l.81-1.68h3.6l.285,1.68Zm1.575-8.085-1.365-1.08a.631.631,0,0,1-.015-.15v-.135a.953.953,0,0,1,.255-.7.856.856,0,0,1,.63-.255,1.273,1.273,0,0,1,.915.45l1.29,1.365a.929.929,0,0,1-.3.637.856.856,0,0,1-.57.217.947.947,0,0,1-.443-.1A3.351,3.351,0,0,1,11.19-10.155Zm6.585,3.93H19.92v6.21q-.135.03-.42.075a3.746,3.746,0,0,1-.585.045,1.318,1.318,0,0,1-.878-.233A.987.987,0,0,1,17.775-.9ZM19.92-3.6H17.775V-9.105q.135-.03.42-.082a3.14,3.14,0,0,1,.57-.053,1.424,1.424,0,0,1,.878.217.971.971,0,0,1,.278.8Zm6.915-1.215,2.34-.33q1.305,1.35,2.31,2.423T33.135-1a1.066,1.066,0,0,1-.353.847,1.206,1.206,0,0,1-.817.308,1.277,1.277,0,0,1-.818-.255,5.425,5.425,0,0,1-.637-.6Zm2.4.75-2.67.075L31.23-9.18a1.761,1.761,0,0,1,1.17.315.966.966,0,0,1,.36.75,1.18,1.18,0,0,1-.165.6,3.3,3.3,0,0,1-.525.645ZM25.62-6.24h2.16V-.015a2.95,2.95,0,0,1-.428.083,4.311,4.311,0,0,1-.577.038,1.379,1.379,0,0,1-.892-.225A.984.984,0,0,1,25.62-.9Zm2.16,2.625H25.62v-5.49q.15-.03.435-.082a3.14,3.14,0,0,1,.57-.053,1.424,1.424,0,0,1,.878.217.971.971,0,0,1,.278.8Zm6.81-2.61h2.16v6.21q-.15.03-.428.075a3.6,3.6,0,0,1-.577.045,1.346,1.346,0,0,1-.893-.233A.987.987,0,0,1,34.59-.9ZM36.75-3.6H34.59V-9.105q.15-.03.435-.082a3.14,3.14,0,0,1,.57-.053,1.424,1.424,0,0,1,.878.217.971.971,0,0,1,.278.8Zm3.48-2.625h2.16v6.21q-.15.03-.428.075a3.6,3.6,0,0,1-.577.045A1.35,1.35,0,0,1,40.5-.128.971.971,0,0,1,40.23-.9ZM42.39-3.6H40.23V-9.105q.15-.03.435-.082a3.14,3.14,0,0,1,.57-.053,1.388,1.388,0,0,1,.877.225,1,1,0,0,1,.278.81Zm-.93-.12H35.58V-5.43h5.88Zm11.865-.84a5.324,5.324,0,0,1-.6,2.633,3.973,3.973,0,0,1-1.643,1.62A5,5,0,0,1,48.72.24a5,5,0,0,1-2.362-.548,4.02,4.02,0,0,1-1.65-1.62A5.27,5.27,0,0,1,44.1-4.56a5.176,5.176,0,0,1,.615-2.625,4.117,4.117,0,0,1,1.665-1.62,4.929,4.929,0,0,1,2.34-.555,4.929,4.929,0,0,1,2.34.555,4.069,4.069,0,0,1,1.657,1.62A5.227,5.227,0,0,1,53.325-4.56Zm-2.2,0a3.446,3.446,0,0,0-.653-2.265,2.162,2.162,0,0,0-1.748-.78,2.171,2.171,0,0,0-1.748.773A3.441,3.441,0,0,0,46.32-4.56a3.467,3.467,0,0,0,.653,2.288A2.171,2.171,0,0,0,48.72-1.5a2.166,2.166,0,0,0,1.755-.773A3.5,3.5,0,0,0,51.12-4.56Zm7.425-2.76h-.09q-.165.5-.375,1.118t-.443,1.3q-.232.675-.427,1.32l-.255,1.2q-.09.285-.18.615t-.187.645q-.1.315-.18.607T56.265,0a3.083,3.083,0,0,1-.36.105,2.174,2.174,0,0,1-.48.045,1.543,1.543,0,0,1-.885-.218.711.711,0,0,1-.315-.623,1.2,1.2,0,0,1,.06-.367q.06-.188.12-.428.15-.495.4-1.245t.548-1.627q.3-.877.607-1.74t.578-1.6q.27-.735.45-1.185a2.771,2.771,0,0,1,.638-.233,3.32,3.32,0,0,1,.847-.113,3.178,3.178,0,0,1,1.08.173.882.882,0,0,1,.6.562q.3.8.645,1.853t.705,2.2q.36,1.14.682,2.22T62.76-.27a1.051,1.051,0,0,1-.45.293,1.958,1.958,0,0,1-.69.113,1.294,1.294,0,0,1-.825-.2,1.241,1.241,0,0,1-.36-.638l-.54-1.785L59.67-3.66q-.21-.69-.42-1.365t-.39-1.268Q58.68-6.885,58.545-7.32Zm-2.52,5.25.81-1.68h3.6l.285,1.68ZM58.47-13.185a2.959,2.959,0,0,1,.983.165,1.748,1.748,0,0,1,.772.517,1.329,1.329,0,0,1,.3.892,1.189,1.189,0,0,1-.443,1.02,1.815,1.815,0,0,1-1.012.36v.375a.748.748,0,0,1-.24.09,1.817,1.817,0,0,1-.435.045,1.2,1.2,0,0,1-.57-.1.285.285,0,0,1-.165-.248v-.525a.517.517,0,0,1,.157-.435.637.637,0,0,1,.4-.12h.195q.555,0,.555-.42a.386.386,0,0,0-.173-.323.93.93,0,0,0-.548-.128,1.815,1.815,0,0,0-.548.083,3.038,3.038,0,0,0-.443.173.923.923,0,0,1-.247-.255.646.646,0,0,1-.1-.36.649.649,0,0,1,.472-.615A2.832,2.832,0,0,1,58.47-13.185Zm5.7,6.48,1.95-.03q.06.615.09,1.245t.037,1.223q.007.592.007,1.162v3.09q-.135.03-.412.075a3.416,3.416,0,0,1-.548.045,1.35,1.35,0,0,1-.87-.218A.953.953,0,0,1,64.17-.87ZM72.06-2.43l-1.935.03Q70-3.525,70-4.553T69.99-6.525v-2.6q.135-.03.4-.075a3.371,3.371,0,0,1,.555-.045,1.321,1.321,0,0,1,.855.217.953.953,0,0,1,.255.758Zm0-.69V-.27a1.356,1.356,0,0,1-.51.27,2.641,2.641,0,0,1-.795.105,2.481,2.481,0,0,1-.893-.158,1.384,1.384,0,0,1-.7-.7l-1.95-3.63q-.18-.345-.353-.7t-.33-.7l-.307-.675-2.055.465V-8.73a1.118,1.118,0,0,1,.54-.368,2.32,2.32,0,0,1,.78-.127,2.439,2.439,0,0,1,.9.165,1.355,1.355,0,0,1,.69.7l1.965,3.63q.18.33.353.682t.338.705q.165.352.3.683Z" transform="translate(-1455.142 13962.468)" fill="#cd7900"/><g transform="translate(3942.197 1336)"><g transform="translate(-5515 12603.227)"><path d="M111.015,70.037l1.534,4.671a.929.929,0,0,1,.046.169.389.389,0,0,1,0,.113.928.928,0,0,1-.046.169l-1.534,4.672a.457.457,0,0,1-.868,0l-1.534-4.672a.889.889,0,0,1-.046-.169.389.389,0,0,1,0-.113.882.882,0,0,1,.046-.169l1.534-4.672a.457.457,0,0,1,.868,0Z" transform="translate(-73.014 -43.773)" fill="#fff" fill-rule="evenodd"/><path d="M73.368,61.021l-3.78,1.242a.457.457,0,0,1-.285,0l-3.78-1.242a.457.457,0,0,1,0-.868l3.78-1.241a.457.457,0,0,1,.285,0l3.78,1.241a.457.457,0,0,1,0,.868ZM34.489,43.627l.732,2.228a.939.939,0,0,1,.046.169.392.392,0,0,1,0,.113.923.923,0,0,1-.046.169l-.732,2.229a.457.457,0,0,1-.868,0l-.732-2.229a.923.923,0,0,1-.046-.169.392.392,0,0,1,0-.113.929.929,0,0,1,.046-.169l.731-2.23a.457.457,0,0,1,.868,0Z" transform="translate(-31.879 -29.426)" fill="#fff" fill-rule="evenodd"/><path d="M34.775,30l-1.72.565a.457.457,0,0,1-.285,0L31.05,30a.457.457,0,0,1,0-.868l1.72-.565a.457.457,0,0,1,.285,0l1.72.565a.457.457,0,0,1,0,.868Zm24.5-16.776.542,1.65a.929.929,0,0,1,.046.169.392.392,0,0,1,0,.113.923.923,0,0,1-.046.169l-.542,1.65a.457.457,0,0,1-.868,0l-.542-1.65a.924.924,0,0,1-.046-.169.392.392,0,0,1,0-.113.872.872,0,0,1,.046-.169l.542-1.651a.457.457,0,0,1,.868,0Z" transform="translate(-30.736 -12.911)" fill="#fff" fill-rule="evenodd"/><path d="M91.631,17.114l-1.232.4a.457.457,0,0,1-.285,0l-1.232-.4a.457.457,0,0,1,0-.868l1.232-.4a.457.457,0,0,1,.285,0l1.232.4a.457.457,0,0,1,0,.868Z" transform="translate(-62.152 -14.491)" fill="#fff" fill-rule="evenodd"/></g><g transform="translate(-5510.646 12608.438)"><path d="M8.418,25.587a2.861,2.861,0,0,1-2.762-2.112L1.947,9.8A3.013,3.013,0,1,1,6.019,6.777q.058.039.115.08l3.15,2.335h0L13.83,4.428a3.047,3.047,0,1,1,5.536-.218l5.08,4.978L27.073,7.1q0-.058,0-.116a3.013,3.013,0,1,1,4.25,2.748L27.589,23.475a2.861,2.861,0,0,1-2.761,2.112Z" transform="translate(0 0)" fill="#ffc800" stroke="#fff" stroke-width="2"/><path d="M6.187,9.063l1.123.963a.92.92,0,0,0,1.3-.1l2.776-3.282a1.165,1.165,0,0,1,2.052.66l.956,12.044A1.165,1.165,0,0,1,13.233,20.6H8.655a1.165,1.165,0,0,1-1.127-.873l-2.563-9.9a.755.755,0,0,1,1.222-.761Z" transform="translate(1.468 2.182)" fill="#ffde00"/><path d="M32.58,25.419a4.007,4.007,0,0,1,2.062-2.442l1.616-.8A.891.891,0,0,1,37.5,23.244L34.09,34.027a.891.891,0,0,1-.849.622H31.012a.891.891,0,0,1-.853-1.146Z" transform="translate(-8.589 -11.822)" fill="#ffde00"/></g></g></g></svg>