<svg xmlns="http://www.w3.org/2000/svg" width="111.429" height="107.503" viewBox="0 0 111.429 107.503"><g transform="translate(-679.286 -214.556)"><g transform="translate(0.286 12.937)"><rect width="111.429" height="107.503" rx="11" transform="translate(679 201.619)" fill="#a56644"/><rect width="107.429" height="103.132" rx="9" transform="translate(679 201.619)" fill="#d17b00"/><rect width="94.983" height="27.931" rx="4" transform="translate(685.223 210.213)" fill="#fff"/></g><path d="M49.111,53.353c-.374,0-.744-.016-1.1-.047A8.255,8.255,0,0,1,43.5,51.655a8.843,8.843,0,0,1-2.832-5.228,14.13,14.13,0,0,1-.293-3.1.975.975,0,0,1,.735-.906,14.144,14.144,0,0,1,3.091-.348c.4,0,.8.013,1.185.046A8.242,8.242,0,0,1,49.9,43.773,8.846,8.846,0,0,1,52.729,49a14.237,14.237,0,0,1,.294,3.1.975.975,0,0,1-.735.905,14.174,14.174,0,0,1-3.091.349Zm-25.079,0A14.141,14.141,0,0,1,20.941,53a.975.975,0,0,1-.735-.905A14.133,14.133,0,0,1,20.5,49a8.848,8.848,0,0,1,2.832-5.229,8.254,8.254,0,0,1,4.512-1.651c.383-.033.782-.049,1.187-.047a14.174,14.174,0,0,1,3.091.349.975.975,0,0,1,.735.905,14.2,14.2,0,0,1-.293,3.1,8.85,8.85,0,0,1-2.832,5.228,8.25,8.25,0,0,1-4.514,1.651c-.355.031-.724.047-1.1.047ZM11.878,43.148h0c-.07-.006-.139-.014-.208-.023a8.846,8.846,0,0,1-5.161-2.953,14.409,14.409,0,0,1-1.88-2.477.973.973,0,0,1,.148-1.157A14.139,14.139,0,0,1,7.22,34.612a9.837,9.837,0,0,1,4.334-1.582,6.555,6.555,0,0,1,1.4.025,8.84,8.84,0,0,1,5.162,2.952A14.357,14.357,0,0,1,20,38.485a.973.973,0,0,1-.149,1.157,14.109,14.109,0,0,1-2.444,1.924,9.824,9.824,0,0,1-4.334,1.581q-.3.027-.6.027C12.272,43.175,12.074,43.166,11.878,43.148Zm48.278,0a9.83,9.83,0,0,1-4.334-1.582,14.2,14.2,0,0,1-2.444-1.923.977.977,0,0,1-.148-1.158,14.37,14.37,0,0,1,1.88-2.477,8.839,8.839,0,0,1,5.161-2.953,6.567,6.567,0,0,1,1.4-.023,9.837,9.837,0,0,1,4.334,1.58,14.292,14.292,0,0,1,2.444,1.925.976.976,0,0,1,.147,1.157,14.4,14.4,0,0,1-1.88,2.478,8.847,8.847,0,0,1-5.161,2.953l-.209.023h0q-.293.027-.594.027T60.156,43.148ZM22.235,26.459c0-.044,0-.087,0-.131,0-.014,0-.027,0-.041V6.791a1,1,0,0,1,1-1H51a1,1,0,0,1,1,1v19.5c0,.014,0,.028,0,.041,0,.043,0,.088,0,.131,0,6.849-6.663,12.4-14.882,12.4S22.235,33.308,22.235,26.459Zm-18.6,1.018A8.846,8.846,0,0,1,.484,22.435,14.468,14.468,0,0,1,0,19.364a.975.975,0,0,1,.678-.95,14.115,14.115,0,0,1,2.795-.519l.269-.021a8.835,8.835,0,0,1,5.792,1.341,8.841,8.841,0,0,1,3.152,5.041,14.4,14.4,0,0,1,.485,3.073.977.977,0,0,1-.678.95A14.092,14.092,0,0,1,9.7,28.8c-.089.008-.179.015-.271.022q-.451.031-.884.031A8.363,8.363,0,0,1,3.636,27.477ZM63.8,28.817l-.272-.021a14.04,14.04,0,0,1-2.792-.519.974.974,0,0,1-.678-.95,14.464,14.464,0,0,1,.485-3.073A8.845,8.845,0,0,1,63.7,19.213a8.842,8.842,0,0,1,5.792-1.34c.091.005.182.013.27.021a13.967,13.967,0,0,1,2.794.519.974.974,0,0,1,.678.949,14.46,14.46,0,0,1-.485,3.072,8.839,8.839,0,0,1-3.151,5.042,8.355,8.355,0,0,1-4.9,1.372Q64.254,28.848,63.8,28.817ZM59.458,14.061a.973.973,0,0,1-.8-.564,14.389,14.389,0,0,1-.909-2.974,8.835,8.835,0,0,1,.624-5.913A8.838,8.838,0,0,1,62.994.867,14.331,14.331,0,0,1,65.984.01.919.919,0,0,1,66.211,0a.972.972,0,0,1,.8.563,14.529,14.529,0,0,1,.91,2.975,8.841,8.841,0,0,1-.625,5.913,8.835,8.835,0,0,1-4.62,3.742,14.363,14.363,0,0,1-2.99.857.988.988,0,0,1-.147.011C59.512,14.064,59.485,14.063,59.458,14.061Zm-45.913-.006a14.546,14.546,0,0,1-2.991-.857,8.844,8.844,0,0,1-4.62-3.743A8.843,8.843,0,0,1,5.31,3.541,14.456,14.456,0,0,1,6.219.567.969.969,0,0,1,7.246.01a14.443,14.443,0,0,1,2.989.856,8.842,8.842,0,0,1,4.62,3.744,8.838,8.838,0,0,1,.625,5.912A14.43,14.43,0,0,1,14.57,13.5a.974.974,0,0,1-.8.564c-.028,0-.055,0-.083,0A1.106,1.106,0,0,1,13.544,14.054Z" transform="translate(698.385 257.416)" fill="#fff" stroke="#000" stroke-width="4" opacity="0.15"/><g transform="translate(696.745 255.504)"><g transform="translate(0 0)"><g transform="translate(0)"><g transform="matrix(0.996, -0.087, 0.087, 0.996, 0, 2.672)"><g transform="translate(0 0)"><path d="M8.853,11.4a14.062,14.062,0,0,0,2.827-.274.975.975,0,0,0,.758-.887,14.415,14.415,0,0,0-.216-3.1,8.842,8.842,0,0,0-2.7-5.3A8.842,8.842,0,0,0,3.869,0L3.6,0A14.062,14.062,0,0,0,.77.274a.975.975,0,0,0-.758.887,14.419,14.419,0,0,0,.216,3.1,8.843,8.843,0,0,0,2.7,5.3A8.842,8.842,0,0,0,8.582,11.4Z" transform="translate(0 17.514)" fill="#e7bb7c"/><path d="M4.889,10.912a8.248,8.248,0,0,0,4.64-1.252A8.843,8.843,0,0,0,12.806,4.7a14.2,14.2,0,0,0,.562-3.06.975.975,0,0,0-.654-.966A14.182,14.182,0,0,0,9.666.057C9.263.019,8.864,0,8.48,0A8.247,8.247,0,0,0,3.841,1.252,8.844,8.844,0,0,0,.564,6.213,14.214,14.214,0,0,0,0,9.273a.976.976,0,0,0,.654.966,14.2,14.2,0,0,0,3.048.617C4.106,10.893,4.5,10.912,4.889,10.912Z" transform="translate(17.287 43.775)" fill="#e7bb7c"/><path d="M8.025,10.211a9.831,9.831,0,0,0,4.455-1.2,14.2,14.2,0,0,0,2.6-1.7.975.975,0,0,0,.248-1.14,14.393,14.393,0,0,0-1.657-2.632A8.843,8.843,0,0,0,8.79.146,6.56,6.56,0,0,0,7.394,0,9.83,9.83,0,0,0,2.938,1.2a14.188,14.188,0,0,0-2.6,1.7.975.975,0,0,0-.248,1.14A14.405,14.405,0,0,0,1.745,6.674a8.843,8.843,0,0,0,4.884,3.391c.068.015.136.029.205.041h0A6.686,6.686,0,0,0,8.025,10.211Z" transform="translate(2.938 33.298)" fill="#e7bb7c"/><path d="M7.969,14.593a.973.973,0,0,0,.844-.492,14.427,14.427,0,0,0,1.165-2.884,8.843,8.843,0,0,0-.106-5.945A8.844,8.844,0,0,0,5.6,1.141,14.4,14.4,0,0,0,2.692.027.969.969,0,0,0,1.622.492,14.415,14.415,0,0,0,.456,3.376,8.844,8.844,0,0,0,.562,9.321a8.845,8.845,0,0,0,4.276,4.131,14.4,14.4,0,0,0,2.9,1.114A.977.977,0,0,0,7.969,14.593Z" transform="translate(6.226 0)" fill="#e7bb7c"/></g></g><g transform="matrix(-0.996, -0.087, 0.087, -0.996, 71.744, 57.15)"><g transform="translate(0 0)"><path d="M8.853,0A14.062,14.062,0,0,1,11.68.273a.975.975,0,0,1,.758.887,14.415,14.415,0,0,1-.216,3.1,8.842,8.842,0,0,1-2.7,5.3A8.842,8.842,0,0,1,3.869,11.4l-.27,0A14.062,14.062,0,0,1,.77,11.13a.975.975,0,0,1-.758-.887,14.419,14.419,0,0,1,.216-3.1,8.843,8.843,0,0,1,2.7-5.3A8.842,8.842,0,0,1,8.582,0Z" transform="translate(0 25.769)" fill="#e7bb7c"/><path d="M4.889,0a8.248,8.248,0,0,1,4.64,1.252,8.843,8.843,0,0,1,3.277,4.961,14.2,14.2,0,0,1,.562,3.06.975.975,0,0,1-.654.966,14.181,14.181,0,0,1-3.048.617c-.4.038-.8.057-1.186.057A8.247,8.247,0,0,1,3.841,9.66,8.844,8.844,0,0,1,.564,4.7,14.213,14.213,0,0,1,0,1.64.976.976,0,0,1,.655.673,14.2,14.2,0,0,1,3.7.057C4.106.019,4.5,0,4.889,0Z" transform="translate(17.287 0)" fill="#e7bb7c"/><path d="M8.025,0a9.831,9.831,0,0,1,4.455,1.2,14.2,14.2,0,0,1,2.6,1.7.975.975,0,0,1,.248,1.14,14.394,14.394,0,0,1-1.657,2.632A8.843,8.843,0,0,1,8.79,10.065a6.56,6.56,0,0,1-1.4.146,9.83,9.83,0,0,1-4.456-1.2,14.188,14.188,0,0,1-2.6-1.7.975.975,0,0,1-.248-1.14A14.4,14.4,0,0,1,1.745,3.537,8.843,8.843,0,0,1,6.629.146C6.7.131,6.765.117,6.834.1h0A6.686,6.686,0,0,1,8.025,0Z" transform="translate(2.938 11.178)" fill="#e7bb7c"/><path d="M7.968,0a.973.973,0,0,1,.844.492A14.427,14.427,0,0,1,9.978,3.376a8.843,8.843,0,0,1-.106,5.945A8.844,8.844,0,0,1,5.6,13.452a14.4,14.4,0,0,1-2.9,1.114A.969.969,0,0,1,1.622,14.1,14.416,14.416,0,0,1,.456,11.217,8.844,8.844,0,0,1,.562,5.272,8.845,8.845,0,0,1,4.838,1.14,14.4,14.4,0,0,1,7.742.027.977.977,0,0,1,7.968,0Z" transform="translate(6.226 40.094)" fill="#e7bb7c"/></g></g></g></g><path d="M0,20.668c0-.044,0-.088,0-.132,0-.014,0-.027,0-.041V1A1,1,0,0,1,1,0H28.763a1,1,0,0,1,1,1V20.495c0,.014,0,.027,0,.041,0,.044,0,.088,0,.132,0,6.849-6.663,12.4-14.882,12.4S0,27.517,0,20.668Z" transform="translate(23.875 7.703)" fill="#d17b00"/><path d="M0,23.459,23.458,0h4.926a1,1,0,0,1,1,1V4L3.964,29.423A12,12,0,0,1,0,23.459Z" transform="translate(24.255 7.702)" fill="#fff" opacity="0.12"/></g><g transform="translate(710.576 256.349)"><path d="M111.478,70.1l1.825,5.555a1.107,1.107,0,0,1,.054.2.463.463,0,0,1,0,.135,1.1,1.1,0,0,1-.054.2l-1.825,5.556a.543.543,0,0,1-1.032,0l-1.824-5.556a1.058,1.058,0,0,1-.054-.2.463.463,0,0,1,0-.134,1.05,1.05,0,0,1,.054-.2l1.824-5.556a.543.543,0,0,1,1.032,0Z" transform="translate(-66.287 -38.862)" fill="#fff1a2" fill-rule="evenodd"/><path d="M81.038,64.372l-4.5,1.476a.543.543,0,0,1-.339,0l-4.5-1.476a.543.543,0,0,1,0-1.032l4.5-1.476a.543.543,0,0,1,.339,0l4.5,1.476a.543.543,0,0,1,0,1.032ZM34.8,43.687l.87,2.65a1.117,1.117,0,0,1,.054.2.466.466,0,0,1,0,.134,1.1,1.1,0,0,1-.054.2l-.87,2.651a.543.543,0,0,1-1.032,0l-.87-2.651a1.1,1.1,0,0,1-.054-.2.467.467,0,0,1,0-.134,1.1,1.1,0,0,1,.054-.2l.87-2.651a.543.543,0,0,1,1.032,0Z" transform="translate(-31.697 -26.798)" fill="#fff1a2" fill-rule="evenodd"/><path d="M35.539,33.235l-2.045.671a.543.543,0,0,1-.339,0l-2.045-.671a.543.543,0,0,1,0-1.032l2.045-.672a.543.543,0,0,1,.339,0l2.045.671a.543.543,0,0,1,0,1.032Zm29.136-19.95.645,1.963a1.1,1.1,0,0,1,.054.2.467.467,0,0,1,0,.135,1.1,1.1,0,0,1-.054.2l-.645,1.963a.543.543,0,0,1-1.032,0L63,15.784a1.1,1.1,0,0,1-.054-.2.466.466,0,0,1,0-.134,1.038,1.038,0,0,1,.054-.2l.644-1.963a.543.543,0,0,1,1.032,0Z" transform="translate(-30.736 -12.911)" fill="#fff1a2" fill-rule="evenodd"/><path d="M92.211,17.36l-1.466.481a.543.543,0,0,1-.339,0l-1.466-.481a.543.543,0,0,1,0-1.032l1.466-.481a.543.543,0,0,1,.339,0l1.466.481a.543.543,0,0,1,0,1.032Z" transform="translate(-57.153 -14.239)" fill="#fff1a2" fill-rule="evenodd"/></g><path d="M7.005-2.28a1.621,1.621,0,0,1-.427.21,1.821,1.821,0,0,1-.593.09,2.1,2.1,0,0,1-.735-.113.607.607,0,0,1-.39-.382Q4.3-3.93,3.93-4.943T3.33-6.66H3.255Q3.21-5.7,3.18-4.89T3.128-3.323q-.023.758-.06,1.553T2.985-.045a2.556,2.556,0,0,1-.42.105A3.016,3.016,0,0,1,2.04.105a1.544,1.544,0,0,1-.833-.188A.683.683,0,0,1,.915-.705q0-.315.037-.967t.09-1.515Q1.1-4.05,1.155-5.01t.127-1.9q.067-.937.112-1.733a1.5,1.5,0,0,1,.465-.33,2.024,2.024,0,0,1,.93-.18,2.14,2.14,0,0,1,1.028.21,1.186,1.186,0,0,1,.548.66q.255.585.525,1.32t.54,1.485q.27.75.495,1.365H6q.45-1.365.915-2.655t.81-2.145a1.954,1.954,0,0,1,.5-.172A3.038,3.038,0,0,1,8.88-9.15a2.263,2.263,0,0,1,.975.18.754.754,0,0,1,.45.525q.06.285.127.9t.143,1.425q.075.81.15,1.7t.135,1.717q.06.833.113,1.508T11.04-.135a2.07,2.07,0,0,1-.458.18,2.353,2.353,0,0,1-.577.06A1.678,1.678,0,0,1,9.233-.06.709.709,0,0,1,8.88-.705Q8.82-1.92,8.767-3.023T8.685-5.048q-.03-.923-.06-1.568H8.55q-.21.675-.593,1.7T7.005-2.28Zm12.87-1.3A4.177,4.177,0,0,1,19.41-1.56,3.253,3.253,0,0,1,18.1-.24a4.025,4.025,0,0,1-1.98.465,4.122,4.122,0,0,1-1.988-.458,3.192,3.192,0,0,1-1.312-1.313,4.211,4.211,0,0,1-.465-2.04A4.08,4.08,0,0,1,12.832-5.6a3.3,3.3,0,0,1,1.32-1.312,4.036,4.036,0,0,1,1.973-.465,3.993,3.993,0,0,1,1.965.465A3.3,3.3,0,0,1,19.4-5.6,4.091,4.091,0,0,1,19.875-3.585ZM16.11-5.73a1.4,1.4,0,0,0-1.17.563A2.535,2.535,0,0,0,14.5-3.585a2.59,2.59,0,0,0,.428,1.605,1.42,1.42,0,0,0,1.193.555A1.4,1.4,0,0,0,17.3-1.988a2.6,2.6,0,0,0,.427-1.6A2.574,2.574,0,0,0,17.3-5.16,1.406,1.406,0,0,0,16.11-5.73Zm2.565,1.065H18.39a1.723,1.723,0,0,1-.157-.54,4.481,4.481,0,0,1-.067-.765,1.281,1.281,0,0,0,.9-.33,1.451,1.451,0,0,0,.36-1.11v-.51a2.153,2.153,0,0,1,.36-.142,1.506,1.506,0,0,1,.42-.052,1.191,1.191,0,0,1,.683.187.73.73,0,0,1,.278.653v.12A2.538,2.538,0,0,1,20.82-5.79a2.254,2.254,0,0,1-.907.84A2.7,2.7,0,0,1,18.675-4.665ZM15.33-9.315l1.485-1.635a1.456,1.456,0,0,1,.96.278.818.818,0,0,1,.33.637.859.859,0,0,1-.135.488,2.366,2.366,0,0,1-.435.457l-1.41,1.23a1.181,1.181,0,0,1-.818-.262.756.756,0,0,1-.292-.562.65.65,0,0,1,.075-.307A1.611,1.611,0,0,1,15.33-9.315Zm6.675.06a1.1,1.1,0,0,1,.33-.81,1.157,1.157,0,0,1,.855-.33,1.157,1.157,0,0,1,.855.33,1.1,1.1,0,0,1,.33.81,1.126,1.126,0,0,1-.33.818,1.143,1.143,0,0,1-.855.337,1.143,1.143,0,0,1-.855-.337A1.126,1.126,0,0,1,22.005-9.255Zm.135,5.3h2.1V-.015q-.135.03-.39.075A3.2,3.2,0,0,1,23.3.105a1.462,1.462,0,0,1-.878-.21A.906.906,0,0,1,22.14-.87Zm2.1,1.08h-2.1V-7.1q.135-.03.39-.075a3.2,3.2,0,0,1,.555-.045,1.462,1.462,0,0,1,.878.21.927.927,0,0,1,.277.78Zm9.09-4.5a3.686,3.686,0,0,1,1.763.42A3.026,3.026,0,0,1,36.338-5.7,4.351,4.351,0,0,1,36.8-3.6a4.182,4.182,0,0,1-.487,2.1A3.158,3.158,0,0,1,34.95-.21a4.473,4.473,0,0,1-2.025.435,5,5,0,0,1-1.56-.218,4.589,4.589,0,0,1-1.11-.518,1.437,1.437,0,0,1-.465-.473,1.2,1.2,0,0,1-.15-.608v-4.8h2.085v4.65a2.514,2.514,0,0,0,.48.2,2.287,2.287,0,0,0,.7.1,1.605,1.605,0,0,0,1.26-.54,2.375,2.375,0,0,0,.48-1.62,2.357,2.357,0,0,0-.465-1.62,1.585,1.585,0,0,0-1.23-.51,2,2,0,0,0-.893.188,3.249,3.249,0,0,0-.652.412l-.075-1.68a4.663,4.663,0,0,1,.848-.39A3.392,3.392,0,0,1,33.33-7.38ZM31.725-5.895H29.64v-3.87q.135-.03.39-.075a3.2,3.2,0,0,1,.555-.045,1.426,1.426,0,0,1,.87.21.92.92,0,0,1,.27.765Zm9.225-6.06,1.065-1.335a1.208,1.208,0,0,1,.78.24.668.668,0,0,1,.255.51.7.7,0,0,1-.12.412,3.84,3.84,0,0,1-.345.413l-.945.99a1.054,1.054,0,0,1-.675-.2.581.581,0,0,1-.255-.458.74.74,0,0,1,.052-.27A1.153,1.153,0,0,1,40.95-11.955Zm.225,10.62A3.35,3.35,0,0,0,41.9-1.41a1.626,1.626,0,0,0,.5-.18V-3.12L41.055-3a1.821,1.821,0,0,0-.84.24.637.637,0,0,0-.3.57.747.747,0,0,0,.3.623A1.576,1.576,0,0,0,41.175-1.335ZM41.1-7.38a4.137,4.137,0,0,1,2.423.637,2.277,2.277,0,0,1,.907,2v3.42a.877.877,0,0,1-.187.593,2.092,2.092,0,0,1-.472.4,3.861,3.861,0,0,1-1.095.405,6.8,6.8,0,0,1-1.5.15A4.343,4.343,0,0,1,38.768-.36a1.959,1.959,0,0,1-.893-1.755,1.942,1.942,0,0,1,.63-1.56,3.327,3.327,0,0,1,1.875-.66l2.01-.21V-4.77a.837.837,0,0,0-.4-.78,2.249,2.249,0,0,0-1.14-.24,4.506,4.506,0,0,0-1.125.142,6.185,6.185,0,0,0-.99.338.981.981,0,0,1-.285-.353,1.049,1.049,0,0,1-.12-.488.908.908,0,0,1,.645-.87,4.444,4.444,0,0,1,1.005-.27A7.205,7.205,0,0,1,41.1-7.38Zm.255-2.37a1.181,1.181,0,0,0,.758-.233,1.078,1.078,0,0,0,.382-.622.7.7,0,0,1,.135-.015h.135a.9.9,0,0,1,.72.277.946.946,0,0,1,.24.638,1.272,1.272,0,0,1-.615,1.042,2.974,2.974,0,0,1-1.755.443,2.968,2.968,0,0,1-1.762-.443A1.275,1.275,0,0,1,38.985-9.7a.946.946,0,0,1,.24-.638.9.9,0,0,1,.72-.277h.143a.524.524,0,0,1,.127.015,1,1,0,0,0,.375.622A1.212,1.212,0,0,0,41.355-9.75ZM46.23-3.96h2.085V-2.3a.733.733,0,0,0,.278.645,1.327,1.327,0,0,0,.772.2,2.563,2.563,0,0,0,.5-.053,2.828,2.828,0,0,0,.458-.128,1.108,1.108,0,0,1,.21.308,1.013,1.013,0,0,1,.09.442.949.949,0,0,1-.413.78A2.27,2.27,0,0,1,48.855.21a3.018,3.018,0,0,1-1.928-.555,2.164,2.164,0,0,1-.7-1.8Zm1.305-1.425v-1.62h2.91a1.5,1.5,0,0,1,.142.33,1.514,1.514,0,0,1,.068.465.868.868,0,0,1-.195.622.7.7,0,0,1-.525.2Zm.78,1.815H46.23v-5.4a2.885,2.885,0,0,1,.4-.09,3.236,3.236,0,0,1,.548-.045,1.431,1.431,0,0,1,.862.21.906.906,0,0,1,.278.765Zm14.43-4.365H59a1.779,1.779,0,0,1-.12-.27,1,1,0,0,1-.06-.345q0-.615.555-.615h3.765q.045.09.1.247a.94.94,0,0,1,.06.338Q63.3-7.935,62.745-7.935ZM60.225-1.7v-4.59H62.31V-1.44a1.044,1.044,0,0,1-.15.578,1.442,1.442,0,0,1-.465.428A4.219,4.219,0,0,1,60.66.023a4.905,4.905,0,0,1-1.47.2,5.023,5.023,0,0,1-2.123-.413,3.012,3.012,0,0,1-1.38-1.26A4.172,4.172,0,0,1,55.2-3.555a4.211,4.211,0,0,1,.495-2.16A3.127,3.127,0,0,1,57.03-6.968,4.2,4.2,0,0,1,58.9-7.38a3.463,3.463,0,0,1,.975.127,2.964,2.964,0,0,1,.7.293v1.74a2.327,2.327,0,0,0-.577-.352,2.027,2.027,0,0,0-.833-.158,2,2,0,0,0-.96.225,1.517,1.517,0,0,0-.653.712A2.917,2.917,0,0,0,57.33-3.54a2.211,2.211,0,0,0,.495,1.59,1.794,1.794,0,0,0,1.35.51,2.086,2.086,0,0,0,.623-.082A2.429,2.429,0,0,0,60.225-1.7Zm2.085-4.17H60.225v-4.2q.12-.03.383-.075a3.237,3.237,0,0,1,.547-.045,1.5,1.5,0,0,1,.885.2.917.917,0,0,1,.27.773Zm7.275-4.485-1.17-1.35a.884.884,0,0,1,.248-.63.728.728,0,0,1,.517-.225.791.791,0,0,1,.48.142,1.821,1.821,0,0,1,.375.382L71-10.665a.791.791,0,0,1-.27.51.715.715,0,0,1-.45.165.7.7,0,0,1-.353-.09A1.656,1.656,0,0,1,69.585-10.35ZM67.11-1.335a3.35,3.35,0,0,0,.728-.075,1.626,1.626,0,0,0,.5-.18V-3.12L66.99-3a1.821,1.821,0,0,0-.84.24.637.637,0,0,0-.3.57.747.747,0,0,0,.3.623A1.576,1.576,0,0,0,67.11-1.335ZM67.035-7.38a4.137,4.137,0,0,1,2.423.637,2.277,2.277,0,0,1,.908,2v3.42a.877.877,0,0,1-.187.593,2.092,2.092,0,0,1-.473.4,3.861,3.861,0,0,1-1.1.405,6.8,6.8,0,0,1-1.5.15A4.343,4.343,0,0,1,64.7-.36a1.959,1.959,0,0,1-.892-1.755,1.942,1.942,0,0,1,.63-1.56,3.327,3.327,0,0,1,1.875-.66l2.01-.21V-4.77a.837.837,0,0,0-.4-.78,2.249,2.249,0,0,0-1.14-.24,4.506,4.506,0,0,0-1.125.142,6.185,6.185,0,0,0-.99.338.981.981,0,0,1-.285-.353,1.049,1.049,0,0,1-.12-.488.908.908,0,0,1,.645-.87,4.444,4.444,0,0,1,1.005-.27A7.205,7.205,0,0,1,67.035-7.38Zm.975-1.1-.72-.87q-.375.42-.652.727t-.592.682a1.3,1.3,0,0,1-.773-.24.691.691,0,0,1-.292-.57.71.71,0,0,1,.143-.443,3.83,3.83,0,0,1,.412-.443l.645-.675a2.277,2.277,0,0,1,.518-.4,1.286,1.286,0,0,1,.622-.143,1.438,1.438,0,0,1,.608.128,1.822,1.822,0,0,1,.607.547l1.14,1.365a.906.906,0,0,1-.2.592.757.757,0,0,1-.622.248.737.737,0,0,1-.443-.135A2.442,2.442,0,0,1,68.01-8.475Zm4.14,5.7v-1.11h2.085v1.1a1.306,1.306,0,0,0,.375,1.042,1.561,1.561,0,0,0,1.05.322,2.724,2.724,0,0,0,.727-.082,1.892,1.892,0,0,0,.443-.173v-2.2h2.085v2.43a1.315,1.315,0,0,1-.128.608,1.169,1.169,0,0,1-.442.443A4.122,4.122,0,0,1,77.19.053a6.379,6.379,0,0,1-1.545.173A4.927,4.927,0,0,1,73.808-.09a2.558,2.558,0,0,1-1.223-.975A3.055,3.055,0,0,1,72.15-2.775Zm6.765-.42H76.83V-7.14q.135-.03.39-.075a3.2,3.2,0,0,1,.555-.045,1.467,1.467,0,0,1,.87.2.917.917,0,0,1,.27.773Zm-4.68,0H72.15V-7.14q.135-.03.39-.075A3.2,3.2,0,0,1,73.1-7.26a1.467,1.467,0,0,1,.87.2.917.917,0,0,1,.27.773Z" transform="translate(693.286 241.937)" fill="#d17b00"/><path d="M-4.947-8.3h-.1q-.187.561-.425,1.267t-.5,1.47q-.263.765-.484,1.5L-6.749-2.7q-.1.323-.2.7t-.213.731q-.11.357-.2.689T-7.531,0a3.5,3.5,0,0,1-.408.119A2.464,2.464,0,0,1-8.483.17a1.749,1.749,0,0,1-1-.247.806.806,0,0,1-.357-.706A1.362,1.362,0,0,1-9.775-1.2q.068-.212.136-.485.17-.561.451-1.411t.62-1.845q.34-.994.689-1.972t.655-1.811q.306-.833.51-1.343a3.14,3.14,0,0,1,.722-.264,3.762,3.762,0,0,1,.961-.127,3.6,3.6,0,0,1,1.224.2,1,1,0,0,1,.68.637q.34.9.731,2.1t.8,2.491q.408,1.292.773,2.516T-.17-.306A1.192,1.192,0,0,1-.68.025a2.219,2.219,0,0,1-.782.128A1.466,1.466,0,0,1-2.4-.077,1.406,1.406,0,0,1-2.805-.8l-.612-2.023-.255-1.326Q-3.91-4.93-4.148-5.7T-4.59-7.132Q-4.794-7.8-4.947-8.3ZM-7.8-2.346l.918-1.9h4.08l.323,1.9ZM7.276-5.338A6.706,6.706,0,0,0,7-7.446a2.671,2.671,0,0,0-.774-1.241A1.734,1.734,0,0,0,5.083-9.1a1.659,1.659,0,0,0-1.113.417A2.772,2.772,0,0,0,3.2-7.429a6.64,6.64,0,0,0-.28,2.091,5.613,5.613,0,0,0,.561,2.814,1.764,1.764,0,0,0,1.6.944,1.8,1.8,0,0,0,1.624-.944A5.543,5.543,0,0,0,7.276-5.338ZM5.1.255A4.347,4.347,0,0,1,2.78-.366,4.075,4.075,0,0,1,1.207-2.227,7.561,7.561,0,0,1,.646-5.338a7.217,7.217,0,0,1,.6-3.137,4.174,4.174,0,0,1,1.607-1.836,4.312,4.312,0,0,1,2.253-.6,4.312,4.312,0,0,1,2.253.6A4.167,4.167,0,0,1,8.959-8.466a7.229,7.229,0,0,1,.6,3.128,7.475,7.475,0,0,1-.569,3.1A4.138,4.138,0,0,1,7.412-.366,4.3,4.3,0,0,1,5.1.255Z" transform="translate(735.286 282.938)" fill="#fff" opacity="0.7"/></g></svg>