<svg xmlns="http://www.w3.org/2000/svg" width="111.429" height="107.503" viewBox="0 0 111.429 107.503"><g transform="translate(-679.286 -214.556)"><g transform="translate(0.286 12.937)"><rect width="111.429" height="107.503" rx="11" transform="translate(679 201.619)" fill="#65a20e"/><rect width="107.429" height="103.132" rx="9" transform="translate(679 201.619)" fill="#58cc02"/><rect width="94.983" height="27.931" rx="4" transform="translate(685.223 210.213)" fill="#fff"/></g><path d="M49.111,53.353c-.374,0-.744-.016-1.1-.047A8.255,8.255,0,0,1,43.5,51.655a8.843,8.843,0,0,1-2.832-5.228,14.13,14.13,0,0,1-.293-3.1.975.975,0,0,1,.735-.906,14.144,14.144,0,0,1,3.091-.348c.4,0,.8.013,1.185.046A8.242,8.242,0,0,1,49.9,43.773,8.846,8.846,0,0,1,52.729,49a14.237,14.237,0,0,1,.294,3.1.975.975,0,0,1-.735.905,14.174,14.174,0,0,1-3.091.349Zm-25.079,0A14.141,14.141,0,0,1,20.941,53a.975.975,0,0,1-.735-.905A14.133,14.133,0,0,1,20.5,49a8.848,8.848,0,0,1,2.832-5.229,8.254,8.254,0,0,1,4.512-1.651c.383-.033.782-.049,1.187-.047a14.174,14.174,0,0,1,3.091.349.975.975,0,0,1,.735.905,14.2,14.2,0,0,1-.293,3.1,8.85,8.85,0,0,1-2.832,5.228,8.25,8.25,0,0,1-4.514,1.651c-.355.031-.724.047-1.1.047ZM11.878,43.148h0c-.07-.006-.139-.014-.208-.023a8.846,8.846,0,0,1-5.161-2.953,14.409,14.409,0,0,1-1.88-2.477.973.973,0,0,1,.148-1.157A14.139,14.139,0,0,1,7.22,34.612a9.837,9.837,0,0,1,4.334-1.582,6.555,6.555,0,0,1,1.4.025,8.84,8.84,0,0,1,5.162,2.952A14.357,14.357,0,0,1,20,38.485a.973.973,0,0,1-.149,1.157,14.109,14.109,0,0,1-2.444,1.924,9.824,9.824,0,0,1-4.334,1.581q-.3.027-.6.027C12.272,43.175,12.074,43.166,11.878,43.148Zm48.278,0a9.83,9.83,0,0,1-4.334-1.582,14.2,14.2,0,0,1-2.444-1.923.977.977,0,0,1-.148-1.158,14.37,14.37,0,0,1,1.88-2.477,8.839,8.839,0,0,1,5.161-2.953,6.567,6.567,0,0,1,1.4-.023,9.837,9.837,0,0,1,4.334,1.58,14.292,14.292,0,0,1,2.444,1.925.976.976,0,0,1,.147,1.157,14.4,14.4,0,0,1-1.88,2.478,8.847,8.847,0,0,1-5.161,2.953l-.209.023h0q-.293.027-.594.027T60.156,43.148ZM22.235,26.459c0-.044,0-.087,0-.131,0-.014,0-.027,0-.041V6.791a1,1,0,0,1,1-1H51a1,1,0,0,1,1,1v19.5c0,.014,0,.028,0,.041,0,.043,0,.088,0,.131,0,6.849-6.663,12.4-14.882,12.4S22.235,33.308,22.235,26.459Zm-18.6,1.018A8.846,8.846,0,0,1,.484,22.435,14.468,14.468,0,0,1,0,19.364a.975.975,0,0,1,.678-.95,14.115,14.115,0,0,1,2.795-.519l.269-.021a8.835,8.835,0,0,1,5.792,1.341,8.841,8.841,0,0,1,3.152,5.041,14.4,14.4,0,0,1,.485,3.073.977.977,0,0,1-.678.95A14.092,14.092,0,0,1,9.7,28.8c-.089.008-.179.015-.271.022q-.451.031-.884.031A8.363,8.363,0,0,1,3.636,27.477ZM63.8,28.817l-.272-.021a14.04,14.04,0,0,1-2.792-.519.974.974,0,0,1-.678-.95,14.464,14.464,0,0,1,.485-3.073A8.845,8.845,0,0,1,63.7,19.213a8.842,8.842,0,0,1,5.792-1.34c.091.005.182.013.27.021a13.967,13.967,0,0,1,2.794.519.974.974,0,0,1,.678.949,14.46,14.46,0,0,1-.485,3.072,8.839,8.839,0,0,1-3.151,5.042,8.355,8.355,0,0,1-4.9,1.372Q64.254,28.848,63.8,28.817ZM59.458,14.061a.973.973,0,0,1-.8-.564,14.389,14.389,0,0,1-.909-2.974,8.835,8.835,0,0,1,.624-5.913A8.838,8.838,0,0,1,62.994.867,14.331,14.331,0,0,1,65.984.01.919.919,0,0,1,66.211,0a.972.972,0,0,1,.8.563,14.529,14.529,0,0,1,.91,2.975,8.841,8.841,0,0,1-.625,5.913,8.835,8.835,0,0,1-4.62,3.742,14.363,14.363,0,0,1-2.99.857.988.988,0,0,1-.147.011C59.512,14.064,59.485,14.063,59.458,14.061Zm-45.913-.006a14.546,14.546,0,0,1-2.991-.857,8.844,8.844,0,0,1-4.62-3.743A8.843,8.843,0,0,1,5.31,3.541,14.456,14.456,0,0,1,6.219.567.969.969,0,0,1,7.246.01a14.443,14.443,0,0,1,2.989.856,8.842,8.842,0,0,1,4.62,3.744,8.838,8.838,0,0,1,.625,5.912A14.43,14.43,0,0,1,14.57,13.5a.974.974,0,0,1-.8.564c-.028,0-.055,0-.083,0A1.106,1.106,0,0,1,13.544,14.054Z" transform="translate(698.385 257.416)" fill="#fff" stroke="#000" stroke-width="4" opacity="0.15"/><g transform="translate(696.745 255.504)"><g transform="translate(0 0)"><g transform="translate(0)"><g transform="matrix(0.996, -0.087, 0.087, 0.996, 0, 2.672)"><g transform="translate(0 0)"><path d="M8.853,11.4a14.062,14.062,0,0,0,2.827-.274.975.975,0,0,0,.758-.887,14.415,14.415,0,0,0-.216-3.1,8.842,8.842,0,0,0-2.7-5.3A8.842,8.842,0,0,0,3.869,0L3.6,0A14.062,14.062,0,0,0,.77.274a.975.975,0,0,0-.758.887,14.419,14.419,0,0,0,.216,3.1,8.843,8.843,0,0,0,2.7,5.3A8.842,8.842,0,0,0,8.582,11.4Z" transform="translate(0 17.514)" fill="#e9ffd8"/><path d="M4.889,10.912a8.248,8.248,0,0,0,4.64-1.252A8.843,8.843,0,0,0,12.806,4.7a14.2,14.2,0,0,0,.562-3.06.975.975,0,0,0-.654-.966A14.182,14.182,0,0,0,9.666.057C9.263.019,8.864,0,8.48,0A8.247,8.247,0,0,0,3.841,1.252,8.844,8.844,0,0,0,.564,6.213,14.214,14.214,0,0,0,0,9.273a.976.976,0,0,0,.654.966,14.2,14.2,0,0,0,3.048.617C4.106,10.893,4.5,10.912,4.889,10.912Z" transform="translate(17.287 43.775)" fill="#e9ffd8"/><path d="M8.025,10.211a9.831,9.831,0,0,0,4.455-1.2,14.2,14.2,0,0,0,2.6-1.7.975.975,0,0,0,.248-1.14,14.393,14.393,0,0,0-1.657-2.632A8.843,8.843,0,0,0,8.79.146,6.56,6.56,0,0,0,7.394,0,9.83,9.83,0,0,0,2.938,1.2a14.188,14.188,0,0,0-2.6,1.7.975.975,0,0,0-.248,1.14A14.405,14.405,0,0,0,1.745,6.674a8.843,8.843,0,0,0,4.884,3.391c.068.015.136.029.205.041h0A6.686,6.686,0,0,0,8.025,10.211Z" transform="translate(2.938 33.298)" fill="#e9ffd8"/><path d="M7.969,14.593a.973.973,0,0,0,.844-.492,14.427,14.427,0,0,0,1.165-2.884,8.843,8.843,0,0,0-.106-5.945A8.844,8.844,0,0,0,5.6,1.141,14.4,14.4,0,0,0,2.692.027.969.969,0,0,0,1.622.492,14.415,14.415,0,0,0,.456,3.376,8.844,8.844,0,0,0,.562,9.321a8.845,8.845,0,0,0,4.276,4.131,14.4,14.4,0,0,0,2.9,1.114A.977.977,0,0,0,7.969,14.593Z" transform="translate(6.226 0)" fill="#e9ffd8"/></g></g><g transform="matrix(-0.996, -0.087, 0.087, -0.996, 71.744, 57.15)"><g transform="translate(0 0)"><path d="M8.853,0A14.062,14.062,0,0,1,11.68.273a.975.975,0,0,1,.758.887,14.415,14.415,0,0,1-.216,3.1,8.842,8.842,0,0,1-2.7,5.3A8.842,8.842,0,0,1,3.869,11.4l-.27,0A14.062,14.062,0,0,1,.77,11.13a.975.975,0,0,1-.758-.887,14.419,14.419,0,0,1,.216-3.1,8.843,8.843,0,0,1,2.7-5.3A8.842,8.842,0,0,1,8.582,0Z" transform="translate(0 25.769)" fill="#e9ffd8"/><path d="M4.889,0a8.248,8.248,0,0,1,4.64,1.252,8.843,8.843,0,0,1,3.277,4.961,14.2,14.2,0,0,1,.562,3.06.975.975,0,0,1-.654.966,14.181,14.181,0,0,1-3.048.617c-.4.038-.8.057-1.186.057A8.247,8.247,0,0,1,3.841,9.66,8.844,8.844,0,0,1,.564,4.7,14.213,14.213,0,0,1,0,1.64.976.976,0,0,1,.655.673,14.2,14.2,0,0,1,3.7.057C4.106.019,4.5,0,4.889,0Z" transform="translate(17.287 0)" fill="#e9ffd8"/><path d="M8.025,0a9.831,9.831,0,0,1,4.455,1.2,14.2,14.2,0,0,1,2.6,1.7.975.975,0,0,1,.248,1.14,14.394,14.394,0,0,1-1.657,2.632A8.843,8.843,0,0,1,8.79,10.065a6.56,6.56,0,0,1-1.4.146,9.83,9.83,0,0,1-4.456-1.2,14.188,14.188,0,0,1-2.6-1.7.975.975,0,0,1-.248-1.14A14.4,14.4,0,0,1,1.745,3.537,8.843,8.843,0,0,1,6.629.146C6.7.131,6.765.117,6.834.1h0A6.686,6.686,0,0,1,8.025,0Z" transform="translate(2.938 11.178)" fill="#e9ffd8"/><path d="M7.968,0a.973.973,0,0,1,.844.492A14.427,14.427,0,0,1,9.978,3.376a8.843,8.843,0,0,1-.106,5.945A8.844,8.844,0,0,1,5.6,13.452a14.4,14.4,0,0,1-2.9,1.114A.969.969,0,0,1,1.622,14.1,14.416,14.416,0,0,1,.456,11.217,8.844,8.844,0,0,1,.562,5.272,8.845,8.845,0,0,1,4.838,1.14,14.4,14.4,0,0,1,7.742.027.977.977,0,0,1,7.968,0Z" transform="translate(6.226 40.094)" fill="#e9ffd8"/></g></g></g></g><path d="M0,20.668c0-.044,0-.088,0-.132,0-.014,0-.027,0-.041V1A1,1,0,0,1,1,0H28.763a1,1,0,0,1,1,1V20.495c0,.014,0,.027,0,.041,0,.044,0,.088,0,.132,0,6.849-6.663,12.4-14.882,12.4S0,27.517,0,20.668Z" transform="translate(23.875 7.703)" fill="#58cc02"/><path d="M0,23.459,23.458,0h4.926a1,1,0,0,1,1,1V4L3.964,29.423A12,12,0,0,1,0,23.459Z" transform="translate(24.255 7.702)" fill="#fff" opacity="0.12"/></g><g transform="translate(710.576 256.349)"><path d="M111.478,70.1l1.825,5.555a1.107,1.107,0,0,1,.054.2.463.463,0,0,1,0,.135,1.1,1.1,0,0,1-.054.2l-1.825,5.556a.543.543,0,0,1-1.032,0l-1.824-5.556a1.058,1.058,0,0,1-.054-.2.463.463,0,0,1,0-.134,1.05,1.05,0,0,1,.054-.2l1.824-5.556a.543.543,0,0,1,1.032,0Z" transform="translate(-66.287 -38.862)" fill="#fff1a2" fill-rule="evenodd"/><path d="M81.038,64.372l-4.5,1.476a.543.543,0,0,1-.339,0l-4.5-1.476a.543.543,0,0,1,0-1.032l4.5-1.476a.543.543,0,0,1,.339,0l4.5,1.476a.543.543,0,0,1,0,1.032ZM34.8,43.687l.87,2.65a1.117,1.117,0,0,1,.054.2.466.466,0,0,1,0,.134,1.1,1.1,0,0,1-.054.2l-.87,2.651a.543.543,0,0,1-1.032,0l-.87-2.651a1.1,1.1,0,0,1-.054-.2.467.467,0,0,1,0-.134,1.1,1.1,0,0,1,.054-.2l.87-2.651a.543.543,0,0,1,1.032,0Z" transform="translate(-31.697 -26.798)" fill="#fff1a2" fill-rule="evenodd"/><path d="M35.539,33.235l-2.045.671a.543.543,0,0,1-.339,0l-2.045-.671a.543.543,0,0,1,0-1.032l2.045-.672a.543.543,0,0,1,.339,0l2.045.671a.543.543,0,0,1,0,1.032Zm29.136-19.95.645,1.963a1.1,1.1,0,0,1,.054.2.467.467,0,0,1,0,.135,1.1,1.1,0,0,1-.054.2l-.645,1.963a.543.543,0,0,1-1.032,0L63,15.784a1.1,1.1,0,0,1-.054-.2.466.466,0,0,1,0-.134,1.038,1.038,0,0,1,.054-.2l.644-1.963a.543.543,0,0,1,1.032,0Z" transform="translate(-30.736 -12.911)" fill="#fff1a2" fill-rule="evenodd"/><path d="M92.211,17.36l-1.466.481a.543.543,0,0,1-.339,0l-1.466-.481a.543.543,0,0,1,0-1.032l1.466-.481a.543.543,0,0,1,.339,0l1.466.481a.543.543,0,0,1,0,1.032Z" transform="translate(-57.153 -14.239)" fill="#fff1a2" fill-rule="evenodd"/></g><path d="M1.1-6.705l1.95-.03q.06.615.09,1.245t.038,1.223q.007.592.008,1.162v3.09q-.135.03-.413.075A3.416,3.416,0,0,1,2.22.105a1.35,1.35,0,0,1-.87-.218A.953.953,0,0,1,1.1-.87ZM8.985-2.43,7.05-2.4q-.12-1.125-.128-2.153T6.915-6.525v-2.6q.135-.03.405-.075a3.371,3.371,0,0,1,.555-.045,1.321,1.321,0,0,1,.855.217.953.953,0,0,1,.255.758Zm0-.69V-.27a1.356,1.356,0,0,1-.51.27,2.641,2.641,0,0,1-.8.105,2.481,2.481,0,0,1-.892-.158,1.384,1.384,0,0,1-.7-.7L4.14-4.38q-.18-.345-.353-.7t-.33-.7L3.15-6.45,1.1-5.985V-8.73a1.118,1.118,0,0,1,.54-.368,2.32,2.32,0,0,1,.78-.127,2.439,2.439,0,0,1,.9.165,1.355,1.355,0,0,1,.69.7L5.97-4.725q.18.33.352.682t.338.705q.165.352.3.683Zm4.9,1.785a3.35,3.35,0,0,0,.728-.075,1.626,1.626,0,0,0,.5-.18V-3.12L13.77-3a1.821,1.821,0,0,0-.84.24.637.637,0,0,0-.3.57.747.747,0,0,0,.3.623A1.576,1.576,0,0,0,13.89-1.335ZM13.815-7.38a4.137,4.137,0,0,1,2.422.637,2.277,2.277,0,0,1,.908,2v3.42a.877.877,0,0,1-.187.593,2.092,2.092,0,0,1-.472.4,3.861,3.861,0,0,1-1.1.405,6.8,6.8,0,0,1-1.5.15A4.343,4.343,0,0,1,11.482-.36a1.959,1.959,0,0,1-.892-1.755,1.942,1.942,0,0,1,.63-1.56,3.327,3.327,0,0,1,1.875-.66l2.01-.21V-4.77a.837.837,0,0,0-.405-.78,2.249,2.249,0,0,0-1.14-.24,4.506,4.506,0,0,0-1.125.142,6.185,6.185,0,0,0-.99.338.981.981,0,0,1-.285-.353,1.049,1.049,0,0,1-.12-.488.908.908,0,0,1,.645-.87,4.444,4.444,0,0,1,1.005-.27A7.205,7.205,0,0,1,13.815-7.38Zm.915-1.1-.72-.87q-.375.42-.652.727t-.608.682a1.268,1.268,0,0,1-.765-.24.7.7,0,0,1-.285-.57.71.71,0,0,1,.142-.443,4.539,4.539,0,0,1,.4-.443l.66-.675a2.277,2.277,0,0,1,.517-.4,1.286,1.286,0,0,1,.622-.143,1.437,1.437,0,0,1,.608.128,1.822,1.822,0,0,1,.608.547L16.38-8.805a.928.928,0,0,1-.195.592.735.735,0,0,1-.615.248.771.771,0,0,1-.45-.135A1.935,1.935,0,0,1,14.73-8.475ZM25.695-4.65v1.425H23.61V-4.59a1.041,1.041,0,0,0-.345-.863,1.417,1.417,0,0,0-.915-.278,2.589,2.589,0,0,0-.735.1,2.956,2.956,0,0,0-.6.247v2.16H18.93V-5.6a1.064,1.064,0,0,1,.158-.608,1.764,1.764,0,0,1,.457-.443,4.2,4.2,0,0,1,1.2-.525,5.944,5.944,0,0,1,1.635-.21,3.816,3.816,0,0,1,2.445.7A2.451,2.451,0,0,1,25.695-4.65Zm-6.765.72h2.085V-.015q-.135.03-.39.075a3.2,3.2,0,0,1-.555.045,1.431,1.431,0,0,1-.863-.21A.906.906,0,0,1,18.93-.87Zm4.68,0h2.085V-.015q-.135.03-.39.075a3.106,3.106,0,0,1-.54.045,1.462,1.462,0,0,1-.878-.21A.906.906,0,0,1,23.61-.87ZM30.48-.27a3.9,3.9,0,0,1-1.65-.345A2.694,2.694,0,0,1,27.622-1.74,4.037,4.037,0,0,1,27.165-3.8a3.868,3.868,0,0,1,.465-1.98,2.965,2.965,0,0,1,1.313-1.2,4.49,4.49,0,0,1,1.957-.4,5.152,5.152,0,0,1,1.485.2,4.155,4.155,0,0,1,1.065.457,1.542,1.542,0,0,1,.435.427,1.071,1.071,0,0,1,.165.608V-.99H32.025V-5.475a1.965,1.965,0,0,0-.435-.18,2.2,2.2,0,0,0-.615-.075,1.7,1.7,0,0,0-1.245.473A1.974,1.974,0,0,0,29.25-3.8a2.009,2.009,0,0,0,.458,1.515,1.612,1.612,0,0,0,1.132.42,1.778,1.778,0,0,0,.855-.18,2.761,2.761,0,0,0,.57-.4l.075,1.68a3.256,3.256,0,0,1-.758.345A3.562,3.562,0,0,1,30.48-.27Zm1.575.24V-1.455H34.05V.03a2.746,2.746,0,0,1-.487,1.688,2.83,2.83,0,0,1-1.305.96,5.188,5.188,0,0,1-1.838.307,6.222,6.222,0,0,1-1.372-.135,3.055,3.055,0,0,1-.907-.33,1.022,1.022,0,0,1-.51-.9,1.089,1.089,0,0,1,.128-.532.975.975,0,0,1,.307-.353,4.388,4.388,0,0,0,.945.42,3.818,3.818,0,0,0,1.185.18A2.439,2.439,0,0,0,31.56,1,1.155,1.155,0,0,0,32.055-.03ZM43.14-5.715a1.994,1.994,0,0,0-1.425.555,2.108,2.108,0,0,0-.585,1.605,2.053,2.053,0,0,0,.563,1.575,2.037,2.037,0,0,0,1.447.525,2.755,2.755,0,0,0,.885-.128,3.235,3.235,0,0,0,.645-.292,1.588,1.588,0,0,1,.375.382A.859.859,0,0,1,45.18-1a1,1,0,0,1-.608.877A3.391,3.391,0,0,1,42.93.21a4.793,4.793,0,0,1-2.062-.42,3.055,3.055,0,0,1-1.38-1.268A4.107,4.107,0,0,1,39-3.555a3.951,3.951,0,0,1,.533-2.138,3.345,3.345,0,0,1,1.41-1.267,4.406,4.406,0,0,1,1.927-.42,3.137,3.137,0,0,1,1.62.36,1.055,1.055,0,0,1,.6.915.852.852,0,0,1-.128.45,1.43,1.43,0,0,1-.307.36,3.235,3.235,0,0,0-.645-.293A2.7,2.7,0,0,0,43.14-5.715Zm6.39,4.38a3.35,3.35,0,0,0,.727-.075,1.626,1.626,0,0,0,.5-.18V-3.12L49.41-3a1.821,1.821,0,0,0-.84.24.637.637,0,0,0-.3.57.747.747,0,0,0,.3.623A1.576,1.576,0,0,0,49.53-1.335ZM49.455-7.38a4.137,4.137,0,0,1,2.423.637,2.277,2.277,0,0,1,.907,2v3.42a.877.877,0,0,1-.187.593,2.092,2.092,0,0,1-.472.4A3.861,3.861,0,0,1,51.03.075a6.8,6.8,0,0,1-1.5.15A4.343,4.343,0,0,1,47.122-.36a1.959,1.959,0,0,1-.893-1.755,1.942,1.942,0,0,1,.63-1.56,3.327,3.327,0,0,1,1.875-.66l2.01-.21V-4.77a.837.837,0,0,0-.4-.78,2.249,2.249,0,0,0-1.14-.24,4.506,4.506,0,0,0-1.125.142,6.185,6.185,0,0,0-.99.338.981.981,0,0,1-.285-.353,1.049,1.049,0,0,1-.12-.488.908.908,0,0,1,.645-.87,4.444,4.444,0,0,1,1.005-.27A7.205,7.205,0,0,1,49.455-7.38Zm12.285,3.8a4.177,4.177,0,0,1-.465,2.025A3.253,3.253,0,0,1,59.97-.24a4.025,4.025,0,0,1-1.98.465A4.122,4.122,0,0,1,56-.233,3.192,3.192,0,0,1,54.69-1.545a4.211,4.211,0,0,1-.465-2.04A4.08,4.08,0,0,1,54.7-5.6a3.3,3.3,0,0,1,1.32-1.312A4.036,4.036,0,0,1,57.99-7.38a3.993,3.993,0,0,1,1.965.465A3.3,3.3,0,0,1,61.267-5.6,4.091,4.091,0,0,1,61.74-3.585ZM57.975-5.73a1.4,1.4,0,0,0-1.17.563,2.535,2.535,0,0,0-.435,1.582A2.59,2.59,0,0,0,56.8-1.98a1.42,1.42,0,0,0,1.193.555,1.4,1.4,0,0,0,1.178-.562,2.6,2.6,0,0,0,.427-1.6,2.574,2.574,0,0,0-.427-1.575A1.406,1.406,0,0,0,57.975-5.73Z" transform="translate(702.999 241.937)" fill="#58cc02"/><path d="M.935-8.942a1.088,1.088,0,0,1-.2.637,1.483,1.483,0,0,1-.451.434,5.689,5.689,0,0,0-.96-.519,3.3,3.3,0,0,0-1.3-.229,3.086,3.086,0,0,0-1.607.4A2.679,2.679,0,0,0-4.624-7.047,4.331,4.331,0,0,0-5-5.151a3.556,3.556,0,0,0,.85,2.576,3.051,3.051,0,0,0,2.3.875A3.6,3.6,0,0,0-.544-1.913,5.519,5.519,0,0,0,.425-2.4a1.305,1.305,0,0,1,.417.459A1.336,1.336,0,0,1,1-1.275,1.072,1.072,0,0,1,.833-.7a1.4,1.4,0,0,1-.561.476A5.176,5.176,0,0,1-.672.111,5.845,5.845,0,0,1-2.159.272,6.158,6.158,0,0,1-4.871-.315,4.472,4.472,0,0,1-6.8-2.1a5.889,5.889,0,0,1-.714-3.051,5.856,5.856,0,0,1,.706-2.984,4.707,4.707,0,0,1,1.9-1.844A5.515,5.515,0,0,1-2.3-10.608a5.733,5.733,0,0,1,1.726.229,2.829,2.829,0,0,1,1.114.6A1.132,1.132,0,0,1,.935-8.942Zm5.9,5.882H4.59V-8.517L2.6-7.735a1.532,1.532,0,0,1-.459-.383,1.022,1.022,0,0,1-.2-.672q0-.8.986-1.156l2.193-.85H5.61a1.2,1.2,0,0,1,.9.332,1.248,1.248,0,0,1,.323.91ZM4.59-4.641H6.834V0Q6.7.034,6.426.085a3.234,3.234,0,0,1-.6.051,1.551,1.551,0,0,1-.944-.23.985.985,0,0,1-.3-.825Z" transform="translate(735.286 282.938)" fill="#fff" opacity="0.7"/></g></svg>